<svg width="15" height="19" viewBox="0 0 15 19" fill="none" xmlns="http://www.w3.org/2000/svg">
<path d="M6 0C5.60686 0 5.20575 0.140265 4.92118 0.429641C4.63775 0.719133 4.49944 1.12794 4.49944 1.52778V2.29172H0V3.81939H0.749721V16.0416C0.749721 17.2979 1.76686 18.3333 3 18.3333H12C13.2331 18.3333 14.2492 17.2979 14.2492 16.0416V3.81939H15V2.29172H10.4994V1.52778C10.4994 1.12794 10.3623 0.719133 10.0777 0.429641C9.79314 0.140265 9.392 0 9 0H6ZM6 1.52778H9V2.29172H6V1.52778ZM2.24916 3.81939H12.7497V16.0416C12.7497 16.4654 12.416 16.8056 12 16.8056H3C2.584 16.8056 2.24916 16.4654 2.24916 16.0416V3.81939ZM3.74972 6.11111V14.5139H5.25028V6.11111H3.74972ZM6.74972 6.11111V14.5139H8.24916V6.11111H6.74972ZM9.74972 6.11111V14.5139H11.2503V6.11111H9.74972Z" fill="white"/>
</svg>
