<svg width="100" height="100" viewBox="0 0 100 100" fill="none" xmlns="http://www.w3.org/2000/svg">
<g clip-path="url(#clip0)">
<path d="M50.0713 -0.997452L50 -1.00255L49.9287 -0.997452L42.8129 -0.488526L42.7416 -0.483423L42.6717 -0.46822L35.7008 1.04821L35.6309 1.06341L35.5639 1.0884L28.8798 3.58145L28.8128 3.60645L28.75 3.64072L22.4887 7.05965L22.4259 7.09392L22.3687 7.13678L16.6577 11.412L16.6004 11.4548L16.5499 11.5054L11.5054 16.5499L11.4548 16.6004L11.412 16.6577L7.13678 22.3687L7.09392 22.4259L7.05965 22.4887L3.64072 28.75L3.60645 28.8128L3.58145 28.8798L1.0884 35.5639L1.06341 35.6309L1.04821 35.7008L-0.46822 42.6717L-0.483423 42.7416L-0.488526 42.8129L-0.997452 49.9287L-1.00255 50L-0.997452 50.0713L-0.488526 57.1871L-0.483423 57.2584L-0.46822 57.3283L1.04821 64.2992L1.06341 64.3691L1.0884 64.4361L3.58145 71.1202L3.60645 71.1872L3.64072 71.25L7.05965 77.5113L7.09392 77.5741L7.13678 77.6313L11.412 83.3423L11.4548 83.3996L11.5054 83.4501L16.5499 88.4946L16.6004 88.5452L16.6577 88.588L22.3687 92.8632L22.4259 92.9061L22.4887 92.9404L28.75 96.3593L28.8128 96.3936L28.8798 96.4185L35.5639 98.9116L35.6309 98.9366L35.7008 98.9518L42.6717 100.468L42.7416 100.483L42.8129 100.489L49.9287 100.997L50 101.003L50.0713 100.997L57.1871 100.489L57.2584 100.483L57.3283 100.468L64.2992 98.9518L64.3691 98.9366L64.4361 98.9116L71.1202 96.4185L71.1872 96.3936L71.25 96.3593L77.5113 92.9404L77.5741 92.9061L77.6313 92.8632L83.3423 88.588L83.3996 88.5452L83.4501 88.4946L88.4946 83.4501L88.5452 83.3996L88.588 83.3423L92.8632 77.6313L92.9061 77.5741L92.9404 77.5113L96.3593 71.25L96.3936 71.1872L96.4185 71.1202L98.9116 64.4361L98.9366 64.3691L98.9518 64.2992L100.468 57.3283L100.483 57.2584L100.489 57.1871L100.997 50.0713L101.003 50L100.997 49.9287L100.489 42.8129L100.483 42.7416L100.468 42.6717L98.9518 35.7008L98.9366 35.6309L98.9116 35.5639L96.4185 28.8798L96.3936 28.8128L96.3593 28.75L92.9404 22.4887L92.9061 22.4259L92.8632 22.3687L88.588 16.6577L88.5452 16.6004L88.4946 16.5499L83.4501 11.5054L83.3996 11.4548L83.3423 11.412L77.6313 7.13678L77.5741 7.09392L77.5113 7.05965L71.25 3.64072L71.1872 3.60645L71.1202 3.58145L64.4361 1.0884L64.3691 1.06341L64.2992 1.04821L57.3283 -0.46822L57.2584 -0.483423L57.1871 -0.488526L50.0713 -0.997452Z" fill="#C4C4C4" stroke="white" stroke-width="2"/>
<g clip-path="url(#clip1)">
<path d="M44.1934 32.3535C43.5955 32.3614 43.007 32.7802 42.7747 33.2279L41.092 36.5767H34.1632C31.5585 36.5767 29.4121 38.7231 29.4121 41.3279V61.3882C29.4121 63.993 31.5585 66.1394 34.1632 66.1394H65.8375C68.4422 66.1394 70.5886 63.993 70.5886 61.3882V41.3279C70.5886 38.7231 68.4422 36.5767 65.8375 36.5767H58.9087L57.226 33.2279C56.964 32.7049 56.3923 32.3525 55.8073 32.3535H44.1934ZM45.1832 35.5209H54.8175L56.5002 38.8698C56.7622 39.3928 57.3339 39.7452 57.9189 39.7442H65.8375C66.7422 39.7442 67.4212 40.4231 67.4212 41.3279V61.3882C67.4212 62.293 66.7422 62.9719 65.8375 62.9719H34.1632C33.2585 62.9719 32.5795 62.293 32.5795 61.3882V41.3279C32.5795 40.4231 33.2585 39.7442 34.1632 39.7442H42.0818C42.6668 39.7452 43.2385 39.3928 43.5005 38.8698L45.1832 35.5209ZM50.0003 41.8558C44.7712 41.8558 40.4981 46.1289 40.4981 51.358C40.4981 56.5873 44.7712 60.8603 50.0003 60.8603C55.2295 60.8603 59.5026 56.5872 59.5026 51.358C59.5026 46.1289 55.2295 41.8558 50.0003 41.8558ZM50.0003 45.0232C53.5178 45.0232 56.3352 47.8407 56.3352 51.358C56.3352 54.8755 53.5178 57.6929 50.0003 57.6929C46.4831 57.6929 43.6655 54.8754 43.6655 51.358C43.6655 47.8407 46.4831 45.0232 50.0003 45.0232Z" fill="white"/>
</g>
</g>
<defs>
<clipPath id="clip0">
<rect width="100" height="100" fill="white"/>
</clipPath>
<clipPath id="clip1">
<rect width="41.1765" height="33.7859" fill="white" transform="translate(29.4121 32.3535)"/>
</clipPath>
</defs>
</svg>
