<svg width="29" height="25" viewBox="0 0 29 25" fill="none" xmlns="http://www.w3.org/2000/svg">
<path d="M28.2899 1.61019C27.8167 1.13697 27.2479 0.900391 26.5834 0.900391H2.41665C1.75208 0.900391 1.18333 1.13692 0.709796 1.61019C0.236528 2.08351 0 2.65226 0 3.31688V21.6833C0 22.3481 0.236528 22.9169 0.709796 23.3901C1.18333 23.8634 1.75208 24.1 2.41665 24.1H26.5834C27.2479 24.1 27.8167 23.8634 28.2899 23.3901C28.7632 22.9169 29 22.3481 29 21.6833V3.31688C29 2.65226 28.7632 2.08351 28.2899 1.61019ZM27.0665 21.6836C27.0665 21.8147 27.0187 21.9277 26.923 22.0236C26.8274 22.1189 26.7141 22.1666 26.5834 22.1666H2.41665C2.28582 22.1666 2.1725 22.1189 2.07685 22.0233C1.98126 21.9274 1.93338 21.8144 1.93338 21.6833V12.5002H27.0665V21.6836H27.0665ZM27.0665 6.70001H1.93333V3.31667C1.93333 3.18579 1.98105 3.07273 2.0768 2.97688C2.1725 2.88149 2.28582 2.83361 2.4166 2.83361H26.5833C26.7141 2.83361 26.8274 2.88128 26.923 2.97688C27.0186 3.07273 27.0664 3.18579 27.0664 3.31667V6.70001H27.0665Z" fill="white"/>
<path d="M7.73282 18.2998H3.86621V20.2333H7.73282V18.2998Z" fill="white"/>
<path d="M15.466 18.2998H9.66602V20.2333H15.466V18.2998Z" fill="white"/>
</svg>
