<svg width="21" height="21" viewBox="0 0 21 21" fill="none" xmlns="http://www.w3.org/2000/svg">
<g clip-path="url(#clip0)">
<path d="M17.2352 5.2934C16.9797 5.01536 16.5787 4.97437 16.28 5.19585C15.155 6.03049 9.51173 10.2274 8.90524 10.8875C8.02573 11.8447 8.02573 13.4022 8.90524 14.3595C9.34499 14.838 9.92268 15.0774 10.5003 15.0774C11.0779 15.0774 11.6556 14.838 12.0954 14.3595C12.7018 13.6994 16.558 7.55752 17.3249 6.33303C17.5283 6.00802 17.4907 5.57151 17.2352 5.2934ZM11.0319 13.2021C10.7388 13.5212 10.2618 13.5212 9.96863 13.2021C9.67546 12.8831 9.67542 12.3641 9.96848 12.045C10.2041 11.7915 11.8063 10.5479 13.7776 9.05657C12.4074 11.202 11.2647 12.9457 11.0319 13.2021Z" fill="#FF8B00"/>
<path d="M4.3432 16.4296L3.41497 16.9224C2.73577 15.6031 2.37955 14.1307 2.37955 12.6233C2.37955 11.5189 2.56667 10.4611 2.90815 9.48563L3.97176 10.0409C4.07665 10.0956 4.18737 10.1216 4.29644 10.1216C4.57664 10.1216 4.84563 9.95032 4.97492 9.65695C5.15448 9.24945 4.99658 8.76061 4.62213 8.56515L3.57201 8.01694C4.87721 5.70019 7.13546 4.08498 9.74831 3.8227V5.05353C9.74831 5.50551 10.0849 5.87188 10.5002 5.87188C10.9155 5.87188 11.2521 5.50551 11.2521 5.05353V3.82208C12.148 3.91083 13.0148 4.15912 13.8376 4.56338C14.216 4.74935 14.6614 4.56608 14.8323 4.15425C15.0032 3.74229 14.8348 3.25763 14.4563 3.07166C13.2094 2.45908 11.8784 2.14844 10.5002 2.14844C7.9294 2.14844 5.5125 3.23799 3.69464 5.21643C1.87686 7.1949 0.875732 9.82536 0.875732 12.6233C0.875732 14.6909 1.43959 16.7017 2.50636 18.4383C2.65005 18.6721 2.88762 18.8019 3.13191 18.8019C3.24297 18.8019 3.35546 18.7751 3.46114 18.719L5.00256 17.9006C5.3758 17.7025 5.53077 17.2126 5.3487 16.8063C5.16662 16.4001 4.71645 16.2315 4.3432 16.4296Z" fill="#FF8B00"/>
<path d="M19.2764 8.31783C19.1056 7.90591 18.6603 7.7226 18.2817 7.90865C17.9032 8.09462 17.7349 8.57929 17.9058 8.99121C18.3803 10.1352 18.6209 11.3573 18.6209 12.6235C18.6209 14.1331 18.2635 15.608 17.5823 16.9287L16.6132 16.4265C16.2383 16.2322 15.7896 16.4054 15.6111 16.8135C15.4325 17.2215 15.5917 17.7099 15.9667 17.9042L17.5457 18.7226C17.6496 18.7764 17.7597 18.8021 17.8686 18.8021C18.1129 18.8021 18.3505 18.6722 18.494 18.4385C19.5608 16.7019 20.1247 14.691 20.1247 12.6235C20.1247 11.1235 19.8393 9.67485 19.2764 8.31783Z" fill="#FF8B00"/>
</g>
<defs>
<clipPath id="clip0">
<rect width="19.2489" height="20.9497" fill="white" transform="translate(0.875732)"/>
</clipPath>
</defs>
</svg>
