<svg width="21" height="23" viewBox="0 0 21 23" fill="none" xmlns="http://www.w3.org/2000/svg">
<path d="M8.24739 0.609375C7.72151 0.609375 7.18498 0.779432 6.80434 1.13224C6.42522 1.48506 6.24021 1.98235 6.24021 2.46977V3.39928H0.22168V5.25829H1.22452V20.1359C1.22452 21.6648 2.58506 22.9258 4.23453 22.9258H16.2731C17.9226 22.9258 19.2816 21.6648 19.2816 20.1359V5.25829H20.2859V3.39928H14.2659V2.46977C14.2659 1.98235 14.0824 1.48506 13.7018 1.13224C13.3212 0.779432 12.7846 0.609375 12.2602 0.609375H8.24739ZM8.24739 2.46977H12.2602V3.39928H8.24739V2.46977ZM3.2302 5.25829H17.2759V20.1359C17.2759 20.6517 16.8295 21.0654 16.2731 21.0654H4.23453C3.67808 21.0654 3.2302 20.6517 3.2302 20.1359V5.25829ZM5.23737 8.0482V18.2769H7.24455V8.0482H5.23737ZM9.25023 8.0482V18.2769H11.2559V8.0482H9.25023ZM13.2631 8.0482V18.2769H15.2703V8.0482H13.2631Z" fill="#333333"/>
</svg>
