<svg width="28" height="15" viewBox="0 0 28 15" fill="none" xmlns="http://www.w3.org/2000/svg">
<path d="M14.0439 0.416992C6.35458 0.416992 0.285645 7.70488 0.285645 7.70488C0.285645 7.70488 6.35306 14.9928 14.0439 14.9928C19.9249 14.9928 27.8022 7.70348 27.8022 7.70348C27.8022 7.70348 19.9249 0.416992 14.0439 0.416992ZM14.0439 12.2465C11.3443 12.2465 9.14444 10.2088 9.14444 7.70348C9.14444 5.20096 11.3443 3.16039 14.0439 3.16039C16.7421 3.16039 18.9435 5.19955 18.9435 7.70348C18.9435 10.2074 16.7421 12.2465 14.0439 12.2465ZM14.0439 5.05357C12.4648 5.05357 11.1838 6.24107 11.1838 7.70488C11.1838 9.1687 12.4648 10.3562 14.0439 10.3562C15.6231 10.3562 16.9041 9.16871 16.9041 7.70348C16.9041 6.24108 15.6231 5.05357 14.0439 5.05357Z" fill="#333333"/>
</svg>
