<svg width="15" height="15" viewBox="0 0 20 20" fill="none" xmlns="http://www.w3.org/2000/svg">
<path d="M19.7528 1.81111C19.913 1.61302 20.0003 1.36589 20 1.11111C20 0.816425 19.8829 0.53381 19.6746 0.325436C19.4662 0.117063 19.1836 0 18.8889 0H1.11114C0.890194 0.000447556 0.674399 0.0667563 0.491326 0.190454C0.308254 0.314152 0.166216 0.489622 0.0833623 0.694443C0.027327 0.826155 -0.00103769 0.967978 2.90062e-05 1.11111C3.28058e-05 1.36847 0.0893775 1.61785 0.252806 1.81666L0.955583 2.675L4.91947 7.51388L7.43335 10.5694C7.54407 10.675 7.63182 10.8022 7.69109 10.9432C7.75036 11.0842 7.77988 11.2359 7.7778 11.3889V18.8889C7.7778 19.1835 7.89486 19.4662 8.10323 19.6745C8.31161 19.8829 8.59422 20 8.8889 20C9.11891 19.9995 9.34311 19.9277 9.53057 19.7944L9.59724 19.7444L11.7278 18.1444L11.7889 18.1C11.9234 17.9965 12.0323 17.8635 12.1074 17.7114C12.1826 17.5592 12.2218 17.3919 12.2222 17.2222V11.3889C12.2221 11.2389 12.2523 11.0905 12.311 10.9525C12.3697 10.8146 12.4557 10.6899 12.5639 10.5861L15.0806 7.51388L19.7472 1.81666L19.7528 1.81111Z" fill="#ffffff"/>
</svg>
