<svg width="24" height="17" viewBox="0 0 24 17" fill="none" xmlns="http://www.w3.org/2000/svg">
<g clip-path="url(#clip0)">
<path d="M8.34533 0C3.86373 0 0.229867 3.6336 0.229867 8.11547C0.229867 9.96027 0.846933 11.66 1.88373 13.0235L0 16.6917L3.79707 14.8368C5.09467 15.7168 6.66 16.2309 8.34533 16.2309C12.8277 16.2309 16.4611 12.5976 16.4611 8.11547C16.4611 3.6336 12.8277 0 8.34533 0ZM9.66027 13.4501H7.2736V11.1627H9.66027V13.4501ZM10.8789 8.0512L9.91307 9.28747C9.7448 9.50507 9.66027 9.72773 9.66027 9.95547V10.0829H7.2736V9.756C7.2736 9.15973 7.47067 8.6336 7.86453 8.1792L8.87413 7.01387C9.13307 6.71067 9.26293 6.4456 9.26293 6.21867C9.26293 5.64053 8.97893 5.35173 8.41013 5.35173C7.84187 5.35173 7.55787 5.64987 7.55787 6.2464H5.22773C5.22773 5.31867 5.54507 4.57467 6.1792 4.016C6.76667 3.50427 7.5104 3.24853 8.41013 3.24853C9.30053 3.24853 10.0389 3.49973 10.6267 4.00187C11.2709 4.5512 11.5931 5.29467 11.5931 6.23227C11.5931 6.83867 11.3549 7.44507 10.8789 8.0512Z" fill="#FF8B00"/>
<path d="M22.8415 14.5509C23.4773 13.7143 23.8591 12.6743 23.8591 11.5429C23.8591 8.79166 21.6277 6.56152 18.8778 6.56152C18.3002 6.56152 17.7485 6.66472 17.2325 6.84499C17.2919 7.26046 17.3239 7.68392 17.3239 8.11512C17.3239 10.5453 16.3522 12.7514 14.7783 14.3698C15.677 15.6701 17.177 16.5234 18.8778 16.5234C19.9119 16.5234 20.8725 16.2079 21.6693 15.6685L23.9999 16.8066L22.8415 14.5509ZM19.7242 14.4605H18.4426V10.4207H19.7242V14.4605ZM19.7242 9.82739H18.4426V8.85086H19.7242V9.82739Z" fill="#FF8B00"/>
</g>
<defs>
<clipPath id="clip0">
<rect width="24" height="16.8069" fill="white"/>
</clipPath>
</defs>
</svg>
