<svg width="22" height="24" viewBox="0 0 22 24" fill="none" xmlns="http://www.w3.org/2000/svg">
<g clip-path="url(#clip0)">
<path fill-rule="evenodd" clip-rule="evenodd" d="M3.074 12.4895L5.40375 8.73158L3.51776 8.95263C3.85058 4.75263 7.28973 1.54737 11.6164 1.54737C16.054 1.54737 19.715 5.08421 19.715 9.61579C19.715 13.2632 17.1634 16.4684 13.6133 17.3526C11.0617 18.0158 8.51007 17.4632 6.51315 15.9158L5.51469 17.0211C7.84443 18.9 10.9508 19.5632 13.9461 18.7895C18.1619 17.7947 21.1573 13.9263 21.1573 9.61579C21.1573 4.31053 16.8306 0 11.6164 0C6.40221 0 2.18648 3.97895 1.9646 9.06316L0.0786133 9.28421L3.074 12.4895Z" fill="#E5E5E5"/>
<path fill-rule="evenodd" clip-rule="evenodd" d="M11.3946 4.53125H12.504V9.94704L7.40075 13.7049L6.73511 12.7102L11.3946 9.39441V4.53125Z" fill="#E5E5E5"/>
</g>
<defs>
<clipPath id="clip0">
<rect width="21.0787" height="23.9013" fill="white" transform="translate(0.0786133)"/>
</clipPath>
</defs>
</svg>
