<svg width="50" height="63" viewBox="0 0 50 63" fill="none" xmlns="http://www.w3.org/2000/svg">
<path d="M46.0352 40.9033H3.96484V48.1348H46.0352V40.9033Z" fill="#C4C4C4"/>
<path d="M46.0352 47.647C45.6592 47.647 45.2832 47.647 44.9072 47.647C43.8867 47.647 42.8711 47.647 41.8506 47.647C40.3369 47.647 38.8232 47.647 37.3145 47.647C35.4785 47.647 33.6377 47.647 31.8018 47.647C29.79 47.647 27.7734 47.647 25.7617 47.647C23.7207 47.647 21.6797 47.647 19.6387 47.647C17.7441 47.647 15.8496 47.647 13.9551 47.647C12.3486 47.647 10.7422 47.647 9.13086 47.647C7.97852 47.647 6.82617 47.647 5.67871 47.647C5.13672 47.647 4.58496 47.6225 4.03809 47.647C4.01367 47.647 3.98926 47.647 3.96484 47.647C4.12598 47.8081 4.29199 47.9741 4.45312 48.1352C4.45312 46.021 4.45312 43.9067 4.45312 41.7973C4.45312 41.4995 4.45312 41.2016 4.45312 40.9038C4.29199 41.0649 4.12598 41.2309 3.96484 41.392C4.34082 41.392 4.7168 41.392 5.09277 41.392C6.11328 41.392 7.12891 41.392 8.14941 41.392C9.66309 41.392 11.1768 41.392 12.6855 41.392C14.5215 41.392 16.3623 41.392 18.1982 41.392C20.21 41.392 22.2266 41.392 24.2383 41.392C26.2793 41.392 28.3203 41.392 30.3613 41.392C32.2559 41.392 34.1504 41.392 36.0449 41.392C37.6514 41.392 39.2578 41.392 40.8691 41.392C42.0215 41.392 43.1738 41.392 44.3213 41.392C44.8633 41.392 45.415 41.4165 45.9619 41.392C45.9863 41.392 46.0107 41.392 46.0352 41.392C45.874 41.2309 45.708 41.0649 45.5469 40.9038C45.5469 43.018 45.5469 45.1323 45.5469 47.2417C45.5469 47.5395 45.5469 47.8374 45.5469 48.1352C45.5469 48.7651 46.5234 48.7651 46.5234 48.1352C46.5234 46.021 46.5234 43.9067 46.5234 41.7973C46.5234 41.4995 46.5234 41.2016 46.5234 40.9038C46.5234 40.6401 46.2988 40.4155 46.0352 40.4155C45.6592 40.4155 45.2832 40.4155 44.9072 40.4155C43.8867 40.4155 42.8711 40.4155 41.8506 40.4155C40.3369 40.4155 38.8232 40.4155 37.3145 40.4155C35.4785 40.4155 33.6377 40.4155 31.8018 40.4155C29.79 40.4155 27.7734 40.4155 25.7617 40.4155C23.7207 40.4155 21.6797 40.4155 19.6387 40.4155C17.7441 40.4155 15.8496 40.4155 13.9551 40.4155C12.3486 40.4155 10.7422 40.4155 9.13086 40.4155C7.97852 40.4155 6.82617 40.4155 5.67871 40.4155C5.13184 40.4155 4.58496 40.4057 4.03809 40.4155C4.01367 40.4155 3.98926 40.4155 3.96484 40.4155C3.70117 40.4155 3.47656 40.6401 3.47656 40.9038C3.47656 43.018 3.47656 45.1323 3.47656 47.2417C3.47656 47.5395 3.47656 47.8374 3.47656 48.1352C3.47656 48.3989 3.70117 48.6235 3.96484 48.6235C4.34082 48.6235 4.7168 48.6235 5.09277 48.6235C6.11328 48.6235 7.12891 48.6235 8.14941 48.6235C9.66309 48.6235 11.1768 48.6235 12.6855 48.6235C14.5215 48.6235 16.3623 48.6235 18.1982 48.6235C20.21 48.6235 22.2266 48.6235 24.2383 48.6235C26.2793 48.6235 28.3203 48.6235 30.3613 48.6235C32.2559 48.6235 34.1504 48.6235 36.0449 48.6235C37.6514 48.6235 39.2578 48.6235 40.8691 48.6235C42.0215 48.6235 43.1738 48.6235 44.3213 48.6235C44.8682 48.6235 45.415 48.6333 45.9619 48.6235C45.9863 48.6235 46.0107 48.6235 46.0352 48.6235C46.665 48.6235 46.665 47.647 46.0352 47.647Z" fill="#C4C4C4"/>
<path d="M46.0352 15.9326H3.96484V11.6309L25 1.86523L46.0352 11.6309V15.9326Z" fill="#C4C4C4"/>
<path d="M46.0352 15.4446C45.6592 15.4446 45.2832 15.4446 44.9072 15.4446C43.8867 15.4446 42.8711 15.4446 41.8506 15.4446C40.3369 15.4446 38.8232 15.4446 37.3145 15.4446C35.4785 15.4446 33.6377 15.4446 31.8018 15.4446C29.79 15.4446 27.7734 15.4446 25.7617 15.4446C23.7207 15.4446 21.6797 15.4446 19.6387 15.4446C17.7441 15.4446 15.8496 15.4446 13.9551 15.4446C12.3486 15.4446 10.7422 15.4446 9.13086 15.4446C7.97852 15.4446 6.82617 15.4446 5.67871 15.4446C5.13672 15.4446 4.58496 15.4202 4.03809 15.4446C4.01367 15.4446 3.98926 15.4446 3.96484 15.4446C4.12598 15.6058 4.29199 15.7718 4.45312 15.9329C4.45312 14.678 4.45312 13.4232 4.45312 12.1683C4.45312 11.9876 4.45312 11.8069 4.45312 11.6263C4.37012 11.7679 4.29199 11.9095 4.20898 12.0462C4.90234 11.7239 5.60059 11.4017 6.29395 11.0794C7.97363 10.2982 9.64844 9.52179 11.3281 8.74054C13.3496 7.80304 15.376 6.86066 17.3975 5.92316C19.1504 5.10773 20.9082 4.2923 22.6611 3.47687C23.2324 3.2132 23.8037 2.94464 24.3799 2.68097C24.6533 2.55402 24.9414 2.44171 25.21 2.29523C25.2197 2.29035 25.2344 2.28546 25.2441 2.28058C25.0781 2.28058 24.917 2.28058 24.751 2.28058C25.4443 2.60285 26.1426 2.92511 26.8359 3.24738C28.5156 4.02863 30.1904 4.805 31.8701 5.58625C33.8916 6.52375 35.918 7.46613 37.9395 8.40363C39.6924 9.21906 41.4502 10.0345 43.2031 10.8499C43.7744 11.1136 44.3457 11.3821 44.9219 11.6458C45.1953 11.7728 45.4688 11.929 45.752 12.0316C45.7617 12.0364 45.7764 12.0413 45.7861 12.0462C45.7031 11.9046 45.625 11.763 45.542 11.6263C45.542 12.8812 45.542 14.1361 45.542 15.3909C45.542 15.5716 45.542 15.7523 45.542 15.9329C45.542 16.5628 46.5186 16.5628 46.5186 15.9329C46.5186 14.678 46.5186 13.4232 46.5186 12.1683C46.5186 11.9876 46.5186 11.8069 46.5186 11.6263C46.5186 11.4652 46.4307 11.2747 46.2744 11.2064C45.5713 10.8792 44.8633 10.5521 44.1602 10.2249C42.4756 9.44367 40.7959 8.66242 39.1113 7.88117C37.0801 6.93878 35.0488 5.9964 33.0176 5.05402C31.2793 4.24347 29.5312 3.43292 27.7832 2.6175C26.9482 2.23175 26.1133 1.83136 25.2734 1.45539C24.9561 1.31378 24.7266 1.45539 24.4434 1.58722C24.0088 1.78742 23.5742 1.9925 23.1396 2.19269C21.5576 2.92511 19.9805 3.65753 18.3984 4.39484C16.3721 5.33722 14.3457 6.27472 12.3145 7.2171C10.4883 8.06183 8.66699 8.91144 6.84082 9.75617C5.84473 10.22 4.84863 10.6839 3.84766 11.1429C3.80371 11.1624 3.75488 11.1868 3.71094 11.2064C3.55957 11.2747 3.4668 11.47 3.4668 11.6263C3.4668 12.8812 3.4668 14.1361 3.4668 15.3909C3.4668 15.5716 3.4668 15.7523 3.4668 15.9329C3.4668 16.1966 3.69141 16.4212 3.95508 16.4212C4.33105 16.4212 4.70703 16.4212 5.08301 16.4212C6.10352 16.4212 7.11914 16.4212 8.13965 16.4212C9.65332 16.4212 11.167 16.4212 12.6758 16.4212C14.5117 16.4212 16.3525 16.4212 18.1885 16.4212C20.2002 16.4212 22.2168 16.4212 24.2285 16.4212C26.2695 16.4212 28.3105 16.4212 30.3516 16.4212C32.2461 16.4212 34.1406 16.4212 36.0352 16.4212C37.6416 16.4212 39.248 16.4212 40.8594 16.4212C42.0117 16.4212 43.1641 16.4212 44.3115 16.4212C44.8584 16.4212 45.4053 16.431 45.9521 16.4212C45.9766 16.4212 46.001 16.4212 46.0254 16.4212C46.665 16.4212 46.665 15.4446 46.0352 15.4446Z" fill="#C4C4C4"/>
<path d="M28.3984 18.8623H21.5967V37.9736H28.3984V18.8623Z" fill="#C4C4C4"/>
<path d="M28.4036 37.4854C26.4163 37.4854 24.429 37.4854 22.4466 37.4854C22.1634 37.4854 21.8851 37.4854 21.6019 37.4854C21.763 37.6465 21.929 37.8125 22.0902 37.9736C22.0902 37.3389 22.0902 36.7041 22.0902 36.0645C22.0902 34.5459 22.0902 33.0273 22.0902 31.5088C22.0902 29.6729 22.0902 27.8369 22.0902 26.001C22.0902 24.4043 22.0902 22.8125 22.0902 21.2158C22.0902 20.6885 22.0902 20.166 22.0902 19.6387C22.0902 19.3945 22.1097 19.1357 22.0902 18.8916C22.0902 18.8818 22.0902 18.8721 22.0902 18.8574C21.929 19.0186 21.763 19.1846 21.6019 19.3457C23.5892 19.3457 25.5765 19.3457 27.5589 19.3457C27.8421 19.3457 28.1204 19.3457 28.4036 19.3457C28.2425 19.1846 28.0765 19.0186 27.9154 18.8574C27.9154 19.4922 27.9154 20.127 27.9154 20.7666C27.9154 22.2852 27.9154 23.8037 27.9154 25.3223C27.9154 27.1582 27.9154 28.9941 27.9154 30.8301C27.9154 32.4268 27.9154 34.0186 27.9154 35.6152C27.9154 36.3867 27.8861 37.168 27.9154 37.9395C27.9154 37.9492 27.9154 37.959 27.9154 37.9736C27.9154 38.6035 28.8919 38.6035 28.8919 37.9736C28.8919 37.3389 28.8919 36.7041 28.8919 36.0645C28.8919 34.5459 28.8919 33.0273 28.8919 31.5088C28.8919 29.6729 28.8919 27.8369 28.8919 26.001C28.8919 24.4043 28.8919 22.8125 28.8919 21.2158C28.8919 20.4443 28.9212 19.6631 28.8919 18.8916C28.8919 18.8818 28.8919 18.8721 28.8919 18.8574C28.8919 18.5938 28.6673 18.3691 28.4036 18.3691C26.4163 18.3691 24.429 18.3691 22.4466 18.3691C22.1634 18.3691 21.8851 18.3691 21.6019 18.3691C21.3382 18.3691 21.1136 18.5938 21.1136 18.8574C21.1136 19.4922 21.1136 20.127 21.1136 20.7666C21.1136 22.2852 21.1136 23.8037 21.1136 25.3223C21.1136 27.1582 21.1136 28.9941 21.1136 30.8301C21.1136 32.4268 21.1136 34.0186 21.1136 35.6152C21.1136 36.3867 21.0843 37.168 21.1136 37.9395C21.1136 37.9492 21.1136 37.959 21.1136 37.9736C21.1136 38.2373 21.3382 38.4619 21.6019 38.4619C23.5892 38.4619 25.5765 38.4619 27.5589 38.4619C27.8421 38.4619 28.1204 38.4619 28.4036 38.4619C29.0286 38.4619 29.0286 37.4854 28.4036 37.4854Z" fill="#C4C4C4"/>
<path d="M15.0928 18.8623H8.29102V37.9736H15.0928V18.8623Z" fill="#C4C4C4"/>
<path d="M15.0931 37.4854C13.1058 37.4854 11.1185 37.4854 9.13607 37.4854C8.85286 37.4854 8.57454 37.4854 8.29134 37.4854C8.45247 37.6465 8.61849 37.8125 8.77962 37.9736C8.77962 37.3389 8.77962 36.7041 8.77962 36.0645C8.77962 34.5459 8.77962 33.0273 8.77962 31.5088C8.77962 29.6729 8.77962 27.8369 8.77962 26.001C8.77962 24.4043 8.77962 22.8125 8.77962 21.2158C8.77962 20.6885 8.77962 20.166 8.77962 19.6387C8.77962 19.3945 8.79915 19.1357 8.77962 18.8916C8.77962 18.8818 8.77962 18.8721 8.77962 18.8574C8.61849 19.0186 8.45247 19.1846 8.29134 19.3457C10.2786 19.3457 12.2659 19.3457 14.2484 19.3457C14.5316 19.3457 14.8099 19.3457 15.0931 19.3457C14.932 19.1846 14.766 19.0186 14.6048 18.8574C14.6048 19.4922 14.6048 20.127 14.6048 20.7666C14.6048 22.2852 14.6048 23.8037 14.6048 25.3223C14.6048 27.1582 14.6048 28.9941 14.6048 30.8301C14.6048 32.4268 14.6048 34.0186 14.6048 35.6152C14.6048 36.3867 14.5755 37.168 14.6048 37.9395C14.6048 37.9492 14.6048 37.959 14.6048 37.9736C14.6048 38.6035 15.5814 38.6035 15.5814 37.9736C15.5814 37.3389 15.5814 36.7041 15.5814 36.0645C15.5814 34.5459 15.5814 33.0273 15.5814 31.5088C15.5814 29.6729 15.5814 27.8369 15.5814 26.001C15.5814 24.4043 15.5814 22.8125 15.5814 21.2158C15.5814 20.4443 15.6107 19.6631 15.5814 18.8916C15.5814 18.8818 15.5814 18.8721 15.5814 18.8574C15.5814 18.5938 15.3568 18.3691 15.0931 18.3691C13.1058 18.3691 11.1185 18.3691 9.13607 18.3691C8.85286 18.3691 8.57454 18.3691 8.29134 18.3691C8.02767 18.3691 7.80306 18.5938 7.80306 18.8574C7.80306 19.4922 7.80306 20.127 7.80306 20.7666C7.80306 22.2852 7.80306 23.8037 7.80306 25.3223C7.80306 27.1582 7.80306 28.9941 7.80306 30.8301C7.80306 32.4268 7.80306 34.0186 7.80306 35.6152C7.80306 36.3867 7.77376 37.168 7.80306 37.9395C7.80306 37.9492 7.80306 37.959 7.80306 37.9736C7.80306 38.2373 8.02767 38.4619 8.29134 38.4619C10.2786 38.4619 12.2659 38.4619 14.2484 38.4619C14.5316 38.4619 14.8099 38.4619 15.0931 38.4619C15.723 38.4619 15.723 37.4854 15.0931 37.4854Z" fill="#C4C4C4"/>
<path d="M41.709 18.8623H34.9072V37.9736H41.709V18.8623Z" fill="#C4C4C4"/>
<path d="M41.7093 37.4854C39.722 37.4854 37.7347 37.4854 35.7523 37.4854C35.4691 37.4854 35.1908 37.4854 34.9076 37.4854C35.0687 37.6465 35.2347 37.8125 35.3958 37.9736C35.3958 37.3389 35.3958 36.7041 35.3958 36.0645C35.3958 34.5459 35.3958 33.0273 35.3958 31.5088C35.3958 29.6729 35.3958 27.8369 35.3958 26.001C35.3958 24.4043 35.3958 22.8125 35.3958 21.2158C35.3958 20.6885 35.3958 20.166 35.3958 19.6387C35.3958 19.3945 35.4154 19.1357 35.3958 18.8916C35.3958 18.8818 35.3958 18.8721 35.3958 18.8574C35.2347 19.0186 35.0687 19.1846 34.9076 19.3457C36.8949 19.3457 38.8822 19.3457 40.8646 19.3457C41.1478 19.3457 41.4261 19.3457 41.7093 19.3457C41.5482 19.1846 41.3822 19.0186 41.221 18.8574C41.221 19.4922 41.221 20.127 41.221 20.7666C41.221 22.2852 41.221 23.8037 41.221 25.3223C41.221 27.1582 41.221 28.9941 41.221 30.8301C41.221 32.4268 41.221 34.0186 41.221 35.6152C41.221 36.3867 41.1917 37.168 41.221 37.9395C41.221 37.9492 41.221 37.959 41.221 37.9736C41.221 38.6035 42.1976 38.6035 42.1976 37.9736C42.1976 37.3389 42.1976 36.7041 42.1976 36.0645C42.1976 34.5459 42.1976 33.0273 42.1976 31.5088C42.1976 29.6729 42.1976 27.8369 42.1976 26.001C42.1976 24.4043 42.1976 22.8125 42.1976 21.2158C42.1976 20.4443 42.2269 19.6631 42.1976 18.8916C42.1976 18.8818 42.1976 18.8721 42.1976 18.8574C42.1976 18.5938 41.973 18.3691 41.7093 18.3691C39.722 18.3691 37.7347 18.3691 35.7523 18.3691C35.4691 18.3691 35.1908 18.3691 34.9076 18.3691C34.6439 18.3691 34.4193 18.5938 34.4193 18.8574C34.4193 19.4922 34.4193 20.127 34.4193 20.7666C34.4193 22.2852 34.4193 23.8037 34.4193 25.3223C34.4193 27.1582 34.4193 28.9941 34.4193 30.8301C34.4193 32.4268 34.4193 34.0186 34.4193 35.6152C34.4193 36.3867 34.39 37.168 34.4193 37.9395C34.4193 37.9492 34.4193 37.959 34.4193 37.9736C34.4193 38.2373 34.6439 38.4619 34.9076 38.4619C36.8949 38.4619 38.8822 38.4619 40.8646 38.4619C41.1478 38.4619 41.4261 38.4619 41.7093 38.4619C42.3392 38.4619 42.3392 37.4854 41.7093 37.4854Z" fill="#C4C4C4"/>
</svg>
