<?xml version="1.0"?>
<svg xmlns="http://www.w3.org/2000/svg" xmlns:xlink="http://www.w3.org/1999/xlink" version="1.1" id="Capa_1" x="0px" y="0px" viewBox="0 0 56 56" style="enable-background:new 0 0 56 56;" xml:space="preserve" width="512px" height="512px" class=""><g><g>
	<g>
		<path style="fill:#FF8B02" d="M44.136,52H8.864C4.245,52,0.5,48.255,0.5,43.636V8.364C0.5,3.745,4.245,0,8.864,0h35.272    C48.755,0,52.5,3.745,52.5,8.364v35.272C52.5,48.255,48.755,52,44.136,52z" data-original="#3ABCA7" class="" data-old_color="#FF008B"/>
		<path style="fill:#FFFFFF;" d="M44.5,14h-18c-0.552,0-1-0.447-1-1s0.448-1,1-1h18c0.552,0,1,0.447,1,1S45.052,14,44.5,14z" data-original="#FFFFFF" class=""/>
		<path style="fill:#FFFFFF;" d="M44.5,28h-18c-0.552,0-1-0.447-1-1s0.448-1,1-1h18c0.552,0,1,0.447,1,1S45.052,28,44.5,28z" data-original="#FFFFFF" class=""/>
		<path style="fill:#FFFFFF;" d="M44.5,42h-18c-0.552,0-1-0.447-1-1s0.448-1,1-1h18c0.552,0,1,0.447,1,1S45.052,42,44.5,42z" data-original="#FFFFFF" class=""/>
		<path style="fill:#FFFFFF;" d="M12.571,17c-0.209,0-0.42-0.065-0.6-0.2L7.4,13.371c-0.442-0.331-0.531-0.958-0.2-1.399    c0.331-0.442,0.958-0.531,1.4-0.2l3.822,2.866l6.248-7.288c0.36-0.42,0.992-0.468,1.41-0.108c0.419,0.359,0.468,0.99,0.108,1.409    l-6.857,8C13.133,16.881,12.854,17,12.571,17z" data-original="#FFFFFF" class=""/>
		<path style="fill:#FFFFFF;" d="M12.571,31c-0.209,0-0.42-0.065-0.6-0.2L7.4,27.371c-0.442-0.331-0.531-0.958-0.2-1.399    c0.331-0.442,0.958-0.531,1.4-0.2l3.822,2.866l6.248-7.288c0.36-0.42,0.992-0.468,1.41-0.108c0.419,0.359,0.468,0.99,0.108,1.409    l-6.857,8C13.133,30.881,12.854,31,12.571,31z" data-original="#FFFFFF" class=""/>
		<path style="fill:#FFFFFF;" d="M12.571,45.999c-0.209,0-0.42-0.065-0.6-0.2L7.4,42.37c-0.442-0.331-0.531-0.958-0.2-1.399    c0.331-0.442,0.958-0.53,1.4-0.2l3.822,2.866l6.248-7.287c0.36-0.42,0.992-0.468,1.41-0.108c0.419,0.359,0.468,0.99,0.108,1.409    l-6.857,7.999C13.133,45.88,12.854,45.999,12.571,45.999z" data-original="#FFFFFF" class=""/>
	</g>
	<g>
		<circle style="fill:#F38303" cx="43.5" cy="44" r="12" data-original="#26B999" class="active-path" data-old_color="#FF8B02"/>
		<path style="fill:#FFFFFF;" d="M50.071,38.179c-0.455-0.316-1.077-0.204-1.392,0.25l-5.596,8.04l-3.949-3.242    c-0.426-0.351-1.057-0.288-1.407,0.139c-0.351,0.427-0.289,1.057,0.139,1.407l4.786,3.929c0.18,0.147,0.404,0.227,0.634,0.227    c0.045,0,0.091-0.003,0.137-0.009c0.276-0.039,0.524-0.19,0.684-0.419l6.214-8.929C50.636,39.118,50.524,38.495,50.071,38.179z" data-original="#FFFFFF" class=""/>
	</g>
</g></g> </svg>
