<svg width="24" height="24" viewBox="0 0 24 24" fill="none" xmlns="http://www.w3.org/2000/svg">
<path d="M12.9069 5.17282C12.8763 4.60028 12.2911 4.69768 11.7202 4.69768C12.1419 4.81001 12.5409 4.96628 12.9069 5.17282Z" fill="#E5E5E5"/>
<path d="M6.80381 3.73828C4.58746 3.73828 3.56731 6.5436 5.33907 7.95453C5.94306 6.34176 7.14543 5.18375 8.72167 4.72667C8.29049 4.13057 7.59385 3.73828 6.80381 3.73828Z" fill="#E5E5E5"/>
<path d="M2.22489 7.51595C2.31521 7.80578 2.43224 8.08383 2.57126 8.34727L1.84322 9.07571C1.6477 9.27123 1.6477 9.58857 1.84322 9.78449L3.1265 11.0682C3.21996 11.1616 3.34801 11.2142 3.48147 11.2142C3.61346 11.2142 3.74065 11.1616 3.83573 11.0682L4.56296 10.3397C4.6721 10.3975 4.79307 10.4329 4.9061 10.4827C4.9061 10.4744 4.90529 10.4658 4.90529 10.4575C4.90529 9.86222 4.97366 9.30066 5.09539 8.77334C4.21735 8.20824 3.63147 7.22733 3.63147 6.1074C3.63147 4.358 5.05453 2.93453 6.80353 2.93453C7.98784 2.93453 9.01037 3.59384 9.5562 4.5571C10.1389 4.48483 10.6863 4.48483 11.3453 4.60934C11.2605 4.35294 11.1608 4.102 11.0359 3.86678L11.7639 3.13798C11.8589 3.04412 11.9115 2.91647 11.9115 2.78377C11.9115 2.65102 11.8589 2.52342 11.7639 2.42956L10.4813 1.14668C10.3832 1.04852 10.2552 0.999821 10.1272 0.999821C9.99911 0.999821 9.87111 1.04852 9.77371 1.14668L9.04334 1.87549C8.7795 1.7357 8.50227 1.61868 8.21173 1.53033V0.500669C8.21173 0.224239 7.98865 0 7.71141 0H5.89646C5.62079 0 5.39534 0.224239 5.39534 0.500669V1.53028C5.10556 1.61863 4.82827 1.73565 4.56362 1.87544L3.83573 1.14744C3.73752 1.04928 3.60952 1.00058 3.48147 1.00058C3.35347 1.00058 3.22471 1.04928 3.12731 1.14704L1.84322 2.42991C1.74976 2.52418 1.69716 2.65137 1.69716 2.78453C1.69716 2.91764 1.74976 3.04488 1.84322 3.13874L2.57126 3.86714C2.43219 4.13103 2.31521 4.40867 2.22651 4.69845H1.19766C0.920418 4.69845 0.696533 4.92304 0.696533 5.19988V7.01488C0.696533 7.2909 0.920418 7.51595 1.19766 7.51595H2.22489Z" fill="#E5E5E5"/>
<path d="M17.9472 17.2273C18.7499 16.7871 19.3012 15.9445 19.3012 14.9666C19.3012 13.5396 18.1397 12.3789 16.7127 12.3789C16.2108 12.3789 15.7458 12.5289 15.3485 12.7771C15.1105 13.7242 14.7359 14.6301 14.2458 15.417C15.6351 15.6782 16.9098 16.3108 17.9472 17.2273Z" fill="#E5E5E5"/>
<path d="M23.3029 13.9873C23.3029 13.6885 23.0602 13.4465 22.7626 13.4465H21.6521C21.5563 13.1335 21.4291 12.8335 21.2783 12.5488L22.0644 11.7627C22.1665 11.6614 22.223 11.524 22.223 11.3807C22.223 11.2373 22.1665 11.0998 22.0644 10.9982L20.6805 9.61396C20.5754 9.50826 20.4363 9.45526 20.2982 9.45526C20.1599 9.45526 20.0217 9.50826 19.9165 9.61396L19.1288 10.4005C18.8444 10.2497 18.5452 10.1233 18.2311 10.0278V8.91732C18.2311 8.61889 17.9899 8.37695 17.6915 8.37695H15.7336C15.6024 8.37695 15.487 8.42955 15.3928 8.50733C15.5577 9.10889 15.648 9.76118 15.648 10.457C15.648 10.8988 15.6135 11.3473 15.5491 11.7933C15.9135 11.659 16.3014 11.5746 16.7122 11.5746C18.5829 11.5746 20.1049 13.0963 20.1049 14.9665C20.1049 16.1619 19.4806 17.2096 18.5436 17.8139C19.2254 18.5616 19.7673 19.4486 20.1199 20.4425C20.178 20.4625 20.2384 20.4771 20.2989 20.4771C20.4371 20.4771 20.5754 20.4245 20.6814 20.3188L22.066 18.9346C22.1674 18.8332 22.2231 18.6958 22.2231 18.5525C22.2231 18.4092 22.1674 18.2718 22.066 18.17L21.2783 17.3835C21.4291 17.0992 21.5563 16.7991 21.6522 16.4858H22.7626C22.9055 16.4858 23.0446 16.4293 23.1451 16.3271C23.2464 16.2262 23.3038 16.0884 23.3038 15.9451L23.3029 13.9873Z" fill="#E5E5E5"/>
<path d="M19.0184 20.932C18.1788 18.4616 15.9602 16.7625 13.3991 16.5312C12.5415 17.4394 11.4797 18.0156 10.2772 18.0156C9.07564 18.0156 8.01301 17.4395 7.15621 16.5312C4.59359 16.7625 2.37492 18.4616 1.53531 20.9324L1.07121 22.2985C0.938457 22.6916 1.00203 23.1248 1.24397 23.462C1.48585 23.7994 1.87542 23.9997 2.29006 23.9997H18.2636C18.679 23.9997 19.0686 23.7994 19.3105 23.462C19.5516 23.1248 19.616 22.6916 19.4825 22.2985L19.0184 20.932Z" fill="#E5E5E5"/>
<path d="M6.11157 10.4579C6.11157 13.522 7.97685 16.81 10.2763 16.81C12.5767 16.81 14.4419 13.522 14.4419 10.4579C14.442 4.10627 6.11157 4.09368 6.11157 10.4579Z" fill="#E5E5E5"/>
</svg>
