<svg width="19" height="19" viewBox="0 0 19 19" fill="none" xmlns="http://www.w3.org/2000/svg">
<g clip-path="url(#clip0)">
<path d="M9.50078 0C4.25422 0 0.000976562 4.25337 0.000976562 9.49975C0.000976562 14.7461 4.25422 19 9.50072 19C14.7472 19 19.0008 14.7463 19.0008 9.49975C19.0008 4.25318 14.7473 0 9.50078 0ZM2.58062 13.0782C2.58062 10.1105 5.18693 10.1111 5.7653 9.33514L5.83148 8.9813C5.01891 8.56931 4.44529 7.57668 4.44529 6.41539C4.44529 4.88563 5.44039 3.6453 6.66761 3.6453C7.63396 3.6453 8.45394 4.41569 8.75997 5.48945C7.53066 5.8801 6.62132 7.21302 6.62132 8.7975C6.62132 9.88836 7.05135 10.8913 7.75733 11.5285C7.64397 11.5867 7.51787 11.6459 7.40944 11.6967C6.84013 11.9638 6.05099 12.3351 5.48169 13.0782H2.58062ZM9.52966 15.4601V15.46H9.47165H5.41379C5.41379 12.4924 8.0201 12.4932 8.59847 11.7173L8.66465 11.3634C7.85208 10.9514 7.27847 9.95879 7.27847 8.7975C7.27847 7.26774 8.27356 6.02741 9.50078 6.02741C10.728 6.02741 11.7231 7.26774 11.7231 8.7975C11.7231 9.94878 11.1597 10.9355 10.3579 11.3537L10.4333 11.756C11.0678 12.4944 13.5875 12.5425 13.5875 15.4601H9.52966ZM13.5196 13.0783V13.0782C12.9501 12.3352 12.161 11.964 11.5917 11.6969C11.4796 11.6444 11.3554 11.586 11.2444 11.529C11.9498 10.891 12.3803 9.88589 12.3803 8.7975C12.3803 7.21321 11.4713 5.88054 10.2423 5.48977C10.5481 4.41582 11.3681 3.64543 12.3347 3.64543C13.562 3.64543 14.557 4.88576 14.557 6.41552C14.557 7.5668 13.9936 8.55341 13.1918 8.97173L13.2672 9.37403C13.9017 10.1122 16.4213 10.1603 16.4213 13.0783H13.5196Z" fill="#FF8B02"/>
</g>
<defs>
<clipPath id="clip0">
<rect width="19" height="19" fill="white"/>
</clipPath>
</defs>
</svg>
