<svg width="512" height="512.002" xmlns="http://www.w3.org/2000/svg">

 <g>
  <title>background</title>
  <rect fill="none" id="canvas_background" height="402" width="582" y="-1" x="-1"/>
 </g>
 <g>
  <title>Layer 1</title>
  <g id="svg_1">
   <path id="svg_3" fill="#ffffff" class="active-path" d="m463.81641,249.23438c-2.69532,-4.48047 -7.58985,-7.23438 -12.83203,-7.23438c-26.42969,0 -50.67579,14.66797 -62.94532,38.07813l-46.01172,87.8125c-7.82031,14.88281 -23.08593,24.10937 -39.87109,24.10937l-101.86719,0c-8.28906,0 -15,-6.71094 -15,-15s6.71094,-15 15,-15l101.86328,0c5.59766,0 10.69532,-3.07422 13.30469,-8.04297c2.59766,-4.96094 10.44531,-19.9414 17.19141,-32.8164c2.125,-4.05469 1.97656,-8.92579 -0.39453,-12.84375c-2.375,-3.91407 -6.6211,-6.29688 -11.19922,-6.29688l-155.92188,0c-20.03906,0 -38.84765,7.80859 -53.02734,21.97266l-88.71094,88.71093c-5.85937,5.85938 -5.85937,15.35157 0,21.21094l75,74.71094c2.92969,2.92969 6.76953,4.39844 10.60547,4.39844s7.67578,-1.46875 10.60547,-4.39844l56.89453,-56.60547l125.65234,0c39.17188,0 74.82422,-21.5625 93.01954,-56.26562l69.08203,-131.76172c2.46093,-4.64453 2.28515,-10.23828 -0.4375,-14.73828zm0,0"/>
   <g stroke="null" id="svg_35">
    <g stroke="null" transform="matrix(0.47244010906651923,0,0,0.48611188039724124,-505.6708409428311,-875.3061217536388) " id="svg_8">
     <g stroke="null" id="svg_9">
      <g stroke="null" id="svg_10">
       <g stroke="null" id="svg_11">
        <path stroke="null" id="svg_12" fill="#ffffff" class="active-path" d="m1521.497814,1838.799947l-160,0l0,160l160,0l0,-160zm-32,128l-96,0l0,-96l96,0l0,96z"/>
        <rect stroke="null" id="svg_13" fill="#ffffff" class="active-path" height="32" width="32" y="1902.799947" x="1425.497814"/>
        <path stroke="null" id="svg_14" fill="#ffffff" class="active-path" d="m1713.497814,1838.799947l0,160l160,0l0,-160l-160,0zm128,128l-96,0l0,-96l96,0l0,96z"/>
        <rect stroke="null" id="svg_15" fill="#ffffff" class="active-path" height="32" width="32" y="1902.799947" x="1777.497814"/>
        <path stroke="null" id="svg_16" fill="#ffffff" class="active-path" d="m1361.497814,2350.799947l160,0l0,-160l-160,0l0,160zm32,-128l96,0l0,96l-96,0l0,-96z"/>
        <rect stroke="null" id="svg_17" fill="#ffffff" class="active-path" height="32" width="32" y="2254.799947" x="1425.497814"/>
        <rect stroke="null" y="1838.799947" id="svg_18" fill="#ffffff" class="active-path" height="32" width="64" x="1617.497814"/>
        <polygon stroke="null" id="svg_19" fill="#ffffff" class="active-path" points="1617.4977359771729,1966.799840927124 1649.4977359771729,1966.799840927124 1649.4977359771729,1934.799840927124 1681.4977359771729,1934.799840927124 1681.4977359771729,1902.799840927124 1585.4977359771729,1902.799840927124 1585.4977359771729,1870.799840927124 1553.4977359771729,1870.799840927124 1553.4977359771729,1902.799840927124 1553.4977359771729,1918.799840927124 1553.4977359771729,1934.799840927124 1617.4977359771729,1934.799840927124 "/>
        <rect stroke="null" id="svg_20" fill="#ffffff" class="active-path" height="32" width="32" y="1966.799947" x="1553.497814"/>
        <polygon stroke="null" id="svg_21" fill="#ffffff" class="active-path" points="1681.4977359771729,1998.799840927124 1649.4977359771729,1998.799840927124 1649.4977359771729,2030.800085067749 1553.4977359771729,2030.800085067749 1553.4977359771729,2062.8002071380615 1681.4977359771729,2062.8002071380615 "/>
        <polygon stroke="null" id="svg_22" fill="#ffffff" class="active-path" points="1393.4977359771729,2126.8002071380615 1425.4977359771729,2126.8002071380615 1425.4977359771729,2094.8002071380615 1393.4977359771729,2094.8002071380615 1393.4977359771729,2030.800085067749 1361.4977359771729,2030.800085067749 1361.4977359771729,2158.8002071380615 1393.4977359771729,2158.8002071380615 "/>
        <rect stroke="null" id="svg_23" fill="#ffffff" class="active-path" height="32" width="32" y="2030.799947" x="1425.497814"/>
        <polygon stroke="null" id="svg_24" fill="#ffffff" class="active-path" points="1553.4977359771729,2158.8002071380615 1617.4977359771729,2158.8002071380615 1617.4977359771729,2126.8002071380615 1585.4977359771729,2126.8002071380615 1585.4977359771729,2094.8002071380615 1521.4977359771729,2094.8002071380615 1521.4977359771729,2030.800085067749 1489.4977359771729,2030.800085067749 1489.4977359771729,2094.8002071380615 1457.4977359771729,2094.8002071380615 1457.4977359771729,2158.8002071380615 1489.4977359771729,2158.8002071380615 1489.4977359771729,2126.8002071380615 1505.4977359771729,2126.8002071380615 1521.4977359771729,2126.8002071380615 1553.4977359771729,2126.8002071380615 "/>
        <rect stroke="null" id="svg_25" fill="#ffffff" class="active-path" height="64" width="32" y="2094.799947" x="1649.497814"/>
        <polygon stroke="null" id="svg_26" fill="#ffffff" class="active-path" points="1649.4977359771729,2190.8002071380615 1553.4977359771729,2190.8002071380615 1553.4977359771729,2222.8002071380615 1617.4977359771729,2222.8002071380615 1617.4977359771729,2318.8002071380615 1553.4977359771729,2318.8002071380615 1553.4977359771729,2350.8002071380615 1649.4977359771729,2350.8002071380615 1649.4977359771729,2318.8002071380615 1713.4977359771729,2318.8002071380615 1713.4977359771729,2286.8002071380615 1649.4977359771729,2286.8002071380615 "/>
        <rect stroke="null" id="svg_27" fill="#ffffff" class="active-path" height="32" width="32" y="2254.799947" x="1553.497814"/>
        <rect stroke="null" id="svg_28" fill="#ffffff" class="active-path" height="64" width="32" y="2190.799947" x="1681.497814"/>
        <polygon stroke="null" id="svg_29" fill="#ffffff" class="active-path" points="1841.4977359771729,2254.8002071380615 1745.4977359771729,2254.8002071380615 1745.4977359771729,2350.8002071380615 1777.4977359771729,2350.8002071380615 1777.4977359771729,2286.8002071380615 1841.4977359771729,2286.8002071380615 "/>
        <rect stroke="null" id="svg_30" fill="#ffffff" class="active-path" height="32" width="64" y="2318.799947" x="1809.497814"/>
        <rect stroke="null" id="svg_31" fill="#ffffff" class="active-path" height="32" width="32" y="2190.799947" x="1841.497814"/>
        <polygon stroke="null" id="svg_32" fill="#ffffff" class="active-path" points="1745.4977359771729,2222.8002071380615 1777.4977359771729,2222.8002071380615 1777.4977359771729,2126.8002071380615 1713.4977359771729,2126.8002071380615 1713.4977359771729,2158.8002071380615 1745.4977359771729,2158.8002071380615 "/>
        <polygon stroke="null" id="svg_33" fill="#ffffff" class="active-path" points="1809.4977359771729,2062.8002071380615 1777.4977359771729,2062.8002071380615 1777.4977359771729,2030.800085067749 1745.4977359771729,2030.800085067749 1745.4977359771729,2062.8002071380615 1713.4977359771729,2062.8002071380615 1713.4977359771729,2094.8002071380615 1841.4977359771729,2094.8002071380615 1841.4977359771729,2062.8002071380615 1873.4977359771729,2062.8002071380615 1873.4977359771729,2030.800085067749 1809.4977359771729,2030.800085067749 "/>
        <rect stroke="null" id="svg_34" fill="#ffffff" class="active-path" height="32" width="64" y="2126.799947" x="1809.497814"/>
       </g>
      </g>
     </g>
    </g>
   </g>
  </g>
 </g>
</svg>