<svg width="29" height="29" viewBox="0 0 29 29" fill="none" xmlns="http://www.w3.org/2000/svg">
<g clip-path="url(#clip0)">
<path d="M26.6367 14.3186L26.6366 14.3185C26.5733 14.2136 26.4595 14.1494 26.3368 14.1494C24.001 14.1494 21.8641 15.3494 20.6468 17.3119L20.5004 17.5479H20.2227H10.1464C9.14415 17.5479 8.20423 17.9371 7.49558 18.646L7.49553 18.646L2.47078 23.6706L26.6367 14.3186ZM26.6367 14.3186C26.7002 14.4238 26.7041 14.5542 26.6469 14.6632C25.4351 16.9684 23.1559 21.3172 22.7837 22.0275L22.7319 22.1264L22.7317 22.1268C21.7888 23.9278 19.9405 25.0459 17.9062 25.0459H10.7887H10.5827L10.4366 25.1913L7.21423 28.3989L26.6367 14.3186ZM6.71749 28.3968L6.71997 28.3993C6.85651 28.5349 7.07729 28.5349 7.2141 28.399L6.71749 28.3968ZM6.71749 28.3968L6.7166 28.396C6.71407 28.3935 6.70601 28.3855 6.69109 28.3707L6.61562 28.2958L6.33687 28.0189C6.09865 27.7823 5.76155 27.4472 5.36065 27.0484C4.55883 26.2506 3.50195 25.1977 2.47065 24.1666M6.71749 28.3968L2.47065 24.1666M2.47065 24.1666C2.33397 24.0296 2.33403 23.8075 2.47066 23.6707L2.47065 24.1666ZM10.1907 24.4468L10.1908 24.4467C10.2562 24.3815 10.345 24.3447 10.438 24.3447H17.9062C19.6774 24.3447 21.2895 23.3699 22.1107 21.8014L21.6686 21.5699L22.1101 21.8025C22.1142 21.7947 22.1808 21.6676 22.2953 21.4492C22.787 20.511 24.1621 17.8872 25.2613 15.7933L25.8029 14.7615L24.6824 15.0815C23.1344 15.5236 21.8097 16.5779 21.034 18.0453L21.0332 18.0469L19.7219 20.5492C19.3664 21.2272 18.6715 21.6475 17.9062 21.6475H12.1372C11.9436 21.6475 11.7866 21.4906 11.7866 21.2969C11.7866 21.1032 11.9436 20.9463 12.1372 20.9463H17.9062C18.4087 20.9463 18.8673 20.669 19.1007 20.2238C19.1007 20.2238 19.1007 20.2238 19.1007 20.2238L19.7527 18.9797L20.1356 18.249H19.3107H10.1464C9.33328 18.249 8.56626 18.5666 7.99121 19.1417L3.56748 23.5654L3.21439 23.9185L3.56771 24.2714C4.77238 25.4745 5.93736 26.6335 6.61435 27.3063L6.96639 27.6562L7.31816 27.306L10.1907 24.4468Z" fill="#FF8B00" stroke="#FF9900" stroke-width="0.998048"/>
<path d="M12 -3H22V12H12V-3Z" fill="#FF9900" fill-opacity="0.07"/>
<path d="M15.125 1H12V4.125H15.125V1ZM14.5 3.5H12.625V1.625H14.5V3.5Z" fill="#FF8B00"/>
<path d="M13.875 2.25H13.25V2.875H13.875V2.25Z" fill="#FF8B00"/>
<path d="M18.875 1V4.125H22V1H18.875ZM21.375 3.5H19.5V1.625H21.375V3.5Z" fill="#FF8B00"/>
<path d="M20.75 2.25H20.125V2.875H20.75V2.25Z" fill="#FF8B00"/>
<path d="M12 11H15.125V7.875H12V11ZM12.625 8.5H14.5V10.375H12.625V8.5Z" fill="#FF8B00"/>
<path d="M13.875 9.125H13.25V9.75H13.875V9.125Z" fill="#FF8B00"/>
<path d="M18.25 1H17V1.625H18.25V1Z" fill="#FF8B00"/>
<path d="M17 3.5H17.625V2.875H18.25V2.25H16.375V1.625H15.75V2.25V2.5625V2.875H17V3.5Z" fill="#FF8B00"/>
<path d="M16.375 3.5H15.75V4.125H16.375V3.5Z" fill="#FF8B00"/>
<path d="M18.25 4.125H17.625V4.75H15.75V5.375H18.25V4.125Z" fill="#FF8B00"/>
<path d="M12.625 6.625H13.25V6H12.625V4.75H12V7.25H12.625V6.625Z" fill="#FF8B00"/>
<path d="M13.875 4.75H13.25V5.375H13.875V4.75Z" fill="#FF8B00"/>
<path d="M15.75 7.25H17V6.625H16.375V6H15.125V4.75H14.5V6H13.875V7.25H14.5V6.625H14.8125H15.125H15.75V7.25Z" fill="#FF8B00"/>
<path d="M18.25 6H17.625V7.25H18.25V6Z" fill="#FF8B00"/>
<path d="M17.625 7.875H15.75V8.5H17V10.375H15.75V11H17.625V10.375H18.875V9.75H17.625V7.875Z" fill="#FF8B00"/>
<path d="M16.375 9.125H15.75V9.75H16.375V9.125Z" fill="#FF8B00"/>
<path d="M18.875 7.875H18.25V9.125H18.875V7.875Z" fill="#FF8B00"/>
<path d="M21.375 9.125H19.5V11H20.125V9.75H21.375V9.125Z" fill="#FF8B00"/>
<path d="M22 10.375H20.75V11H22V10.375Z" fill="#FF8B00"/>
<path d="M22 7.875H21.375V8.5H22V7.875Z" fill="#FF8B00"/>
<path d="M19.5 8.5H20.125V6.625H18.875V7.25H19.5V8.5Z" fill="#FF8B00"/>
<path d="M20.75 5.375H20.125V4.75H19.5V5.375H18.875V6H21.375V5.375H22V4.75H20.75V5.375Z" fill="#FF8B00"/>
<path d="M22 6.625H20.75V7.25H22V6.625Z" fill="#FF8B00"/>
</g>
<defs>
<clipPath id="clip0">
<rect width="29" height="29" fill="white"/>
</clipPath>
</defs>
</svg>
