<svg width="12" height="12" viewBox="0 0 12 12" fill="none" xmlns="http://www.w3.org/2000/svg">
<g clip-path="url(#clip0)">
<path d="M1.36246 5.01548C1.74825 5.01548 2.09673 4.78384 2.24596 4.42798C2.8621 2.95999 4.3109 1.92542 5.99991 1.92542C6.93082 1.92542 7.78426 2.24449 8.46848 2.7737L7.93218 2.85672C7.74899 2.88512 7.60649 3.03045 7.58166 3.21414C7.55679 3.39772 7.65575 3.57584 7.82468 3.65175L10.7739 4.97856C10.9032 5.03661 11.053 5.02545 11.1721 4.94888C11.2911 4.87219 11.3633 4.74057 11.3641 4.59895L11.3794 1.34933C11.3804 1.16446 11.2599 1.00097 11.0833 0.947084C10.9063 0.893196 10.7151 0.961591 10.6128 1.11547L10.2063 1.7264C9.12245 0.659516 7.63737 0 5.99991 0C3.51709 0 1.38241 1.51621 0.471977 3.6712C0.345532 3.9699 0.377402 4.31193 0.55643 4.58216C0.735458 4.85248 1.03808 5.01548 1.36246 5.01548Z" fill="#333333"/>
<path d="M11.4432 7.4177C11.2641 7.14735 10.9615 6.98438 10.6371 6.98438C10.2513 6.98438 9.90283 7.21601 9.7536 7.57188C9.13743 9.03986 7.68863 10.0744 5.99965 10.0744C5.06872 10.0744 4.21527 9.75536 3.53103 9.22616L4.06735 9.14318C4.25052 9.11479 4.39302 8.96943 4.4179 8.78572C4.44275 8.60216 4.34381 8.42402 4.17488 8.34811L1.22565 7.02129C1.09635 6.96327 0.946606 6.97438 0.827426 7.05097C0.708493 7.12767 0.636207 7.25928 0.635443 7.40088L0.620124 10.6505C0.619089 10.8354 0.739575 10.9989 0.916263 11.0527C1.09322 11.1066 1.28442 11.0382 1.38678 10.8843L1.79328 10.2734C2.87705 11.3403 4.36216 11.9998 5.99962 11.9998C8.4825 11.9998 10.6171 10.4836 11.5275 8.32865C11.654 8.02995 11.6222 7.68795 11.4432 7.4177Z" fill="#333333"/>
</g>
<defs>
<clipPath id="clip0">
<rect width="12" height="12" fill="white"/>
</clipPath>
</defs>
</svg>
