<svg width="28" height="21" viewBox="0 0 28 21" fill="none" xmlns="http://www.w3.org/2000/svg">
<g clip-path="url(#clip0)">
<path fill-rule="evenodd" clip-rule="evenodd" d="M23.2322 10.3343C23.197 10.0391 22.8323 9.8173 22.5169 9.8173C21.4972 9.8173 20.5923 9.25229 20.2128 8.37848C19.8251 7.4835 20.0751 6.43974 20.8351 5.7819C21.0743 5.57554 21.1034 5.2301 20.9027 4.99014C20.3808 4.36473 19.7876 3.7998 19.1399 3.31019C18.8863 3.11813 18.5142 3.14485 18.2943 3.37465C17.631 4.06781 16.4397 4.32543 15.5191 3.96295C14.5611 3.58265 13.957 2.66657 14.0161 1.68322C14.0355 1.37434 13.7963 1.10578 13.47 1.06992C12.6388 0.9792 11.8004 0.976387 10.9667 1.06367C10.6441 1.09727 10.4049 1.35949 10.4158 1.66446C10.452 2.63813 9.84062 3.53819 8.89212 3.90481C7.98254 4.25542 6.79954 3.99998 6.13762 3.313C5.91886 3.08672 5.55279 3.0589 5.29793 3.24635C4.63104 3.7401 4.02452 4.3055 3.49781 4.92575C3.29238 5.16689 3.3226 5.51639 3.56422 5.72385C4.33867 6.38567 4.58873 7.43849 4.18639 8.34379C3.80227 9.20689 2.85254 9.76315 1.76526 9.76315C1.41244 9.75245 1.16114 9.97592 1.12255 10.2786C1.02468 11.0675 1.02352 11.8713 1.11775 12.6666C1.15269 12.963 1.52853 13.1829 1.8474 13.1829C2.81635 13.1595 3.74663 13.7256 4.13688 14.6218C4.52588 15.5168 4.27582 16.5599 3.5147 17.2183C3.27665 17.4247 3.24642 17.7696 3.44705 18.0095C3.96407 18.6309 4.55735 19.1964 5.20734 19.6901C5.46229 19.884 5.83324 19.8566 6.05424 19.6268C6.71997 18.9319 7.91124 18.6748 8.82819 19.038C9.78862 19.4171 10.3927 20.3331 10.3336 21.317C10.3143 21.626 10.5547 21.895 10.8797 21.9304C11.3049 21.9772 11.7326 22.0005 12.1616 22.0005C12.5687 22.0005 12.9759 21.9794 13.3831 21.9367C13.7057 21.9031 13.9448 21.6409 13.9339 21.3354C13.8966 20.3622 14.5091 19.4622 15.4563 19.0962C16.372 18.7432 17.5501 19.0015 18.2121 19.6878C18.4321 19.9136 18.7956 19.9409 19.0518 19.7541C19.7175 19.2615 20.3228 18.6966 20.852 18.0746C21.0573 17.834 21.0283 17.484 20.7855 17.2766C20.011 16.6148 19.7597 15.5618 20.1621 14.6571C20.5403 13.8055 21.4548 13.2337 22.4384 13.2337L22.576 13.2371C22.895 13.2615 23.1886 13.0296 23.2272 12.7223C23.3253 11.9327 23.3264 11.1296 23.2322 10.3343ZM12.1926 15.0249C10.1459 15.0249 8.48109 13.4539 8.48109 11.5225C8.48109 9.59117 10.1459 8.02007 12.1926 8.02007C14.2392 8.02007 15.904 9.59117 15.904 11.5225C15.904 13.4539 14.2392 15.0249 12.1926 15.0249Z" fill="#E5E5E5"/>
</g>
<defs>
<clipPath id="clip0">
<rect width="27.4757" height="21.0005" fill="white" transform="translate(0.000244141)"/>
</clipPath>
</defs>
</svg>
