<svg width="20" height="20" viewBox="0 0 20 20" fill="none" xmlns="http://www.w3.org/2000/svg">
<path d="M13.7887 0.446232C12.1312 0.380944 10.4524 0.978096 9.18677 2.23903C7.60724 3.81267 7.40133 5.696 8.12143 7.48359L1.45916 14.121C0.209901 15.3656 0.209901 17.3833 1.45916 18.6279C2.70843 19.8725 4.73368 19.8725 5.98294 18.6279L12.6452 11.9905C14.4395 12.7079 16.3299 12.5028 17.9094 10.9291C19.597 9.24788 20.0981 6.83607 19.4215 4.71658L15.7178 8.40645L12.5187 7.60965L11.7189 4.42245L15.4226 0.732581C14.8907 0.564057 14.3412 0.467993 13.7887 0.446231L13.7887 0.446232ZM3.72106 14.7808C4.60482 14.7808 5.32062 15.494 5.32062 16.3745C5.32062 17.2549 4.60482 17.968 3.72106 17.968C2.83729 17.968 2.12149 17.2549 2.12149 16.3745C2.12149 15.494 2.83729 14.7808 3.72106 14.7808Z" fill="#E5E5E5"/>
</svg>
