<svg width="17" height="17" viewBox="0 0 17 17" fill="none" xmlns="http://www.w3.org/2000/svg">
<path d="M8.50021 0.31543C3.97996 0.31543 0.315674 3.97972 0.315674 8.49997C0.315674 11.0794 1.51015 13.3787 3.37474 14.8789L0.315674 16.6847H8.50021C13.0205 16.6847 16.685 13.0204 16.685 8.49997C16.685 3.97972 13.02 0.31543 8.50021 0.31543ZM7.94245 4.84513C7.94245 4.53706 8.19214 4.28737 8.50021 4.28737C8.80828 4.28737 9.05797 4.53706 9.05797 4.84513V7.77778C9.05797 8.08585 8.80828 8.33554 8.50021 8.33554C8.19214 8.33554 7.94245 8.08585 7.94245 7.77778V4.84513ZM8.50021 12.7128C6.39769 12.7128 4.68745 11.0023 4.68745 8.90002C4.68745 7.56295 5.40166 6.30694 6.55162 5.62234C6.81643 5.46442 7.15873 5.55115 7.31644 5.81617C7.47415 6.08098 7.38721 6.42328 7.12261 6.58099C6.30886 7.06567 5.80318 7.95439 5.80318 8.90023C5.80318 10.3874 7.0132 11.5975 8.50042 11.5975C9.98764 11.5975 11.1977 10.3874 11.1977 8.90023C11.1977 7.95397 10.692 7.06525 9.87781 6.58057C9.613 6.42286 9.52606 6.08056 9.68377 5.81575C9.84107 5.55115 10.1836 5.46421 10.4484 5.62171C11.599 6.30652 12.3134 7.56253 12.3134 8.90002C12.313 11.0023 10.6027 12.7128 8.50021 12.7128Z" fill="#FF9900"/>
</svg>
