<svg width="20" height="16" viewBox="0 0 20 16" fill="none" xmlns="http://www.w3.org/2000/svg">
<g clip-path="url(#clip0)">
<path fill-rule="evenodd" clip-rule="evenodd" d="M17.0415 3.5722H3.00724C3.00724 3.5722 1.94403 3.40412 1.94403 2.89987L17.2541 1.72328V0.714782C17.2541 0.714782 17.0655 -0.205645 15.3404 0.0424469L1.73139 1.89137C1.73139 1.89137 0.0302734 2.05945 0.0302734 3.74029V13.3211C0.0302734 14.2492 0.982263 15.0019 2.15667 15.0019H17.0415C18.2159 15.0019 19.1679 14.2492 19.1679 13.3211V5.25304C19.1679 4.32488 18.2159 3.5722 17.0415 3.5722ZM15.7656 10.4636C14.9436 10.4636 14.2772 9.93686 14.2772 9.28705C14.2772 8.63724 14.9436 8.11046 15.7656 8.11046C16.5877 8.11046 17.2541 8.63724 17.2541 9.28705C17.2541 9.93686 16.5877 10.4636 15.7656 10.4636Z" fill="#F5F5F5"/>
</g>
<defs>
<clipPath id="clip0">
<rect width="19.1376" height="15.0019" fill="white" transform="translate(0.0302734)"/>
</clipPath>
</defs>
</svg>
