<svg width="42" height="21" viewBox="0 0 42 21" fill="none" xmlns="http://www.w3.org/2000/svg">
<g clip-path="url(#clip0)">
<path fill-rule="evenodd" clip-rule="evenodd" d="M6.4203 6.19274C6.54527 6.19274 6.6702 6.21482 6.78562 6.25728C6.90109 6.29974 7.00697 6.36258 7.09537 6.44103C7.18373 6.51948 7.25447 6.61349 7.3023 6.71599C7.35013 6.81849 7.375 6.92938 7.375 7.04033V8.01505H15.3372C15.4583 8.01505 15.5794 8.03573 15.6919 8.07568C15.8043 8.1156 15.9081 8.17477 15.9958 8.24893L20.5716 12.1194L28.0378 12.2404C28.0384 12.2404 28.0389 12.2404 28.0395 12.2404C29.4282 12.265 30.4359 13.2794 30.6701 14.4948L38.5758 12.3412C38.5758 12.3412 38.5762 12.3411 38.5762 12.3411C40.0302 11.9447 41.5347 12.7569 41.9173 14.0307C42.1097 14.6713 41.9512 15.3308 41.6002 15.8226C41.2493 16.3143 40.7401 16.6679 40.1797 16.9125C40.1786 16.9125 40.1774 16.9125 40.1763 16.9125L33.7523 19.6879C31.7347 20.6176 27.8427 23.0497 23.3806 23.0497C19.2421 23.0497 17.8335 22.2815 14.3621 21.1038C14.3621 21.1038 14.3616 21.1038 14.3616 21.1037C10.4243 19.7701 9.11599 19.2327 7.26765 18.9427L7.22693 20.6268C7.22426 20.7362 7.19748 20.8451 7.14845 20.9455C7.09948 21.046 7.0283 21.1378 6.94018 21.2144C6.85211 21.291 6.74714 21.3521 6.63301 21.3935C6.51888 21.4346 6.39562 21.4563 6.27237 21.4563H0.954699C0.829729 21.4563 0.704806 21.4342 0.589383 21.3917C0.473912 21.3493 0.368037 21.2864 0.279631 21.208C0.191274 21.1295 0.120531 21.0355 0.0727003 20.933C0.0248699 20.8305 0 20.7196 0 20.6087V7.03875C0 6.92781 0.0248699 6.81691 0.0727003 6.71441C0.120531 6.61191 0.191274 6.5179 0.279631 6.43945C0.368037 6.361 0.473912 6.29816 0.589383 6.2557C0.704806 6.21324 0.829729 6.19117 0.954699 6.19116H6.42035L6.4203 6.19274ZM5.4656 7.88792H1.90935V19.7626H5.33791L5.46589 14.4641C5.46685 14.3521 5.4931 14.2404 5.5426 14.1374C5.59215 14.0345 5.66495 13.9404 5.75535 13.8624C5.84581 13.7844 5.95384 13.7226 6.07117 13.6816C6.1885 13.6405 6.31505 13.6206 6.44112 13.6229C6.56714 13.6272 6.69263 13.65 6.80786 13.6956C6.92309 13.741 7.02806 13.8069 7.11466 13.8883C7.20125 13.9696 7.26941 14.0664 7.31395 14.1711C7.35849 14.2758 7.3793 14.3884 7.37486 14.5003L7.30889 17.2322C9.50393 17.5441 10.9566 18.1376 15.0427 19.5216C15.0427 19.5216 15.0432 19.5217 15.0432 19.5217C18.6172 20.7342 19.4902 21.3561 23.3806 21.3561C27.045 21.3561 30.6035 19.228 32.8849 18.1792C32.8919 18.175 32.899 18.1729 32.9061 18.1699L39.3372 15.3914C39.3377 15.3913 39.3378 15.3911 39.3382 15.3914H39.3408C39.6425 15.259 39.8744 15.0751 39.9872 14.917C40.1006 14.7583 40.1281 14.6549 40.0723 14.4691C39.9585 14.0903 39.5156 13.8599 39.1367 13.9633C39.1367 13.9633 39.1362 13.9633 39.1362 13.9634L30.4123 16.3398C29.9802 17.1991 29.1236 17.8318 28.0202 17.8318H18.8885C18.7624 17.8318 18.636 17.8127 18.519 17.7708C18.402 17.7288 18.2945 17.6664 18.2047 17.5878C18.1149 17.5092 18.0429 17.4147 17.9942 17.3114C17.9455 17.2081 17.9202 17.0962 17.9202 16.9842C17.9202 16.8722 17.9455 16.7603 17.9942 16.6571C18.0429 16.5538 18.1149 16.4592 18.2047 16.3806C18.2945 16.302 18.402 16.2395 18.519 16.1977C18.636 16.1561 18.7624 16.1351 18.8885 16.1366H28.0202C28.3242 16.1366 28.8126 15.737 28.8126 15.039C28.8126 14.3353 28.3287 13.9428 28.0013 13.937L20.1647 13.8099C20.0465 13.8099 19.9288 13.7861 19.8195 13.7464C19.7101 13.7066 19.6093 13.6484 19.5237 13.576L14.9553 9.71191H7.37486V11.246C7.37663 11.358 7.35314 11.4702 7.30612 11.5741C7.2591 11.678 7.1886 11.7734 7.10005 11.8532C7.0115 11.9329 6.905 11.9968 6.78867 12.04C6.67234 12.0832 6.54628 12.1057 6.42016 12.1057C6.29404 12.1057 6.16798 12.0832 6.05165 12.04C5.93532 11.9968 5.82882 11.9329 5.74027 11.8532C5.65172 11.7734 5.58122 11.678 5.5342 11.5741C5.48718 11.4702 5.46369 11.358 5.46546 11.246V7.88957L5.4656 7.88792Z" fill="white"/>
<path fill-rule="evenodd" clip-rule="evenodd" d="M34.2304 0C36.2833 0 37.968 1.49426 37.968 3.31408C37.968 5.13671 36.2833 6.63239 34.2304 6.63239C32.717 6.63239 31.4047 5.81914 30.8189 4.66174H29.2325H27.0643H27.0558H24.8791H22.7109H22.7024H20.5304H18.3537C18.1682 4.6617 17.983 4.61231 17.8281 4.52157C17.6732 4.43083 17.5492 4.29908 17.4762 4.14762C17.4032 3.99616 17.3814 3.82558 17.4144 3.66345C17.4474 3.50133 17.535 3.34828 17.663 3.22905L18.7499 2.2175L18.7514 2.21623L19.8383 1.20046C19.9272 1.11741 20.0352 1.05059 20.1538 1.0054C20.2724 0.960206 20.4014 0.936673 20.5304 0.936673C20.6595 0.936673 20.7885 0.960189 20.9071 1.0054C21.0256 1.05059 21.1337 1.11741 21.2226 1.20046L22.3109 2.21755L22.7038 2.5848L23.0984 2.21755L23.0999 2.21628L24.1868 1.20051C24.2757 1.11746 24.3837 1.05064 24.5023 1.00545C24.6209 0.960258 24.7499 0.936725 24.8789 0.936725C25.008 0.936725 25.137 0.960241 25.2556 1.00545C25.3741 1.05064 25.4822 1.11746 25.5711 1.20051L26.6581 2.21628L26.6595 2.21755L27.0557 2.58625L27.4519 2.21755L27.4533 2.21628L28.5402 1.20051C28.6291 1.11746 28.7372 1.05064 28.8557 1.00545C28.9743 0.960258 29.1033 0.936725 29.2324 0.936725C29.3614 0.936725 29.4904 0.960241 29.609 1.00545C29.7276 1.05064 29.8356 1.11746 29.9245 1.20051L30.7952 2.01432C31.3691 0.833965 32.6967 0.000103465 34.2302 0.000103465L34.2304 0ZM34.2304 1.69518C33.2092 1.69518 32.4021 2.41314 32.4021 3.31408C32.4021 4.22068 33.2092 4.93722 34.2304 4.93722C35.2515 4.93722 36.0586 4.22068 36.0586 3.31408C36.0586 2.41314 35.2515 1.69518 34.2304 1.69518Z" fill="white"/>
</g>
<defs>
<clipPath id="clip0">
<rect width="42" height="20.243" fill="white"/>
</clipPath>
</defs>
</svg>
