<svg width="40" height="41" viewBox="0 0 40 41" fill="none" xmlns="http://www.w3.org/2000/svg">
<g clip-path="url(#clip0)">
<mask id="path-1-inside-1" fill="white">
<path d="M13.9717 5.64038L7.55414 11.5572L5.2144 9.40002L4.5459 10.078L7.55414 12.8515L14.6402 6.31835L13.9717 5.64038Z"/>
</mask>
<path d="M13.9717 5.64038L7.55414 11.5572L5.2144 9.40002L4.5459 10.078L7.55414 12.8515L14.6402 6.31835L13.9717 5.64038Z" fill="white"/>
<path d="M13.9717 5.64038L14.6838 4.93826L14.0048 4.2497L13.2939 4.90517L13.9717 5.64038ZM7.55414 11.5572L6.8763 12.2924L7.55414 12.9173L8.23198 12.2924L7.55414 11.5572ZM5.2144 9.40002L5.89224 8.66481L5.18129 8.00933L4.50234 8.6979L5.2144 9.40002ZM4.5459 10.078L3.83384 9.37587L3.10776 10.1122L3.86806 10.8132L4.5459 10.078ZM7.55414 12.8515L6.8763 13.5867L7.55414 14.2116L8.23198 13.5867L7.55414 12.8515ZM14.6402 6.31835L15.3181 7.05356L16.0784 6.35259L15.3523 5.61623L14.6402 6.31835ZM13.2939 4.90517L6.8763 10.822L8.23198 12.2924L14.6496 6.37559L13.2939 4.90517ZM8.23198 10.822L5.89224 8.66481L4.53656 10.1352L6.8763 12.2924L8.23198 10.822ZM4.50234 8.6979L3.83384 9.37587L5.25796 10.7801L5.92646 10.1021L4.50234 8.6979ZM3.86806 10.8132L6.8763 13.5867L8.23198 12.1163L5.22374 9.34277L3.86806 10.8132ZM8.23198 13.5867L15.3181 7.05356L13.9624 5.58314L6.8763 12.1163L8.23198 13.5867ZM15.3523 5.61623L14.6838 4.93826L13.2597 6.3425L13.9282 7.02046L15.3523 5.61623Z" fill="white" mask="url(#path-1-inside-1)"/>
<path d="M0.502748 9.09188C0.502748 9.55374 0.542905 10.0066 0.620072 10.4477C0.541031 10.0055 0.5 9.55244 0.5 9.09188C0.5 8.73667 0.524405 8.38596 0.571831 8.0412C0.526226 8.38527 0.502748 8.73591 0.502748 9.09188Z" fill="white" stroke="white"/>
<path d="M39.4766 12.918C39.5666 11.8544 39.3377 10.7881 38.8203 9.84151C39.3502 10.7947 39.5764 11.8675 39.4766 12.918ZM33.7194 18.2067C34.0538 18.1849 34.3821 18.1379 34.702 18.0672L34.6102 18.2067H33.8935H33.8924H33.8912H33.89H33.8888H33.8877H33.8865H33.8853H33.8842H33.883H33.8819H33.8807H33.8795H33.8784H33.8772H33.8761H33.8749H33.8738H33.8726H33.8715H33.8703H33.8692H33.868H33.8669H33.8658H33.8646H33.8635H33.8623H33.8612H33.8601H33.8589H33.8578H33.8567H33.8555H33.8544H33.8533H33.8522H33.851H33.8499H33.8488H33.8477H33.8466H33.8455H33.8443H33.8432H33.8421H33.841H33.8399H33.8388H33.8377H33.8366H33.8355H33.8344H33.8333H33.8321H33.831H33.8299H33.8288H33.8278H33.8267H33.8256H33.8245H33.8234H33.8223H33.8212H33.8201H33.819H33.8179H33.8168H33.8158H33.8147H33.8136H33.8125H33.8114H33.8104H33.8093H33.8082H33.8071H33.8061H33.805H33.8039H33.8028H33.8018H33.8007H33.7996H33.7986H33.7975H33.7964H33.7954H33.7943H33.7932H33.7922H33.7911H33.7901H33.789H33.7879H33.7869H33.7858H33.7848H33.7837H33.7827H33.7816H33.7806H33.7795H33.7785H33.7774H33.7764H33.7753H33.7743H33.7732H33.7722H33.7712H33.7701H33.7691H33.768H33.767H33.766H33.7649H33.7639H33.7628H33.7618H33.7608H33.7597H33.7587H33.7577H33.7567H33.7556H33.7546H33.7536H33.7525H33.7515H33.7505H33.7495H33.7484H33.7474H33.7464H33.7454H33.7443H33.7433H33.7423H33.7413H33.7403H33.7392H33.7382H33.7372H33.7362H33.7352H33.7342H33.7331H33.7321H33.7311H33.7301H33.7291H33.7281H33.7271H33.7261H33.725H33.724H33.723H33.722H33.721H33.72H33.7194ZM27.6413 29.2259C27.6153 28.5779 27.7237 27.844 27.9579 27.0612C27.6628 28.1079 27.5676 29.1258 27.797 29.9368L27.8469 30.113L27.9988 30.2153C29.7304 31.382 31.4548 32.6053 33.043 33.8864C33.4131 34.1906 33.5743 34.7048 33.4421 35.1909C33.4655 35.0248 33.463 34.8559 33.4315 34.6962C33.3839 34.4551 33.252 34.1656 32.966 34.0032C31.2704 32.6352 29.5052 31.3468 27.678 30.1394L27.6413 29.2259ZM31.0858 39.1689C31.0858 39.3013 31.0858 39.3986 31.0859 39.4702C31.0859 39.4702 31.0858 39.4702 31.0858 39.4702V39.1689ZM10.0093 27.8869L10.0284 27.8976L9.83238 28.3796L9.68028 28.7536L9.89393 28.1908L10.0093 27.8869ZM8.05906 26.5137C8.06017 26.528 8.06204 26.545 8.06521 26.5639C8.06185 26.555 8.05871 26.546 8.0558 26.5368C8.05634 26.5232 8.05708 26.51 8.05803 26.4972C8.05827 26.5024 8.05861 26.5079 8.05906 26.5137ZM8.55744 26.4725C8.14487 26.4725 8.07272 26.4726 8.06011 26.4729C8.06012 26.4727 8.06013 26.4726 8.06015 26.4725H8.55744ZM11.0708 22.9218C11.0052 22.9903 10.9399 23.0589 10.8749 23.1274L11.0027 22.9843L11.0027 22.9843L11.0074 22.9789C11.12 22.8491 11.261 22.7439 11.4185 22.6648C11.299 22.7307 11.1903 22.8102 11.0931 22.8999L11.0816 22.9105L11.0708 22.9218ZM18.7756 25.1198C18.7482 25.1067 18.7209 25.0937 18.6935 25.0807L18.8309 25.0491C18.9338 25.0253 19.0375 24.9972 19.1419 24.9649L18.7756 25.1198ZM24.1834 20.651C23.506 21.6493 22.7304 22.5384 21.9335 23.2504C22.7294 22.5308 23.489 21.6424 24.1473 20.6498C24.4223 20.2469 24.6721 19.8351 24.8943 19.4209C24.6817 19.8291 24.4441 20.2406 24.1834 20.651ZM26.1088 15.705C26.0686 16.1675 25.9692 16.6652 25.8156 17.1861C25.9798 16.6091 26.0781 16.0515 26.1033 15.5324L27.2222 13.8703L27.2949 13.7623C27.3208 13.862 27.3495 13.9611 27.381 14.0595L27.2994 13.8808L26.7984 14.5994L26.1968 15.4623L26.1203 15.5719L26.1088 15.705Z" fill="white" stroke="white"/>
<mask id="path-5-inside-2" fill="white">
<path d="M32.2215 8.16724C30.8845 8.47533 29.748 9.21474 29.0127 10.3239L29.8817 10.8168C30.4834 9.95415 31.3524 9.33798 32.4889 9.09151C33.5585 8.84504 34.6949 9.02989 35.6308 9.52283L36.1656 8.7218C34.9623 8.04401 33.5585 7.85916 32.2215 8.16724Z"/>
</mask>
<path d="M32.2215 8.16724C30.8845 8.47533 29.748 9.21474 29.0127 10.3239L29.8817 10.8168C30.4834 9.95415 31.3524 9.33798 32.4889 9.09151C33.5585 8.84504 34.6949 9.02989 35.6308 9.52283L36.1656 8.7218C34.9623 8.04401 33.5585 7.85916 32.2215 8.16724Z" fill="white"/>
<path d="M29.0127 10.3239L28.1792 9.77127L27.5869 10.6648L28.5193 11.1937L29.0127 10.3239ZM29.8817 10.8168L29.3884 11.6866L30.1808 12.1361L30.702 11.3889L29.8817 10.8168ZM32.4889 9.09151L32.7009 10.0689L32.7134 10.066L32.4889 9.09151ZM35.6308 9.52283L35.1648 10.4076L35.9621 10.8276L36.4625 10.0781L35.6308 9.52283ZM36.1656 8.7218L36.9973 9.27706L37.5963 8.37992L36.6564 7.85052L36.1656 8.7218ZM31.9969 7.19278C30.4362 7.55242 29.07 8.42768 28.1792 9.77127L29.8462 10.8764C30.426 10.0018 31.3327 9.39825 32.446 9.14171L31.9969 7.19278ZM28.5193 11.1937L29.3884 11.6866L30.3751 9.94698L29.5061 9.45404L28.5193 11.1937ZM30.702 11.3889C31.1634 10.7272 31.8181 10.2602 32.7008 10.0688L32.2769 8.11423C30.8868 8.41572 29.8033 9.18113 29.0615 10.2447L30.702 11.3889ZM32.7134 10.066C33.5306 9.87766 34.4231 10.017 35.1648 10.4076L36.0968 8.63805C34.9667 8.04282 33.5863 7.81242 32.2643 8.11704L32.7134 10.066ZM36.4625 10.0781L36.9973 9.27706L35.334 8.16654L34.7992 8.96757L36.4625 10.0781ZM36.6564 7.85052C35.2286 7.04627 33.5687 6.8306 31.9969 7.19278L32.446 9.14171C33.5483 8.88771 34.696 9.04174 35.6748 9.59309L36.6564 7.85052Z" fill="white" mask="url(#path-5-inside-2)"/>
</g>
<defs>
<clipPath id="clip0">
<rect width="40" height="40" fill="white" transform="translate(0 0.216675)"/>
</clipPath>
</defs>
</svg>
