<svg width="45" height="45" viewBox="0 0 45 45" fill="none" xmlns="http://www.w3.org/2000/svg">
<circle cx="22.5" cy="22.5" r="22.5" fill="#FF9900" fill-opacity="0.86"/>
<g clip-path="url(#clip0)">
<path fill-rule="evenodd" clip-rule="evenodd" d="M15.6687 20.9909C15.7402 20.9909 15.8115 21.0066 15.8775 21.0368C15.9435 21.0671 16.004 21.1119 16.0545 21.1677C16.105 21.2236 16.1454 21.2906 16.1727 21.3636C16.2001 21.4366 16.2143 21.5156 16.2143 21.5946V22.289H20.7641C20.8333 22.289 20.9025 22.3037 20.9668 22.3321C21.031 22.3606 21.0903 22.4027 21.1405 22.4556L23.7552 25.2126L28.0216 25.2988C28.0219 25.2988 28.0222 25.2988 28.0226 25.2988C28.8161 25.3163 29.3919 26.0389 29.5258 26.9047L34.0433 25.3706C34.0433 25.3706 34.0436 25.3706 34.0436 25.3705C34.8744 25.0882 35.7341 25.6667 35.9527 26.5741C36.0627 27.0304 35.9721 27.5002 35.7716 27.8505C35.571 28.2008 35.2801 28.4526 34.9598 28.6269C34.9592 28.6269 34.9585 28.6269 34.9579 28.6269L31.287 30.6039C30.1341 31.2662 27.9101 32.9986 25.3603 32.9986C22.9955 32.9986 22.1906 32.4514 20.2069 31.6125C20.2069 31.6125 20.2066 31.6124 20.2066 31.6124C17.9567 30.6624 17.2091 30.2797 16.1529 30.0731L16.1297 31.2727C16.1281 31.3507 16.1128 31.4282 16.0848 31.4997C16.0568 31.5713 16.0162 31.6367 15.9658 31.6912C15.9155 31.7458 15.8555 31.7894 15.7903 31.8188C15.7251 31.8481 15.6546 31.8636 15.5842 31.8636H12.5455C12.4741 31.8636 12.4027 31.8479 12.3368 31.8176C12.2708 31.7873 12.2103 31.7425 12.1598 31.6867C12.1093 31.6308 12.0689 31.5638 12.0415 31.4908C12.0142 31.4178 12 31.3388 12 31.2598V21.5935C12 21.5145 12.0142 21.4355 12.0415 21.3625C12.0689 21.2895 12.1093 21.2225 12.1598 21.1666C12.2103 21.1107 12.2708 21.066 12.3368 21.0357C12.4027 21.0055 12.4741 20.9898 12.5455 20.9897H15.6688L15.6687 20.9909ZM15.1232 22.1984H13.0911V30.6571H15.0502L15.1234 26.8828C15.1239 26.803 15.1389 26.7234 15.1672 26.6501C15.1955 26.5768 15.2371 26.5098 15.2888 26.4542C15.3405 26.3986 15.4022 26.3546 15.4692 26.3254C15.5363 26.2961 15.6086 26.2819 15.6806 26.2836C15.7526 26.2866 15.8244 26.3029 15.8902 26.3354C15.9561 26.3677 16.016 26.4147 16.0655 26.4726C16.115 26.5306 16.154 26.5995 16.1794 26.6741C16.2048 26.7487 16.2167 26.8289 16.2142 26.9086L16.1765 28.8546C17.4308 29.0768 18.2609 29.4996 20.5958 30.4854C20.5958 30.4855 20.5961 30.4855 20.5961 30.4855C22.6384 31.3492 23.1372 31.7922 25.3603 31.7922C27.4543 31.7922 29.4877 30.2763 30.7914 29.5292C30.7954 29.5262 30.7994 29.5247 30.8035 29.5226L34.4784 27.5434C34.4787 27.5433 34.4788 27.5431 34.479 27.5434H34.4804C34.6529 27.449 34.7854 27.3181 34.8498 27.2054C34.9146 27.0924 34.9303 27.0187 34.8985 26.8864C34.8334 26.6165 34.5803 26.4524 34.3638 26.526C34.3638 26.5261 34.3636 26.5261 34.3636 26.5261L29.3785 28.2189C29.1315 28.8311 28.6421 29.2817 28.0116 29.2817H22.7934C22.7214 29.2817 22.6491 29.2682 22.5823 29.2383C22.5154 29.2084 22.454 29.1639 22.4027 29.1079C22.3514 29.0519 22.3102 28.9846 22.2824 28.911C22.2546 28.8375 22.2401 28.7577 22.2401 28.678C22.2401 28.5982 22.2546 28.5185 22.2824 28.4449C22.3102 28.3714 22.3514 28.304 22.4027 28.248C22.454 28.192 22.5154 28.1475 22.5823 28.1177C22.6491 28.0881 22.7214 28.0731 22.7934 28.0742H28.0116C28.1853 28.0742 28.4644 27.7895 28.4644 27.2923C28.4644 26.7911 28.1879 26.5114 28.0007 26.5073L23.5227 26.4168C23.4551 26.4168 23.3879 26.3999 23.3254 26.3716C23.2629 26.3432 23.2053 26.3017 23.1564 26.2502L20.5459 23.4977H16.2142V24.5905C16.2152 24.6702 16.2018 24.7502 16.1749 24.8242C16.1481 24.8982 16.1078 24.9662 16.0572 25.023C16.0066 25.0797 15.9457 25.1253 15.8792 25.1561C15.8128 25.1869 15.7407 25.2029 15.6687 25.2029C15.5966 25.2029 15.5246 25.1869 15.4581 25.1561C15.3916 25.1253 15.3308 25.0797 15.2802 25.023C15.2296 24.9662 15.1893 24.8982 15.1624 24.8242C15.1355 24.7502 15.1221 24.6702 15.1231 24.5905V22.1996L15.1232 22.1984Z" fill="white"/>
<path fill-rule="evenodd" clip-rule="evenodd" d="M31.5601 16.5796C32.7332 16.5796 33.6959 17.644 33.6959 18.9403C33.6959 20.2386 32.7332 21.304 31.5601 21.304C30.6953 21.304 29.9454 20.7247 29.6107 19.9003H28.7042H27.4652H27.4603H26.2165H24.9775H24.9726H23.7315H22.4877C22.3817 19.9003 22.2758 19.8651 22.1873 19.8004C22.0988 19.7358 22.028 19.642 21.9863 19.5341C21.9446 19.4262 21.9321 19.3047 21.9509 19.1892C21.9698 19.0737 22.0198 18.9647 22.093 18.8797L22.7141 18.1592L22.7149 18.1583L23.336 17.4347C23.3868 17.3756 23.4486 17.328 23.5163 17.2958C23.5841 17.2636 23.6578 17.2468 23.7315 17.2468C23.8053 17.2468 23.879 17.2636 23.9467 17.2958C24.0145 17.328 24.0763 17.3756 24.1271 17.4347L24.749 18.1592L24.9735 18.4208L25.199 18.1592L25.1998 18.1583L25.8209 17.4347C25.8717 17.3756 25.9334 17.328 26.0012 17.2958C26.0689 17.2636 26.1427 17.2468 26.2164 17.2468C26.2901 17.2468 26.3639 17.2636 26.4316 17.2958C26.4994 17.328 26.5611 17.3756 26.6119 17.4347L27.2331 18.1583L27.2338 18.1592L27.4602 18.4219L27.6866 18.1592L27.6875 18.1583L28.3086 17.4347C28.3593 17.3756 28.4211 17.328 28.4889 17.2958C28.5566 17.2636 28.6303 17.2468 28.7041 17.2468C28.7778 17.2468 28.8515 17.2636 28.9193 17.2958C28.987 17.328 29.0488 17.3756 29.0996 17.4347L29.5971 18.0144C29.9251 17.1736 30.6837 16.5797 31.56 16.5797L31.5601 16.5796ZM31.5601 17.7871C30.9765 17.7871 30.5154 18.2985 30.5154 18.9403C30.5154 19.5861 30.9765 20.0965 31.5601 20.0965C32.1436 20.0965 32.6048 19.5861 32.6048 18.9403C32.6048 18.2985 32.1436 17.7871 31.5601 17.7871Z" fill="white"/>
</g>
<defs>
<clipPath id="clip0">
<rect width="24" height="14.4197" fill="white" transform="translate(12 16.5796)"/>
</clipPath>
</defs>
</svg>
