<svg width="48" height="48" viewBox="0 0 48 48" fill="none" xmlns="http://www.w3.org/2000/svg">
<g clip-path="url(#clip0)">
<path d="M10.4451 12.8712L10.934 12.795C10.8959 12.5511 10.8777 12.293 10.8583 12.0174C10.8541 11.9571 10.8498 11.896 10.8452 11.834C10.8212 11.5095 10.7888 11.1469 10.6979 10.8392L10.6441 10.6573L10.5865 10.6213C10.5845 10.6101 10.5824 10.5974 10.5804 10.583C10.5741 10.5391 10.5684 10.4841 10.5641 10.4162L10.5608 10.3568C10.5557 10.267 10.5527 10.1667 10.5527 10.0456C10.5527 6.50297 13.9152 3.50879 18.2263 3.50879C22.4824 3.50879 25.8112 6.42989 25.8929 9.91332L25.8933 9.93288L25.8953 9.95235C25.9043 10.0405 25.9051 10.1242 25.8968 10.207L25.8954 10.2211L25.8948 10.2352C25.8868 10.4191 25.8688 10.5524 25.8463 10.6462C25.8353 10.6923 25.8242 10.7246 25.8151 10.7461C25.8066 10.7662 25.801 10.774 25.8009 10.7741L25.7539 10.8368L25.7282 10.9109C25.712 10.9578 25.6936 11.0094 25.6749 11.0617C25.6433 11.1502 25.6111 11.2405 25.588 11.3122C25.568 11.3743 25.5475 11.4439 25.5335 11.5133C25.521 11.5755 25.505 11.6771 25.521 11.7891L25.521 11.7895C25.5523 12.0076 25.5312 12.3473 25.4347 12.6976L25.3095 13.1522L25.756 13.3038C25.7928 13.3163 25.8139 13.3274 25.8251 13.3346C25.8304 13.338 25.8331 13.3404 25.8341 13.3413L25.835 13.3421C25.8565 13.3726 25.8978 13.4933 25.9025 13.7838C25.9046 13.9135 25.8998 14.0516 25.8938 14.1984C25.8931 14.2146 25.8924 14.2311 25.8917 14.2477C25.8864 14.3751 25.8807 14.5111 25.8807 14.636C25.8807 15.0531 25.7541 15.412 25.5721 15.6571C25.39 15.9022 25.1745 16.0106 24.9773 16.0145L24.599 16.0219L24.5034 16.388C23.5613 19.9937 21.0439 22.4256 18.2279 22.4256C15.4128 22.4256 12.8953 19.9945 11.9533 16.388L11.8576 16.0215L11.4789 16.0145C11.2824 16.0108 11.067 15.9028 10.8849 15.6577C10.7027 15.4125 10.5759 15.0534 10.5759 14.636C10.5759 14.5112 10.5702 14.3751 10.5649 14.2477C10.5642 14.2312 10.5635 14.2148 10.5628 14.1985C10.5567 14.0518 10.5519 13.9137 10.554 13.7841C10.5586 13.4986 10.5988 13.3776 10.6205 13.345C10.6234 13.3421 10.6337 13.3331 10.6602 13.3201L10.9399 13.1828V12.872V12.872V12.872V12.872V12.872V12.8719V12.8719V12.8719V12.8719V12.8719V12.8719V12.8719V12.8719V12.8719V12.8719V12.8719V12.8718V12.8718V12.8718V12.8718V12.8718V12.8718V12.8718V12.8718V12.8718V12.8718V12.8718V12.8718V12.8718V12.8717V12.8717V12.8717V12.8717V12.8717V12.8717V12.8717V12.8717V12.8717V12.8717V12.8717V12.8716V12.8716V12.8716V12.8716V12.8716V12.8716V12.8716V12.8716V12.8716V12.8716V12.8716V12.8715V12.8715V12.8715V12.8715V12.8715V12.8715V12.8715V12.8715V12.8715V12.8715V12.8715V12.8715V12.8714V12.8714V12.8714V12.8714V12.8714V12.8714V12.8714V12.8714V12.8714V12.8714V12.8714V12.8714V12.8713V12.8713V12.8713V12.8713V12.8713V12.8713V12.8713V12.8713V12.8713V12.8713V12.8713V12.8713V12.8713V12.8712V12.8712V12.8712V12.8712V12.8712V12.8712V12.8712V12.8712H10.4451ZM10.6199 13.3456C10.6195 13.3462 10.6194 13.3461 10.6199 13.3456L10.6199 13.3456Z" stroke="white"/>
<path d="M27.4429 43.248V42.9776H31.4709V43.248V44.3624V44.4904H27.4429V44.3624V43.248ZM36.6045 42.748V42.4776H36.8725V42.748H36.6045ZM37.1037 33.34H36.8725H36.6037H34.5333V33.2128V32.1104V31.8272H38.5589V32.0968V33.2128V33.34H37.3725H37.1037Z" stroke="white"/>
<path d="M31.0898 22.488H41.9082V29.8008H31.0898V22.488Z" stroke="white"/>
<path d="M27.2358 29.9055H20.0664H19.5664V30.4055V39.1828C18.5569 39.2243 17.6088 39.2055 16.8815 39.1731C16.4624 39.1545 16.1179 39.1315 15.879 39.1131C15.7595 39.104 15.6665 39.096 15.6038 39.0904L15.533 39.0838L15.5155 39.0821L15.5114 39.0817L15.5106 39.0816L15.5105 39.0816L15.5105 39.0816L27.2358 29.9055ZM27.2358 29.9055L27.2337 24.2596C25.8631 23.6996 24.5095 23.344 23.2854 23.1242C22.3878 24.0879 20.1043 26.603 18.68 28.7685V29.284L18.1363 29.156L17.608 29.2551V28.7531C16.336 26.5642 14.0222 24.1269 13.0644 23.1605C10.2609 23.6904 6.84029 24.9179 4.05979 27.6875C4.00948 28.94 4.04617 30.3681 4.22069 31.6634C4.40718 33.0475 4.74067 34.1941 5.22479 34.8399L27.2358 29.9055ZM17.9219 29.0841L17.9219 29.0841L17.9219 29.0841ZM18.3682 29.0832C18.37 29.0822 18.3688 29.0829 18.3669 29.0838L18.3682 29.0832Z" stroke="white"/>
</g>
<defs>
<clipPath id="clip0">
<rect width="48" height="48" fill="white"/>
</clipPath>
</defs>
</svg>
