<svg width="45" height="45" viewBox="0 0 45 45" fill="none" xmlns="http://www.w3.org/2000/svg">
<circle cx="22.5" cy="22.5" r="22.5" fill="#FF9900" fill-opacity="0.86"/>
<g clip-path="url(#clip0)">
<path d="M17.535 15.1669L17.5299 15.1638C17.5277 15.124 17.5264 15.0788 17.5264 15.0228C17.5264 13.4234 19.0592 12.0044 21.1132 12.0044C23.14 12.0044 24.6596 13.3887 24.6965 14.9625L24.697 14.9821L24.699 15.0016C24.7019 15.0309 24.7019 15.0558 24.6997 15.0786L24.6982 15.0927L24.6976 15.1068C24.6941 15.188 24.6865 15.2374 24.6803 15.2639L24.6535 15.2996L24.6278 15.3737C24.6217 15.3916 24.6136 15.4143 24.6048 15.4389C24.5879 15.4863 24.5685 15.5406 24.556 15.5795C24.5449 15.6141 24.5314 15.6591 24.5217 15.7072C24.5134 15.7482 24.499 15.8319 24.513 15.9299L24.513 15.9303C24.5228 15.998 24.5176 16.1325 24.4763 16.2824L24.3511 16.7371L24.7 16.8555C24.7006 16.8676 24.701 16.8811 24.7013 16.8959C24.7022 16.9528 24.7001 17.0155 24.6971 17.0889C24.6968 17.0968 24.6964 17.1049 24.6961 17.1132C24.6935 17.1762 24.6904 17.2499 24.6904 17.318C24.6904 17.4779 24.6415 17.6039 24.5853 17.6795C24.5292 17.755 24.4879 17.7572 24.4837 17.7573L24.1054 17.7647L24.0098 18.1308C23.555 19.8717 22.3651 20.9628 21.114 20.9628C19.8632 20.9628 18.6734 19.8721 18.2185 18.1308L18.1228 17.7644L17.7441 17.7573C17.7404 17.7572 17.6993 17.7553 17.6431 17.6797C17.5869 17.6041 17.538 17.478 17.538 17.318C17.538 17.2499 17.5349 17.1762 17.5322 17.1132C17.5319 17.1049 17.5315 17.0968 17.5312 17.0889C17.5281 17.0155 17.526 16.9529 17.527 16.8961C17.5273 16.8749 17.528 16.8566 17.5291 16.8409L17.72 16.7472V16.436V16.436V16.436V16.436V16.436V16.436V16.436V16.436V16.436V16.436V16.4359V16.4359V16.4359V16.4359V16.4359V16.4359V16.4359V16.4359V16.4359V16.4359V16.4359V16.4359V16.4359V16.4359V16.4359V16.4359V16.4359V16.4359V16.4359V16.4359V16.4359V16.4359V16.4359V16.4359V16.4358V16.4358V16.4358V16.4358V16.4358V16.4358V16.4358V16.4358V16.4358V16.4358V16.4358V16.4358V16.4358V16.4358V16.4358V16.4358V16.4358V16.4358V16.4358V16.4358V16.4358V16.4358V16.4357V16.4357V16.4357V16.4357V16.4357V16.4357V16.4357V16.4357V16.4357V16.4357V16.4357V16.4357V16.4357V16.4357V16.4357V16.4357V16.4357V16.4357V16.4357V16.4357V16.4357V16.4357V16.4357V16.4357V16.4356V16.4356V16.4356V16.4356V16.4356V16.4356V16.4356V16.4356V16.4356V16.4356V16.4356V16.4356V16.4356V16.4356V16.4356H17.2225L17.714 16.359C17.6968 16.2484 17.6885 16.132 17.6788 15.995C17.6766 15.964 17.6744 15.9319 17.6719 15.8985C17.6601 15.7389 17.6428 15.5319 17.5887 15.3488L17.535 15.1669ZM24.6762 15.2786C24.6762 15.2786 24.6763 15.2781 24.6767 15.2772L24.6762 15.2786ZM17.5382 16.7724C17.5383 16.7724 17.5381 16.7731 17.5376 16.7744L17.5382 16.7724Z" stroke="white"/>
<path d="M27.4855 31.9952H25.9715V31.7388H27.4855V31.9952ZM31.0295 26.1636V26.42H30.8019H30.6863H30.3019H30.1863H29.5167V26.1636H31.0295Z" stroke="white"/>
<path d="M27.7949 24.6503V21.4939H32.7041V24.6503H27.7949Z" stroke="white"/>
<path d="M20.554 24.4446C19.9669 23.459 18.9573 22.372 18.4483 21.8514C17.1272 22.1186 15.5641 22.7037 14.2761 23.9523C14.2571 24.5428 14.2777 25.2015 14.3581 25.7983C14.4504 26.4833 14.6111 27.0014 14.8124 27.27L20.554 24.4446ZM20.554 24.4446V24.9288L21.0623 24.8335M20.554 24.4446L21.0623 24.8335M21.0623 24.8335L21.5332 24.9443V25.2027V29.3493C21.1281 29.3588 20.7523 29.3502 20.4518 29.3368C20.2453 29.3276 20.0758 29.3163 19.9586 29.3073C19.9 29.3028 19.8546 29.2989 19.8243 29.2962L19.7904 29.293L19.7823 29.2923L19.7807 29.2921L19.7805 29.2921L19.7805 29.2921L19.7804 29.2921L19.7804 29.2921L19.771 29.2911L19.7614 29.2905C17.8407 29.1694 16.7192 28.7968 16.0317 28.4066C15.3887 28.0416 15.0929 27.6455 14.8497 27.3198C14.8371 27.303 14.8247 27.2864 14.8124 27.27L21.0623 24.8335ZM25.3678 24.7027H22.0332H21.59V24.4596C22.2467 23.4777 23.2467 22.3593 23.7324 21.8331C24.2468 21.9326 24.8028 22.0814 25.3669 22.2995L25.3678 24.7027Z" stroke="white"/>
</g>
<defs>
<clipPath id="clip0">
<rect width="24" height="30" fill="white" transform="translate(12 10)"/>
</clipPath>
</defs>
</svg>
