<svg width="45" height="45" viewBox="0 0 45 45" fill="none" xmlns="http://www.w3.org/2000/svg">
<circle cx="22.5" cy="22.5" r="22.5" fill="#FF9900" fill-opacity="0.86"/>
<g clip-path="url(#clip0)">
<mask id="path-2-inside-1" fill="white">
<path d="M19.6842 15.0884L16.1545 18.2664L14.8677 17.1078L14.5 17.4719L16.1545 18.9617L20.0519 15.4525L19.6842 15.0884Z"/>
</mask>
<path d="M19.6842 15.0884L16.1545 18.2664L14.8677 17.1078L14.5 17.4719L16.1545 18.9617L20.0519 15.4525L19.6842 15.0884Z" fill="white"/>
<path d="M19.6842 15.0884L20.3879 14.3779L19.7169 13.7133L19.0151 14.3452L19.6842 15.0884ZM16.1545 18.2664L15.4854 19.0096L16.1545 19.6121L16.8237 19.0096L16.1545 18.2664ZM14.8677 17.1078L15.5368 16.3646L14.835 15.7327L14.164 16.3973L14.8677 17.1078ZM14.5 17.4719L13.7963 16.7614L13.044 17.5066L13.8309 18.2151L14.5 17.4719ZM16.1545 18.9617L15.4854 19.7048L16.1545 20.3073L16.8237 19.7048L16.1545 18.9617ZM20.0519 15.4525L20.721 16.1957L21.5079 15.4872L20.7556 14.742L20.0519 15.4525ZM19.0151 14.3452L15.4854 17.5233L16.8237 19.0096L20.3533 15.8315L19.0151 14.3452ZM16.8237 17.5233L15.5368 16.3646L14.1986 17.8509L15.4854 19.0096L16.8237 17.5233ZM14.164 16.3973L13.7963 16.7614L15.2037 18.1824L15.5714 17.8183L14.164 16.3973ZM13.8309 18.2151L15.4854 19.7048L16.8237 18.2185L15.1691 16.7288L13.8309 18.2151ZM16.8237 19.7048L20.721 16.1957L19.3828 14.7094L15.4854 18.2185L16.8237 19.7048ZM20.7556 14.742L20.3879 14.3779L18.9805 15.7989L19.3482 16.163L20.7556 14.742Z" fill="white" mask="url(#path-2-inside-1)"/>
<mask id="path-4-inside-2" fill="white">
<path d="M22.5522 16.9424C22.5522 14.3271 20.1991 12.1753 17.2945 12.1753C14.3531 12.1753 12 14.3271 12 16.9424C12 19.5577 14.3531 21.7095 17.2945 21.7095C20.1991 21.7095 22.5522 19.5577 22.5522 16.9424ZM12.5515 16.9424C12.5515 14.5919 14.6473 12.6719 17.2945 12.6719C19.9418 12.6719 22.0375 14.5919 22.0375 16.9424C22.0375 19.2928 19.905 21.2129 17.2945 21.2129C14.684 21.2129 12.5515 19.2928 12.5515 16.9424Z"/>
</mask>
<path d="M22.5522 16.9424C22.5522 14.3271 20.1991 12.1753 17.2945 12.1753C14.3531 12.1753 12 14.3271 12 16.9424C12 19.5577 14.3531 21.7095 17.2945 21.7095C20.1991 21.7095 22.5522 19.5577 22.5522 16.9424ZM12.5515 16.9424C12.5515 14.5919 14.6473 12.6719 17.2945 12.6719C19.9418 12.6719 22.0375 14.5919 22.0375 16.9424C22.0375 19.2928 19.905 21.2129 17.2945 21.2129C14.684 21.2129 12.5515 19.2928 12.5515 16.9424Z" fill="white"/>
<path d="M23.5522 16.9424C23.5522 13.6873 20.6596 11.1753 17.2945 11.1753V13.1753C19.7387 13.1753 21.5522 14.967 21.5522 16.9424H23.5522ZM17.2945 11.1753C13.8974 11.1753 11 13.683 11 16.9424H13C13 14.9713 14.8088 13.1753 17.2945 13.1753V11.1753ZM11 16.9424C11 20.2018 13.8974 22.7095 17.2945 22.7095V20.7095C14.8088 20.7095 13 18.9135 13 16.9424H11ZM17.2945 22.7095C20.6596 22.7095 23.5522 20.1975 23.5522 16.9424H21.5522C21.5522 18.9178 19.7387 20.7095 17.2945 20.7095V22.7095ZM13.5515 16.9424C13.5515 15.2356 15.1035 13.6719 17.2945 13.6719V11.6719C14.191 11.6719 11.5515 13.9483 11.5515 16.9424H13.5515ZM17.2945 13.6719C19.4855 13.6719 21.0375 15.2356 21.0375 16.9424H23.0375C23.0375 13.9483 20.398 11.6719 17.2945 11.6719V13.6719ZM21.0375 16.9424C21.0375 18.6444 19.454 20.2129 17.2945 20.2129V22.2129C20.356 22.2129 23.0375 19.9412 23.0375 16.9424H21.0375ZM17.2945 20.2129C15.135 20.2129 13.5515 18.6444 13.5515 16.9424H11.5515C11.5515 19.9412 14.233 22.2129 17.2945 22.2129V20.2129Z" fill="white" mask="url(#path-4-inside-2)"/>
<mask id="path-6-inside-3" fill="white">
<path d="M32.2594 15.916C31.6711 15.585 31.0093 15.4194 30.3475 15.4194C29.0606 15.4194 27.8841 16.0153 27.2223 17.0085C26.7075 17.7368 26.5972 18.5975 26.7443 19.3589L26.0825 20.319V20.3852C26.0457 21.1466 25.678 22.1066 25.053 23.0005C24.2441 24.1922 23.1779 25.053 22.2954 25.2516C21.2292 24.755 20.1629 24.3247 19.0599 23.9274C18.6555 23.795 18.1407 23.8943 17.8466 24.2253C17.3318 24.7881 16.8171 25.3509 16.3023 25.9137C16.192 26.0461 16.1553 26.1785 16.1553 26.344C16.192 26.5096 16.3023 26.642 16.4494 26.7082L17.1848 27.1055L16.9274 27.7676C16.8539 27.9993 16.9642 28.1979 17.1848 28.3303L26.7443 33.594C26.8178 33.6271 26.9281 33.6602 27.0384 33.6602C27.1855 33.6602 27.2958 33.6271 27.4061 33.5278L28.0311 33.0643L28.7665 33.4616C28.8768 33.5278 28.9871 33.5278 29.0974 33.5278C29.3548 33.5278 29.5754 33.3954 29.6489 33.1968C29.9431 32.5347 30.274 31.8726 30.6049 31.1774C30.7887 30.7801 30.6784 30.3166 30.3475 30.0518C29.4651 29.3566 28.5091 28.6945 27.5532 28.0655C27.3326 27.3041 27.737 26.013 28.5091 24.8543C29.1342 23.9605 29.9063 23.2322 30.6416 22.8349L30.7152 22.8018L31.3402 21.8749C32.2226 21.6432 32.9947 21.1466 33.4727 20.4183C34.5022 18.9286 33.9875 16.876 32.2594 15.916ZM27.0384 33.1968L17.4421 27.9331L17.6627 27.4034L20.1997 28.7938L27.5164 32.8326L27.0384 33.1968ZM30.0901 31.0449C29.7592 31.7401 29.4283 32.4022 29.1342 33.0643C29.1342 33.0974 29.0974 33.0974 29.0974 33.0974L16.7436 26.3109C16.7068 26.3109 16.7068 26.2778 16.7068 26.2778V26.2447C17.2215 25.682 17.7363 25.1192 18.2878 24.5564C18.3981 24.4571 18.5452 24.3909 18.729 24.3909C18.8025 24.3909 18.8393 24.3909 18.9128 24.424C22.9572 25.9137 26.7075 27.9662 29.9798 30.5484C30.1269 30.6146 30.1637 30.8463 30.0901 31.0449ZM30.274 22.5039C29.4651 22.9342 28.6562 23.7288 28.0311 24.6557C27.2958 25.7482 26.8914 26.8737 26.9281 27.7676C25.6413 26.973 24.3176 26.2447 22.9572 25.5826C23.8397 25.2185 24.7956 24.3578 25.531 23.2984C26.156 22.3384 26.5605 21.3452 26.634 20.5176L26.9649 20.0541C27.259 20.6831 27.737 21.2459 28.4356 21.61C29.0239 21.9411 29.6857 22.1066 30.3475 22.1066C30.4578 22.1066 30.5313 22.1066 30.6416 22.1066L30.274 22.5039ZM32.9948 20.2196C32.4065 21.0473 31.4138 21.5769 30.3107 21.5769C29.7225 21.5769 29.1709 21.4445 28.693 21.1466C27.2223 20.319 26.7443 18.5975 27.6635 17.2733C28.2518 16.4457 29.2445 15.916 30.3475 15.916C30.9358 15.916 31.4873 16.0484 31.9653 16.3464C33.436 17.174 33.8772 18.8954 32.9948 20.2196Z"/>
</mask>
<path d="M32.2594 15.916C31.6711 15.585 31.0093 15.4194 30.3475 15.4194C29.0606 15.4194 27.8841 16.0153 27.2223 17.0085C26.7075 17.7368 26.5972 18.5975 26.7443 19.3589L26.0825 20.319V20.3852C26.0457 21.1466 25.678 22.1066 25.053 23.0005C24.2441 24.1922 23.1779 25.053 22.2954 25.2516C21.2292 24.755 20.1629 24.3247 19.0599 23.9274C18.6555 23.795 18.1407 23.8943 17.8466 24.2253C17.3318 24.7881 16.8171 25.3509 16.3023 25.9137C16.192 26.0461 16.1553 26.1785 16.1553 26.344C16.192 26.5096 16.3023 26.642 16.4494 26.7082L17.1848 27.1055L16.9274 27.7676C16.8539 27.9993 16.9642 28.1979 17.1848 28.3303L26.7443 33.594C26.8178 33.6271 26.9281 33.6602 27.0384 33.6602C27.1855 33.6602 27.2958 33.6271 27.4061 33.5278L28.0311 33.0643L28.7665 33.4616C28.8768 33.5278 28.9871 33.5278 29.0974 33.5278C29.3548 33.5278 29.5754 33.3954 29.6489 33.1968C29.9431 32.5347 30.274 31.8726 30.6049 31.1774C30.7887 30.7801 30.6784 30.3166 30.3475 30.0518C29.4651 29.3566 28.5091 28.6945 27.5532 28.0655C27.3326 27.3041 27.737 26.013 28.5091 24.8543C29.1342 23.9605 29.9063 23.2322 30.6416 22.8349L30.7152 22.8018L31.3402 21.8749C32.2226 21.6432 32.9947 21.1466 33.4727 20.4183C34.5022 18.9286 33.9875 16.876 32.2594 15.916ZM27.0384 33.1968L17.4421 27.9331L17.6627 27.4034L20.1997 28.7938L27.5164 32.8326L27.0384 33.1968ZM30.0901 31.0449C29.7592 31.7401 29.4283 32.4022 29.1342 33.0643C29.1342 33.0974 29.0974 33.0974 29.0974 33.0974L16.7436 26.3109C16.7068 26.3109 16.7068 26.2778 16.7068 26.2778V26.2447C17.2215 25.682 17.7363 25.1192 18.2878 24.5564C18.3981 24.4571 18.5452 24.3909 18.729 24.3909C18.8025 24.3909 18.8393 24.3909 18.9128 24.424C22.9572 25.9137 26.7075 27.9662 29.9798 30.5484C30.1269 30.6146 30.1637 30.8463 30.0901 31.0449ZM30.274 22.5039C29.4651 22.9342 28.6562 23.7288 28.0311 24.6557C27.2958 25.7482 26.8914 26.8737 26.9281 27.7676C25.6413 26.973 24.3176 26.2447 22.9572 25.5826C23.8397 25.2185 24.7956 24.3578 25.531 23.2984C26.156 22.3384 26.5605 21.3452 26.634 20.5176L26.9649 20.0541C27.259 20.6831 27.737 21.2459 28.4356 21.61C29.0239 21.9411 29.6857 22.1066 30.3475 22.1066C30.4578 22.1066 30.5313 22.1066 30.6416 22.1066L30.274 22.5039ZM32.9948 20.2196C32.4065 21.0473 31.4138 21.5769 30.3107 21.5769C29.7225 21.5769 29.1709 21.4445 28.693 21.1466C27.2223 20.319 26.7443 18.5975 27.6635 17.2733C28.2518 16.4457 29.2445 15.916 30.3475 15.916C30.9358 15.916 31.4873 16.0484 31.9653 16.3464C33.436 17.174 33.8772 18.8954 32.9948 20.2196Z" fill="white"/>
<path d="M32.2594 15.916L31.769 16.7875L31.7738 16.7902L32.2594 15.916ZM27.2223 17.0085L28.0389 17.5856L28.0468 17.5744L28.0544 17.563L27.2223 17.0085ZM26.7443 19.3589L27.5676 19.9265L27.8057 19.5811L27.7261 19.1693L26.7443 19.3589ZM26.0825 20.319L25.2591 19.7514L25.0825 20.0077V20.319H26.0825ZM26.0825 20.3852L27.0813 20.4334L27.0825 20.4093V20.3852H26.0825ZM25.053 23.0005L24.2334 22.4273L24.2256 22.4389L25.053 23.0005ZM22.2954 25.2516L21.8733 26.1581L22.1824 26.3021L22.515 26.2272L22.2954 25.2516ZM19.0599 23.9274L19.3987 22.9866L19.385 22.9816L19.3711 22.977L19.0599 23.9274ZM17.8466 24.2253L18.5845 24.9002L18.5893 24.8949L18.5941 24.8895L17.8466 24.2253ZM16.3023 25.9137L15.5644 25.2388L15.5488 25.2559L15.534 25.2737L16.3023 25.9137ZM16.1553 26.344H15.1553V26.4538L15.1791 26.5609L16.1553 26.344ZM16.4494 26.7082L16.9247 25.8284L16.8929 25.8112L16.8599 25.7963L16.4494 26.7082ZM17.1848 27.1055L18.1168 27.4678L18.4366 26.6451L17.6601 26.2256L17.1848 27.1055ZM16.9274 27.7676L15.9953 27.4052L15.9838 27.4348L15.9742 27.4651L16.9274 27.7676ZM17.1848 28.3303L16.6701 29.1877L16.6861 29.1973L16.7024 29.2063L17.1848 28.3303ZM26.7443 33.594L26.262 34.47L26.2971 34.4894L26.3338 34.5059L26.7443 33.594ZM27.4061 33.5278L26.8105 32.7245L26.7723 32.7529L26.737 32.7847L27.4061 33.5278ZM28.0311 33.0643L28.5065 32.1845L27.9466 31.8821L27.4355 32.2611L28.0311 33.0643ZM28.7665 33.4616L29.2812 32.6042L29.2617 32.5926L29.2418 32.5818L28.7665 33.4616ZM29.6489 33.1968L28.735 32.7908L28.7221 32.8198L28.7111 32.8496L29.6489 33.1968ZM30.6049 31.1774L31.5079 31.6072L31.5124 31.5973L30.6049 31.1774ZM30.3475 30.0518L30.9724 29.271L30.9663 29.2663L30.3475 30.0518ZM27.5532 28.0655L26.5927 28.3438L26.6953 28.6981L27.0035 28.9009L27.5532 28.0655ZM28.5091 24.8543L27.6896 24.2813L27.6832 24.2905L27.677 24.2998L28.5091 24.8543ZM30.6416 22.8349L30.2311 21.9231L30.1981 21.9379L30.1663 21.9551L30.6416 22.8349ZM30.7152 22.8018L31.1257 23.7137L31.3852 23.5969L31.5443 23.3609L30.7152 22.8018ZM31.3402 21.8749L31.0862 20.9077L30.7218 21.0034L30.5111 21.3158L31.3402 21.8749ZM33.4727 20.4183L32.6501 19.8498L32.6433 19.8596L32.6367 19.8696L33.4727 20.4183ZM27.0384 33.1968L26.5575 34.0735L27.1274 34.3861L27.6445 33.9922L27.0384 33.1968ZM17.4421 27.9331L16.519 27.5486L16.1736 28.3778L16.9612 28.8099L17.4421 27.9331ZM17.6627 27.4034L18.1434 26.5265L17.1675 25.9916L16.7396 27.0189L17.6627 27.4034ZM20.1997 28.7938L20.683 27.9183L20.6803 27.9169L20.1997 28.7938ZM27.5164 32.8326L28.1224 33.6281L29.3426 32.6984L27.9997 31.9571L27.5164 32.8326ZM30.0901 31.0449L30.9931 31.4747L31.0123 31.4342L31.0279 31.3921L30.0901 31.0449ZM29.1342 33.0643L28.2203 32.6583L28.1342 32.8522V33.0643H29.1342ZM29.0974 33.0974L28.6159 33.9739L28.8408 34.0975L29.0974 34.0974L29.0974 33.0974ZM16.7436 26.3109L17.225 25.4345L17.0001 25.3109H16.7436V26.3109ZM16.7068 26.2778H15.7068V26.2778L16.7068 26.2778ZM16.7068 26.2447L15.9689 25.5698L15.7068 25.8564V26.2447H16.7068ZM18.2878 24.5564L17.6187 23.8132L17.5954 23.8341L17.5736 23.8565L18.2878 24.5564ZM18.9128 24.424L18.5023 25.3358L18.5343 25.3502L18.5672 25.3623L18.9128 24.424ZM29.9798 30.5484L29.3604 31.3334L29.457 31.4097L29.5693 31.4602L29.9798 30.5484ZM30.274 22.5039L30.7437 23.3867L30.893 23.3073L31.0079 23.1831L30.274 22.5039ZM28.0311 24.6557L27.202 24.0966L27.2016 24.0973L28.0311 24.6557ZM26.9281 27.7676L26.4028 28.6184L28.0047 29.6075L27.9273 27.7265L26.9281 27.7676ZM22.9572 25.5826L22.5758 24.6583L20.5178 25.5075L22.5196 26.4818L22.9572 25.5826ZM25.531 23.2984L26.3525 23.8686L26.3609 23.8564L26.369 23.844L25.531 23.2984ZM26.634 20.5176L25.8201 19.9365L25.662 20.158L25.6379 20.4291L26.634 20.5176ZM26.9649 20.0541L27.8707 19.6305L27.1457 18.08L26.151 19.473L26.9649 20.0541ZM28.4356 21.61L28.926 20.7386L28.912 20.7307L28.8978 20.7233L28.4356 21.61ZM30.6416 22.1066L31.3755 22.7859L32.9297 21.1066H30.6416V22.1066ZM32.9948 20.2196L33.8098 20.799L33.8186 20.7867L33.8269 20.7742L32.9948 20.2196ZM28.693 21.1466L29.222 20.298L29.2029 20.2861L29.1834 20.2751L28.693 21.1466ZM27.6635 17.2733L26.8484 16.6939L26.842 16.7031L27.6635 17.2733ZM31.9653 16.3464L31.4363 17.195L31.4553 17.2069L31.4748 17.2179L31.9653 16.3464ZM32.7498 15.0445C32.0065 14.6262 31.1749 14.4194 30.3475 14.4194V16.4194C30.8438 16.4194 31.3358 16.5437 31.769 16.7875L32.7498 15.0445ZM30.3475 14.4194C28.7594 14.4194 27.2551 15.1559 26.3901 16.4539L28.0544 17.563C28.5131 16.8747 29.3618 16.4194 30.3475 16.4194V14.4194ZM26.4056 16.4313C25.7087 17.4174 25.5726 18.5655 25.7624 19.5486L27.7261 19.1693C27.6219 18.6295 27.7064 18.0561 28.0389 17.5856L26.4056 16.4313ZM25.921 18.7913L25.2591 19.7514L26.9058 20.8865L27.5676 19.9265L25.921 18.7913ZM25.0825 20.319V20.3852H27.0825V20.319H25.0825ZM25.0836 20.3369C25.0586 20.8545 24.7875 21.6352 24.2335 22.4274L25.8725 23.5735C26.5686 22.5781 27.0328 21.4386 27.0813 20.4334L25.0836 20.3369ZM24.2256 22.4389C23.4835 23.5322 22.6043 24.1571 22.0758 24.276L22.515 26.2272C23.7514 25.9489 25.0047 24.8522 25.8804 23.562L24.2256 22.4389ZM22.7176 24.3451C21.62 23.8339 20.5255 23.3924 19.3987 22.9866L18.7211 24.8682C19.8004 25.257 20.8383 25.6761 21.8733 26.1581L22.7176 24.3451ZM19.3711 22.977C18.6475 22.7401 17.6967 22.8884 17.099 23.5611L18.5941 24.8895C18.5816 24.9036 18.5883 24.8881 18.6359 24.8771C18.6575 24.8722 18.6809 24.87 18.7034 24.8708C18.726 24.8717 18.7415 24.8754 18.7487 24.8777L19.3711 22.977ZM17.1087 23.5504C16.8513 23.8318 16.5939 24.1132 16.3366 24.3946C16.0792 24.676 15.8218 24.9574 15.5644 25.2388L17.0402 26.5886C17.2976 26.3072 17.555 26.0258 17.8124 25.7444C18.0697 25.463 18.3271 25.1816 18.5845 24.9002L17.1087 23.5504ZM15.534 25.2737C15.2466 25.6186 15.1553 25.9913 15.1553 26.344H17.1553C17.1553 26.3353 17.1563 26.371 17.138 26.427C17.1182 26.4875 17.0892 26.5314 17.0707 26.5537L15.534 25.2737ZM15.1791 26.5609C15.2843 27.0348 15.6046 27.4246 16.0389 27.6201L16.8599 25.7963C17 25.8594 17.0997 25.9843 17.1315 26.1272L15.1791 26.5609ZM15.9741 27.588L16.7095 27.9853L17.6601 26.2256L16.9247 25.8284L15.9741 27.588ZM16.2527 26.7432L15.9953 27.4052L17.8594 28.1299L18.1168 27.4678L16.2527 26.7432ZM15.9742 27.4651C15.8631 27.8152 15.8841 28.1873 16.0453 28.521C16.1971 28.8355 16.4401 29.0497 16.6701 29.1877L17.6994 27.4729C17.7088 27.4786 17.7863 27.5272 17.8463 27.6514C17.9155 27.7948 17.9181 27.9516 17.8806 28.07L15.9742 27.4651ZM16.7024 29.2063L26.262 34.47L27.2266 32.718L17.6671 27.4544L16.7024 29.2063ZM26.3338 34.5059C26.4975 34.5796 26.7494 34.6602 27.0384 34.6602V32.6602C27.0801 32.6602 27.1063 32.666 27.1161 32.6684C27.1264 32.6709 27.138 32.6746 27.1548 32.6822L26.3338 34.5059ZM27.0384 34.6602C27.3833 34.6602 27.7476 34.5659 28.0752 34.271L26.737 32.7847C26.7688 32.756 26.8274 32.7145 26.9088 32.6863C26.9844 32.6602 27.0376 32.6602 27.0384 32.6602V34.6602ZM28.0017 34.3311L28.6268 33.8676L27.4355 32.2611L26.8105 32.7245L28.0017 34.3311ZM27.5558 33.9442L28.2912 34.3414L29.2418 32.5818L28.5065 32.1845L27.5558 33.9442ZM28.2518 34.319C28.6297 34.5458 29.01 34.5278 29.0974 34.5278V32.5278C29.0667 32.5278 29.0579 32.5277 29.0522 32.5275C29.0487 32.5274 29.0602 32.5276 29.0804 32.5306C29.1277 32.5377 29.2028 32.5572 29.2812 32.6042L28.2518 34.319ZM29.0974 34.5278C29.6583 34.5278 30.3317 34.2327 30.5867 33.5439L28.7111 32.8496C28.7641 32.7064 28.8575 32.6213 28.9274 32.5794C28.9969 32.5377 29.0574 32.5278 29.0974 32.5278V34.5278ZM30.5628 33.6028C30.8501 32.9561 31.1655 32.3263 31.5078 31.6071L29.7019 30.7476C29.3824 31.4189 29.0361 32.1132 28.735 32.7908L30.5628 33.6028ZM31.5124 31.5973C31.8868 30.7884 31.6676 29.8275 30.9724 29.2711L29.7226 30.8325C29.6892 30.8058 29.6907 30.7718 29.6973 30.7574L31.5124 31.5973ZM30.9663 29.2663C30.0525 28.5463 29.0704 27.8668 28.1028 27.2301L27.0035 28.9009C27.9478 29.5222 28.8776 30.1668 29.7286 30.8373L30.9663 29.2663ZM28.5137 27.7872C28.4813 27.6755 28.4699 27.382 28.6161 26.8981C28.7541 26.4416 29.0022 25.9177 29.3413 25.4089L27.677 24.2998C27.2439 24.9497 26.9038 25.6506 26.7016 26.3196C26.5077 26.9613 26.4044 27.6941 26.5927 28.3438L28.5137 27.7872ZM29.3286 25.4274C29.8892 24.6258 30.5522 24.0198 31.1169 23.7148L30.1663 21.9551C29.2604 22.4445 28.3791 23.2952 27.6896 24.2813L29.3286 25.4274ZM31.0522 23.7468L31.1257 23.7137L30.3046 21.89L30.2311 21.9231L31.0522 23.7468ZM31.5443 23.3609L32.1693 22.434L30.5111 21.3158L29.8861 22.2427L31.5443 23.3609ZM31.5942 22.8421C32.6705 22.5594 33.6716 21.9379 34.3088 20.9669L32.6367 19.8696C32.3179 20.3553 31.7747 20.7269 31.0862 20.9077L31.5942 22.8421ZM34.2954 20.9868C35.6923 18.9655 34.9399 16.2612 32.745 15.0419L31.7738 16.7902C33.0351 17.4909 33.3122 18.8916 32.6501 19.8498L34.2954 20.9868ZM27.5193 32.32L17.923 27.0563L16.9612 28.8099L26.5575 34.0735L27.5193 32.32ZM18.3653 28.3176L18.5859 27.7879L16.7396 27.0189L16.519 27.5486L18.3653 28.3176ZM17.1821 28.2803L19.7191 29.6707L20.6803 27.9169L18.1434 26.5265L17.1821 28.2803ZM19.7164 29.6693L27.0331 33.7081L27.9997 31.9571L20.6829 27.9183L19.7164 29.6693ZM26.9104 32.0372L26.4324 32.4013L27.6445 33.9922L28.1224 33.6281L26.9104 32.0372ZM29.1872 30.6152C28.8677 31.2865 28.5213 31.9808 28.2203 32.6583L30.048 33.4703C30.3353 32.8237 30.6508 32.1938 30.9931 31.4747L29.1872 30.6152ZM28.1342 33.0643C28.1342 32.8746 28.1913 32.6686 28.3248 32.4884C28.4495 32.3199 28.6001 32.2288 28.7053 32.1815C28.8091 32.1347 28.8996 32.1163 28.9547 32.108C28.9848 32.1035 29.0118 32.1009 29.0348 32.0994C29.0464 32.0987 29.0574 32.0982 29.0678 32.0979C29.073 32.0977 29.078 32.0976 29.083 32.0976C29.0854 32.0975 29.0879 32.0975 29.0903 32.0975C29.0915 32.0975 29.0927 32.0975 29.0938 32.0975C29.0944 32.0975 29.095 32.0975 29.0956 32.0975C29.0959 32.0975 29.0964 32.0975 29.0965 32.0974C29.0969 32.0974 29.0974 32.0974 29.0974 33.0974C29.0974 34.0974 29.0979 34.0974 29.0983 34.0974C29.0985 34.0974 29.0989 34.0974 29.0992 34.0974C29.0998 34.0974 29.1004 34.0974 29.101 34.0974C29.1022 34.0974 29.1034 34.0974 29.1046 34.0974C29.107 34.0974 29.1095 34.0974 29.112 34.0973C29.1171 34.0973 29.1224 34.0972 29.1278 34.097C29.1387 34.0967 29.1505 34.0961 29.1632 34.0953C29.1881 34.0937 29.218 34.0909 29.2516 34.0859C29.3136 34.0765 29.4133 34.0561 29.5263 34.0052C29.6406 33.9537 29.8004 33.8564 29.9321 33.6786C30.0724 33.4891 30.1342 33.2706 30.1342 33.0643H28.1342ZM29.5789 32.221L17.225 25.4345L16.2621 27.1874L28.6159 33.9739L29.5789 32.221ZM16.7436 25.3109C16.8892 25.3109 17.0655 25.3454 17.237 25.4484C17.407 25.5504 17.518 25.6871 17.5856 25.8089C17.6501 25.925 17.6777 26.031 17.6907 26.101C17.6975 26.1381 17.7015 26.1716 17.7037 26.2002C17.7049 26.2147 17.7056 26.2284 17.7061 26.2412C17.7063 26.2477 17.7065 26.2539 17.7066 26.26C17.7067 26.2631 17.7067 26.2661 17.7067 26.269C17.7068 26.2705 17.7068 26.272 17.7068 26.2735C17.7068 26.2742 17.7068 26.2749 17.7068 26.2757C17.7068 26.276 17.7068 26.2766 17.7068 26.2767C17.7068 26.2773 17.7068 26.2778 16.7068 26.2778C15.7068 26.2778 15.7068 26.2784 15.7068 26.2789C15.7068 26.2791 15.7068 26.2797 15.7068 26.28C15.7068 26.2808 15.7068 26.2815 15.7068 26.2822C15.7068 26.2837 15.7068 26.2852 15.7068 26.2867C15.7069 26.2897 15.7069 26.2927 15.7069 26.2958C15.7071 26.3021 15.7072 26.3085 15.7075 26.3152C15.708 26.3285 15.7088 26.343 15.71 26.3583C15.7124 26.3888 15.7166 26.4248 15.7241 26.465C15.7382 26.5413 15.7681 26.6555 15.8371 26.7799C15.9094 26.91 16.0273 27.0549 16.2076 27.1632C16.3895 27.2723 16.5795 27.3109 16.7436 27.3109V25.3109ZM17.7068 26.2778V26.2447H15.7068V26.2778H17.7068ZM17.4447 26.9196C17.9611 26.3551 18.4645 25.8048 19.002 25.2563L17.5736 23.8565C17.0081 24.4335 16.482 25.0088 15.9689 25.5698L17.4447 26.9196ZM18.9569 25.2995C18.9293 25.3244 18.8924 25.349 18.8473 25.3668C18.8014 25.3849 18.7595 25.3909 18.729 25.3909V23.3909C18.2857 23.3909 17.9032 23.557 17.6187 23.8132L18.9569 25.2995ZM18.729 25.3909C18.7518 25.3909 18.7495 25.391 18.7438 25.3908C18.734 25.3904 18.7077 25.3892 18.6725 25.3839C18.6355 25.3784 18.5994 25.37 18.5659 25.3595C18.5343 25.3497 18.5121 25.3402 18.5023 25.3358L19.3233 23.5121C19.2241 23.4674 19.1076 23.4268 18.9693 23.4061C18.854 23.3888 18.7479 23.3909 18.729 23.3909V25.3909ZM18.5672 25.3623C22.5209 26.8186 26.1772 28.8215 29.3604 31.3334L30.5993 29.7633C27.2379 27.1109 23.3936 25.0087 19.2585 23.4856L18.5672 25.3623ZM29.5693 31.4602C29.2471 31.3152 29.157 31.0414 29.1375 30.9449C29.1157 30.8369 29.1309 30.7557 29.1523 30.6978L31.0279 31.3921C31.1229 31.1355 31.1565 30.8392 31.0979 30.5491C31.0417 30.2705 30.8596 29.8478 30.3903 29.6365L29.5693 31.4602ZM29.8043 21.6211C28.8118 22.1491 27.8902 23.0761 27.202 24.0966L28.8603 25.2148C29.4222 24.3814 30.1183 23.7194 30.7437 23.3867L29.8043 21.6211ZM27.2016 24.0973C26.4043 25.2818 25.88 26.6188 25.929 27.8087L27.9273 27.7265C27.9027 27.1287 28.1873 26.2145 28.8607 25.2141L27.2016 24.0973ZM27.4535 26.9167C26.1382 26.1046 24.7853 25.3602 23.3949 24.6835L22.5196 26.4818C23.85 27.1293 25.1444 27.8415 26.4028 28.6184L27.4535 26.9167ZM23.3387 26.507C24.4577 26.0452 25.5506 25.0238 26.3525 23.8686L24.7095 22.7282C24.0406 23.6917 23.2216 24.3917 22.5758 24.6583L23.3387 26.507ZM26.369 23.844C27.0447 22.8062 27.5369 21.6551 27.6301 20.6061L25.6379 20.4291C25.5841 21.0353 25.2674 21.8705 24.6929 22.7528L26.369 23.844ZM27.4478 21.0987L27.7787 20.6352L26.151 19.473L25.8201 19.9365L27.4478 21.0987ZM26.059 20.4777C26.4338 21.279 27.0556 22.0184 27.9733 22.4968L28.8978 20.7233C28.4185 20.4734 28.0843 20.0872 27.8707 19.6305L26.059 20.4777ZM27.9452 22.4815C28.6885 22.8998 29.5201 23.1066 30.3475 23.1066V21.1066C29.8512 21.1066 29.3592 20.9823 28.926 20.7386L27.9452 22.4815ZM30.3475 23.1066C30.3477 23.1066 30.3479 23.1066 30.3481 23.1066C30.3484 23.1066 30.3486 23.1066 30.3488 23.1066C30.349 23.1066 30.3492 23.1066 30.3494 23.1066C30.3496 23.1066 30.3499 23.1066 30.3501 23.1066C30.3503 23.1066 30.3505 23.1066 30.3507 23.1066C30.3509 23.1066 30.3511 23.1066 30.3514 23.1066C30.3516 23.1066 30.3518 23.1066 30.352 23.1066C30.3522 23.1066 30.3524 23.1066 30.3526 23.1066C30.3529 23.1066 30.3531 23.1066 30.3533 23.1066C30.3535 23.1066 30.3537 23.1066 30.3539 23.1066C30.3541 23.1066 30.3543 23.1066 30.3546 23.1066C30.3548 23.1066 30.355 23.1066 30.3552 23.1066C30.3554 23.1066 30.3556 23.1066 30.3558 23.1066C30.356 23.1066 30.3563 23.1066 30.3565 23.1066C30.3567 23.1066 30.3569 23.1066 30.3571 23.1066C30.3573 23.1066 30.3575 23.1066 30.3577 23.1066C30.3579 23.1066 30.3582 23.1066 30.3584 23.1066C30.3586 23.1066 30.3588 23.1066 30.359 23.1066C30.3592 23.1066 30.3594 23.1066 30.3596 23.1066C30.3598 23.1066 30.36 23.1066 30.3603 23.1066C30.3605 23.1066 30.3607 23.1066 30.3609 23.1066C30.3611 23.1066 30.3613 23.1066 30.3615 23.1066C30.3617 23.1066 30.3619 23.1066 30.3621 23.1066C30.3624 23.1066 30.3626 23.1066 30.3628 23.1066C30.363 23.1066 30.3632 23.1066 30.3634 23.1066C30.3636 23.1066 30.3638 23.1066 30.364 23.1066C30.3642 23.1066 30.3644 23.1066 30.3646 23.1066C30.3649 23.1066 30.3651 23.1066 30.3653 23.1066C30.3655 23.1066 30.3657 23.1066 30.3659 23.1066C30.3661 23.1066 30.3663 23.1066 30.3665 23.1066C30.3667 23.1066 30.3669 23.1066 30.3671 23.1066C30.3674 23.1066 30.3676 23.1066 30.3678 23.1066C30.368 23.1066 30.3682 23.1066 30.3684 23.1066C30.3686 23.1066 30.3688 23.1066 30.369 23.1066C30.3692 23.1066 30.3694 23.1066 30.3696 23.1066C30.3698 23.1066 30.37 23.1066 30.3702 23.1066C30.3704 23.1066 30.3707 23.1066 30.3709 23.1066C30.3711 23.1066 30.3713 23.1066 30.3715 23.1066C30.3717 23.1066 30.3719 23.1066 30.3721 23.1066C30.3723 23.1066 30.3725 23.1066 30.3727 23.1066C30.3729 23.1066 30.3731 23.1066 30.3733 23.1066C30.3735 23.1066 30.3737 23.1066 30.3739 23.1066C30.3741 23.1066 30.3743 23.1066 30.3746 23.1066C30.3748 23.1066 30.375 23.1066 30.3752 23.1066C30.3754 23.1066 30.3756 23.1066 30.3758 23.1066C30.376 23.1066 30.3762 23.1066 30.3764 23.1066C30.3766 23.1066 30.3768 23.1066 30.377 23.1066C30.3772 23.1066 30.3774 23.1066 30.3776 23.1066C30.3778 23.1066 30.378 23.1066 30.3782 23.1066C30.3784 23.1066 30.3786 23.1066 30.3788 23.1066C30.379 23.1066 30.3792 23.1066 30.3794 23.1066C30.3796 23.1066 30.3798 23.1066 30.38 23.1066C30.3802 23.1066 30.3804 23.1066 30.3806 23.1066C30.3809 23.1066 30.3811 23.1066 30.3813 23.1066C30.3815 23.1066 30.3817 23.1066 30.3819 23.1066C30.3821 23.1066 30.3823 23.1066 30.3825 23.1066C30.3827 23.1066 30.3829 23.1066 30.3831 23.1066C30.3833 23.1066 30.3835 23.1066 30.3837 23.1066C30.3839 23.1066 30.3841 23.1066 30.3843 23.1066C30.3845 23.1066 30.3847 23.1066 30.3849 23.1066C30.3851 23.1066 30.3853 23.1066 30.3855 23.1066C30.3857 23.1066 30.3859 23.1066 30.3861 23.1066C30.3863 23.1066 30.3865 23.1066 30.3867 23.1066C30.3869 23.1066 30.3871 23.1066 30.3873 23.1066C30.3875 23.1066 30.3877 23.1066 30.3879 23.1066C30.3881 23.1066 30.3883 23.1066 30.3885 23.1066C30.3887 23.1066 30.3889 23.1066 30.3891 23.1066C30.3893 23.1066 30.3895 23.1066 30.3897 23.1066C30.3899 23.1066 30.3901 23.1066 30.3903 23.1066C30.3905 23.1066 30.3907 23.1066 30.3909 23.1066C30.3911 23.1066 30.3913 23.1066 30.3915 23.1066C30.3917 23.1066 30.3919 23.1066 30.3921 23.1066C30.3923 23.1066 30.3924 23.1066 30.3926 23.1066C30.3928 23.1066 30.393 23.1066 30.3932 23.1066C30.3934 23.1066 30.3936 23.1066 30.3938 23.1066C30.394 23.1066 30.3942 23.1066 30.3944 23.1066C30.3946 23.1066 30.3948 23.1066 30.395 23.1066C30.3952 23.1066 30.3954 23.1066 30.3956 23.1066C30.3958 23.1066 30.396 23.1066 30.3962 23.1066C30.3964 23.1066 30.3966 23.1066 30.3968 23.1066C30.397 23.1066 30.3972 23.1066 30.3974 23.1066C30.3976 23.1066 30.3978 23.1066 30.398 23.1066C30.3982 23.1066 30.3984 23.1066 30.3986 23.1066C30.3987 23.1066 30.3989 23.1066 30.3991 23.1066C30.3993 23.1066 30.3995 23.1066 30.3997 23.1066C30.3999 23.1066 30.4001 23.1066 30.4003 23.1066C30.4005 23.1066 30.4007 23.1066 30.4009 23.1066C30.4011 23.1066 30.4013 23.1066 30.4015 23.1066C30.4017 23.1066 30.4019 23.1066 30.4021 23.1066C30.4023 23.1066 30.4025 23.1066 30.4027 23.1066C30.4028 23.1066 30.403 23.1066 30.4032 23.1066C30.4034 23.1066 30.4036 23.1066 30.4038 23.1066C30.404 23.1066 30.4042 23.1066 30.4044 23.1066C30.4046 23.1066 30.4048 23.1066 30.405 23.1066C30.4052 23.1066 30.4054 23.1066 30.4056 23.1066C30.4058 23.1066 30.406 23.1066 30.4061 23.1066C30.4063 23.1066 30.4065 23.1066 30.4067 23.1066C30.4069 23.1066 30.4071 23.1066 30.4073 23.1066C30.4075 23.1066 30.4077 23.1066 30.4079 23.1066C30.4081 23.1066 30.4083 23.1066 30.4085 23.1066C30.4087 23.1066 30.4089 23.1066 30.409 23.1066C30.4092 23.1066 30.4094 23.1066 30.4096 23.1066C30.4098 23.1066 30.41 23.1066 30.4102 23.1066C30.4104 23.1066 30.4106 23.1066 30.4108 23.1066C30.411 23.1066 30.4112 23.1066 30.4114 23.1066C30.4115 23.1066 30.4117 23.1066 30.4119 23.1066C30.4121 23.1066 30.4123 23.1066 30.4125 23.1066C30.4127 23.1066 30.4129 23.1066 30.4131 23.1066C30.4133 23.1066 30.4135 23.1066 30.4137 23.1066C30.4138 23.1066 30.414 23.1066 30.4142 23.1066C30.4144 23.1066 30.4146 23.1066 30.4148 23.1066C30.415 23.1066 30.4152 23.1066 30.4154 23.1066C30.4156 23.1066 30.4158 23.1066 30.4159 23.1066C30.4161 23.1066 30.4163 23.1066 30.4165 23.1066C30.4167 23.1066 30.4169 23.1066 30.4171 23.1066C30.4173 23.1066 30.4175 23.1066 30.4177 23.1066C30.4179 23.1066 30.418 23.1066 30.4182 23.1066C30.4184 23.1066 30.4186 23.1066 30.4188 23.1066C30.419 23.1066 30.4192 23.1066 30.4194 23.1066C30.4196 23.1066 30.4198 23.1066 30.4199 23.1066C30.4201 23.1066 30.4203 23.1066 30.4205 23.1066C30.4207 23.1066 30.4209 23.1066 30.4211 23.1066C30.4213 23.1066 30.4215 23.1066 30.4216 23.1066C30.4218 23.1066 30.422 23.1066 30.4222 23.1066C30.4224 23.1066 30.4226 23.1066 30.4228 23.1066C30.423 23.1066 30.4232 23.1066 30.4233 23.1066C30.4235 23.1066 30.4237 23.1066 30.4239 23.1066C30.4241 23.1066 30.4243 23.1066 30.4245 23.1066C30.4247 23.1066 30.4249 23.1066 30.425 23.1066C30.4252 23.1066 30.4254 23.1066 30.4256 23.1066C30.4258 23.1066 30.426 23.1066 30.4262 23.1066C30.4264 23.1066 30.4265 23.1066 30.4267 23.1066C30.4269 23.1066 30.4271 23.1066 30.4273 23.1066C30.4275 23.1066 30.4277 23.1066 30.4279 23.1066C30.4281 23.1066 30.4282 23.1066 30.4284 23.1066C30.4286 23.1066 30.4288 23.1066 30.429 23.1066C30.4292 23.1066 30.4294 23.1066 30.4296 23.1066C30.4297 23.1066 30.4299 23.1066 30.4301 23.1066C30.4303 23.1066 30.4305 23.1066 30.4307 23.1066C30.4309 23.1066 30.431 23.1066 30.4312 23.1066C30.4314 23.1066 30.4316 23.1066 30.4318 23.1066C30.432 23.1066 30.4322 23.1066 30.4324 23.1066C30.4325 23.1066 30.4327 23.1066 30.4329 23.1066C30.4331 23.1066 30.4333 23.1066 30.4335 23.1066C30.4337 23.1066 30.4338 23.1066 30.434 23.1066C30.4342 23.1066 30.4344 23.1066 30.4346 23.1066C30.4348 23.1066 30.435 23.1066 30.4352 23.1066C30.4353 23.1066 30.4355 23.1066 30.4357 23.1066C30.4359 23.1066 30.4361 23.1066 30.4363 23.1066C30.4365 23.1066 30.4366 23.1066 30.4368 23.1066C30.437 23.1066 30.4372 23.1066 30.4374 23.1066C30.4376 23.1066 30.4378 23.1066 30.4379 23.1066C30.4381 23.1066 30.4383 23.1066 30.4385 23.1066C30.4387 23.1066 30.4389 23.1066 30.439 23.1066C30.4392 23.1066 30.4394 23.1066 30.4396 23.1066C30.4398 23.1066 30.44 23.1066 30.4402 23.1066C30.4403 23.1066 30.4405 23.1066 30.4407 23.1066C30.4409 23.1066 30.4411 23.1066 30.4413 23.1066C30.4415 23.1066 30.4416 23.1066 30.4418 23.1066C30.442 23.1066 30.4422 23.1066 30.4424 23.1066C30.4426 23.1066 30.4427 23.1066 30.4429 23.1066C30.4431 23.1066 30.4433 23.1066 30.4435 23.1066C30.4437 23.1066 30.4439 23.1066 30.444 23.1066C30.4442 23.1066 30.4444 23.1066 30.4446 23.1066C30.4448 23.1066 30.445 23.1066 30.4451 23.1066C30.4453 23.1066 30.4455 23.1066 30.4457 23.1066C30.4459 23.1066 30.4461 23.1066 30.4462 23.1066C30.4464 23.1066 30.4466 23.1066 30.4468 23.1066C30.447 23.1066 30.4472 23.1066 30.4473 23.1066C30.4475 23.1066 30.4477 23.1066 30.4479 23.1066C30.4481 23.1066 30.4483 23.1066 30.4485 23.1066C30.4486 23.1066 30.4488 23.1066 30.449 23.1066C30.4492 23.1066 30.4494 23.1066 30.4495 23.1066C30.4497 23.1066 30.4499 23.1066 30.4501 23.1066C30.4503 23.1066 30.4505 23.1066 30.4506 23.1066C30.4508 23.1066 30.451 23.1066 30.4512 23.1066C30.4514 23.1066 30.4516 23.1066 30.4517 23.1066C30.4519 23.1066 30.4521 23.1066 30.4523 23.1066C30.4525 23.1066 30.4527 23.1066 30.4528 23.1066C30.453 23.1066 30.4532 23.1066 30.4534 23.1066C30.4536 23.1066 30.4538 23.1066 30.4539 23.1066C30.4541 23.1066 30.4543 23.1066 30.4545 23.1066C30.4547 23.1066 30.4549 23.1066 30.455 23.1066C30.4552 23.1066 30.4554 23.1066 30.4556 23.1066C30.4558 23.1066 30.4559 23.1066 30.4561 23.1066C30.4563 23.1066 30.4565 23.1066 30.4567 23.1066C30.4569 23.1066 30.457 23.1066 30.4572 23.1066C30.4574 23.1066 30.4576 23.1066 30.4578 23.1066C30.458 23.1066 30.4581 23.1066 30.4583 23.1066C30.4585 23.1066 30.4587 23.1066 30.4589 23.1066C30.459 23.1066 30.4592 23.1066 30.4594 23.1066C30.4596 23.1066 30.4598 23.1066 30.46 23.1066C30.4601 23.1066 30.4603 23.1066 30.4605 23.1066C30.4607 23.1066 30.4609 23.1066 30.461 23.1066C30.4612 23.1066 30.4614 23.1066 30.4616 23.1066C30.4618 23.1066 30.462 23.1066 30.4621 23.1066C30.4623 23.1066 30.4625 23.1066 30.4627 23.1066C30.4629 23.1066 30.463 23.1066 30.4632 23.1066C30.4634 23.1066 30.4636 23.1066 30.4638 23.1066C30.4639 23.1066 30.4641 23.1066 30.4643 23.1066C30.4645 23.1066 30.4647 23.1066 30.4649 23.1066C30.465 23.1066 30.4652 23.1066 30.4654 23.1066C30.4656 23.1066 30.4658 23.1066 30.4659 23.1066C30.4661 23.1066 30.4663 23.1066 30.4665 23.1066C30.4667 23.1066 30.4668 23.1066 30.467 23.1066C30.4672 23.1066 30.4674 23.1066 30.4676 23.1066C30.4677 23.1066 30.4679 23.1066 30.4681 23.1066C30.4683 23.1066 30.4685 23.1066 30.4687 23.1066C30.4688 23.1066 30.469 23.1066 30.4692 23.1066C30.4694 23.1066 30.4696 23.1066 30.4697 23.1066C30.4699 23.1066 30.4701 23.1066 30.4703 23.1066C30.4705 23.1066 30.4706 23.1066 30.4708 23.1066C30.471 23.1066 30.4712 23.1066 30.4714 23.1066C30.4715 23.1066 30.4717 23.1066 30.4719 23.1066C30.4721 23.1066 30.4723 23.1066 30.4724 23.1066C30.4726 23.1066 30.4728 23.1066 30.473 23.1066C30.4732 23.1066 30.4733 23.1066 30.4735 23.1066C30.4737 23.1066 30.4739 23.1066 30.4741 23.1066C30.4742 23.1066 30.4744 23.1066 30.4746 23.1066C30.4748 23.1066 30.475 23.1066 30.4752 23.1066C30.4753 23.1066 30.4755 23.1066 30.4757 23.1066C30.4759 23.1066 30.4761 23.1066 30.4762 23.1066C30.4764 23.1066 30.4766 23.1066 30.4768 23.1066C30.477 23.1066 30.4771 23.1066 30.4773 23.1066C30.4775 23.1066 30.4777 23.1066 30.4779 23.1066C30.478 23.1066 30.4782 23.1066 30.4784 23.1066C30.4786 23.1066 30.4788 23.1066 30.4789 23.1066C30.4791 23.1066 30.4793 23.1066 30.4795 23.1066C30.4797 23.1066 30.4798 23.1066 30.48 23.1066C30.4802 23.1066 30.4804 23.1066 30.4806 23.1066C30.4807 23.1066 30.4809 23.1066 30.4811 23.1066C30.4813 23.1066 30.4815 23.1066 30.4816 23.1066C30.4818 23.1066 30.482 23.1066 30.4822 23.1066C30.4824 23.1066 30.4825 23.1066 30.4827 23.1066C30.4829 23.1066 30.4831 23.1066 30.4833 23.1066C30.4834 23.1066 30.4836 23.1066 30.4838 23.1066C30.484 23.1066 30.4841 23.1066 30.4843 23.1066C30.4845 23.1066 30.4847 23.1066 30.4849 23.1066C30.485 23.1066 30.4852 23.1066 30.4854 23.1066C30.4856 23.1066 30.4858 23.1066 30.4859 23.1066C30.4861 23.1066 30.4863 23.1066 30.4865 23.1066C30.4867 23.1066 30.4868 23.1066 30.487 23.1066C30.4872 23.1066 30.4874 23.1066 30.4876 23.1066C30.4877 23.1066 30.4879 23.1066 30.4881 23.1066C30.4883 23.1066 30.4885 23.1066 30.4886 23.1066C30.4888 23.1066 30.489 23.1066 30.4892 23.1066C30.4894 23.1066 30.4895 23.1066 30.4897 23.1066C30.4899 23.1066 30.4901 23.1066 30.4903 23.1066C30.4904 23.1066 30.4906 23.1066 30.4908 23.1066C30.491 23.1066 30.4912 23.1066 30.4913 23.1066C30.4915 23.1066 30.4917 23.1066 30.4919 23.1066C30.4921 23.1066 30.4922 23.1066 30.4924 23.1066C30.4926 23.1066 30.4928 23.1066 30.493 23.1066C30.4931 23.1066 30.4933 23.1066 30.4935 23.1066C30.4937 23.1066 30.4938 23.1066 30.494 23.1066C30.4942 23.1066 30.4944 23.1066 30.4946 23.1066C30.4947 23.1066 30.4949 23.1066 30.4951 23.1066C30.4953 23.1066 30.4955 23.1066 30.4956 23.1066C30.4958 23.1066 30.496 23.1066 30.4962 23.1066C30.4964 23.1066 30.4965 23.1066 30.4967 23.1066C30.4969 23.1066 30.4971 23.1066 30.4973 23.1066C30.4974 23.1066 30.4976 23.1066 30.4978 23.1066C30.498 23.1066 30.4982 23.1066 30.4983 23.1066C30.4985 23.1066 30.4987 23.1066 30.4989 23.1066C30.4991 23.1066 30.4992 23.1066 30.4994 23.1066C30.4996 23.1066 30.4998 23.1066 30.5 23.1066C30.5001 23.1066 30.5003 23.1066 30.5005 23.1066C30.5007 23.1066 30.5009 23.1066 30.501 23.1066C30.5012 23.1066 30.5014 23.1066 30.5016 23.1066C30.5017 23.1066 30.5019 23.1066 30.5021 23.1066C30.5023 23.1066 30.5025 23.1066 30.5026 23.1066C30.5028 23.1066 30.503 23.1066 30.5032 23.1066C30.5034 23.1066 30.5035 23.1066 30.5037 23.1066C30.5039 23.1066 30.5041 23.1066 30.5043 23.1066C30.5044 23.1066 30.5046 23.1066 30.5048 23.1066C30.505 23.1066 30.5052 23.1066 30.5053 23.1066C30.5055 23.1066 30.5057 23.1066 30.5059 23.1066C30.5061 23.1066 30.5062 23.1066 30.5064 23.1066C30.5066 23.1066 30.5068 23.1066 30.507 23.1066C30.5071 23.1066 30.5073 23.1066 30.5075 23.1066C30.5077 23.1066 30.5079 23.1066 30.508 23.1066C30.5082 23.1066 30.5084 23.1066 30.5086 23.1066C30.5088 23.1066 30.5089 23.1066 30.5091 23.1066C30.5093 23.1066 30.5095 23.1066 30.5097 23.1066C30.5098 23.1066 30.51 23.1066 30.5102 23.1066C30.5104 23.1066 30.5106 23.1066 30.5107 23.1066C30.5109 23.1066 30.5111 23.1066 30.5113 23.1066C30.5115 23.1066 30.5116 23.1066 30.5118 23.1066C30.512 23.1066 30.5122 23.1066 30.5124 23.1066C30.5125 23.1066 30.5127 23.1066 30.5129 23.1066C30.5131 23.1066 30.5133 23.1066 30.5134 23.1066C30.5136 23.1066 30.5138 23.1066 30.514 23.1066C30.5142 23.1066 30.5143 23.1066 30.5145 23.1066C30.5147 23.1066 30.5149 23.1066 30.5151 23.1066C30.5152 23.1066 30.5154 23.1066 30.5156 23.1066C30.5158 23.1066 30.516 23.1066 30.5161 23.1066C30.5163 23.1066 30.5165 23.1066 30.5167 23.1066C30.5169 23.1066 30.517 23.1066 30.5172 23.1066C30.5174 23.1066 30.5176 23.1066 30.5178 23.1066C30.5179 23.1066 30.5181 23.1066 30.5183 23.1066C30.5185 23.1066 30.5187 23.1066 30.5189 23.1066C30.519 23.1066 30.5192 23.1066 30.5194 23.1066C30.5196 23.1066 30.5198 23.1066 30.5199 23.1066C30.5201 23.1066 30.5203 23.1066 30.5205 23.1066C30.5207 23.1066 30.5208 23.1066 30.521 23.1066C30.5212 23.1066 30.5214 23.1066 30.5216 23.1066C30.5217 23.1066 30.5219 23.1066 30.5221 23.1066C30.5223 23.1066 30.5225 23.1066 30.5226 23.1066C30.5228 23.1066 30.523 23.1066 30.5232 23.1066C30.5234 23.1066 30.5236 23.1066 30.5237 23.1066C30.5239 23.1066 30.5241 23.1066 30.5243 23.1066C30.5245 23.1066 30.5246 23.1066 30.5248 23.1066C30.525 23.1066 30.5252 23.1066 30.5254 23.1066C30.5255 23.1066 30.5257 23.1066 30.5259 23.1066C30.5261 23.1066 30.5263 23.1066 30.5265 23.1066C30.5266 23.1066 30.5268 23.1066 30.527 23.1066C30.5272 23.1066 30.5274 23.1066 30.5275 23.1066C30.5277 23.1066 30.5279 23.1066 30.5281 23.1066C30.5283 23.1066 30.5285 23.1066 30.5286 23.1066C30.5288 23.1066 30.529 23.1066 30.5292 23.1066C30.5294 23.1066 30.5295 23.1066 30.5297 23.1066C30.5299 23.1066 30.5301 23.1066 30.5303 23.1066C30.5305 23.1066 30.5306 23.1066 30.5308 23.1066C30.531 23.1066 30.5312 23.1066 30.5314 23.1066C30.5315 23.1066 30.5317 23.1066 30.5319 23.1066C30.5321 23.1066 30.5323 23.1066 30.5325 23.1066C30.5326 23.1066 30.5328 23.1066 30.533 23.1066C30.5332 23.1066 30.5334 23.1066 30.5335 23.1066C30.5337 23.1066 30.5339 23.1066 30.5341 23.1066C30.5343 23.1066 30.5345 23.1066 30.5346 23.1066C30.5348 23.1066 30.535 23.1066 30.5352 23.1066C30.5354 23.1066 30.5356 23.1066 30.5357 23.1066C30.5359 23.1066 30.5361 23.1066 30.5363 23.1066C30.5365 23.1066 30.5367 23.1066 30.5368 23.1066C30.537 23.1066 30.5372 23.1066 30.5374 23.1066C30.5376 23.1066 30.5378 23.1066 30.5379 23.1066C30.5381 23.1066 30.5383 23.1066 30.5385 23.1066C30.5387 23.1066 30.5388 23.1066 30.539 23.1066C30.5392 23.1066 30.5394 23.1066 30.5396 23.1066C30.5398 23.1066 30.5399 23.1066 30.5401 23.1066C30.5403 23.1066 30.5405 23.1066 30.5407 23.1066C30.5409 23.1066 30.541 23.1066 30.5412 23.1066C30.5414 23.1066 30.5416 23.1066 30.5418 23.1066C30.542 23.1066 30.5422 23.1066 30.5423 23.1066C30.5425 23.1066 30.5427 23.1066 30.5429 23.1066C30.5431 23.1066 30.5433 23.1066 30.5434 23.1066C30.5436 23.1066 30.5438 23.1066 30.544 23.1066C30.5442 23.1066 30.5444 23.1066 30.5445 23.1066C30.5447 23.1066 30.5449 23.1066 30.5451 23.1066C30.5453 23.1066 30.5455 23.1066 30.5456 23.1066C30.5458 23.1066 30.546 23.1066 30.5462 23.1066C30.5464 23.1066 30.5466 23.1066 30.5468 23.1066C30.5469 23.1066 30.5471 23.1066 30.5473 23.1066C30.5475 23.1066 30.5477 23.1066 30.5479 23.1066C30.548 23.1066 30.5482 23.1066 30.5484 23.1066C30.5486 23.1066 30.5488 23.1066 30.549 23.1066C30.5492 23.1066 30.5493 23.1066 30.5495 23.1066C30.5497 23.1066 30.5499 23.1066 30.5501 23.1066C30.5503 23.1066 30.5505 23.1066 30.5506 23.1066C30.5508 23.1066 30.551 23.1066 30.5512 23.1066C30.5514 23.1066 30.5516 23.1066 30.5518 23.1066C30.5519 23.1066 30.5521 23.1066 30.5523 23.1066C30.5525 23.1066 30.5527 23.1066 30.5529 23.1066C30.5531 23.1066 30.5532 23.1066 30.5534 23.1066C30.5536 23.1066 30.5538 23.1066 30.554 23.1066C30.5542 23.1066 30.5544 23.1066 30.5545 23.1066C30.5547 23.1066 30.5549 23.1066 30.5551 23.1066C30.5553 23.1066 30.5555 23.1066 30.5557 23.1066C30.5558 23.1066 30.556 23.1066 30.5562 23.1066C30.5564 23.1066 30.5566 23.1066 30.5568 23.1066C30.557 23.1066 30.5571 23.1066 30.5573 23.1066C30.5575 23.1066 30.5577 23.1066 30.5579 23.1066C30.5581 23.1066 30.5583 23.1066 30.5585 23.1066C30.5586 23.1066 30.5588 23.1066 30.559 23.1066C30.5592 23.1066 30.5594 23.1066 30.5596 23.1066C30.5598 23.1066 30.56 23.1066 30.5601 23.1066C30.5603 23.1066 30.5605 23.1066 30.5607 23.1066C30.5609 23.1066 30.5611 23.1066 30.5613 23.1066C30.5615 23.1066 30.5616 23.1066 30.5618 23.1066C30.562 23.1066 30.5622 23.1066 30.5624 23.1066C30.5626 23.1066 30.5628 23.1066 30.563 23.1066C30.5631 23.1066 30.5633 23.1066 30.5635 23.1066C30.5637 23.1066 30.5639 23.1066 30.5641 23.1066C30.5643 23.1066 30.5645 23.1066 30.5647 23.1066C30.5648 23.1066 30.565 23.1066 30.5652 23.1066C30.5654 23.1066 30.5656 23.1066 30.5658 23.1066C30.566 23.1066 30.5662 23.1066 30.5664 23.1066C30.5665 23.1066 30.5667 23.1066 30.5669 23.1066C30.5671 23.1066 30.5673 23.1066 30.5675 23.1066C30.5677 23.1066 30.5679 23.1066 30.5681 23.1066C30.5682 23.1066 30.5684 23.1066 30.5686 23.1066C30.5688 23.1066 30.569 23.1066 30.5692 23.1066C30.5694 23.1066 30.5696 23.1066 30.5698 23.1066C30.57 23.1066 30.5701 23.1066 30.5703 23.1066C30.5705 23.1066 30.5707 23.1066 30.5709 23.1066C30.5711 23.1066 30.5713 23.1066 30.5715 23.1066C30.5717 23.1066 30.5719 23.1066 30.572 23.1066C30.5722 23.1066 30.5724 23.1066 30.5726 23.1066C30.5728 23.1066 30.573 23.1066 30.5732 23.1066C30.5734 23.1066 30.5736 23.1066 30.5738 23.1066C30.5739 23.1066 30.5741 23.1066 30.5743 23.1066C30.5745 23.1066 30.5747 23.1066 30.5749 23.1066C30.5751 23.1066 30.5753 23.1066 30.5755 23.1066C30.5757 23.1066 30.5759 23.1066 30.5761 23.1066C30.5762 23.1066 30.5764 23.1066 30.5766 23.1066C30.5768 23.1066 30.577 23.1066 30.5772 23.1066C30.5774 23.1066 30.5776 23.1066 30.5778 23.1066C30.578 23.1066 30.5782 23.1066 30.5784 23.1066C30.5785 23.1066 30.5787 23.1066 30.5789 23.1066C30.5791 23.1066 30.5793 23.1066 30.5795 23.1066C30.5797 23.1066 30.5799 23.1066 30.5801 23.1066C30.5803 23.1066 30.5805 23.1066 30.5807 23.1066C30.5809 23.1066 30.5811 23.1066 30.5812 23.1066C30.5814 23.1066 30.5816 23.1066 30.5818 23.1066C30.582 23.1066 30.5822 23.1066 30.5824 23.1066C30.5826 23.1066 30.5828 23.1066 30.583 23.1066C30.5832 23.1066 30.5834 23.1066 30.5836 23.1066C30.5838 23.1066 30.584 23.1066 30.5841 23.1066C30.5843 23.1066 30.5845 23.1066 30.5847 23.1066C30.5849 23.1066 30.5851 23.1066 30.5853 23.1066C30.5855 23.1066 30.5857 23.1066 30.5859 23.1066C30.5861 23.1066 30.5863 23.1066 30.5865 23.1066C30.5867 23.1066 30.5869 23.1066 30.5871 23.1066C30.5873 23.1066 30.5875 23.1066 30.5876 23.1066C30.5878 23.1066 30.588 23.1066 30.5882 23.1066C30.5884 23.1066 30.5886 23.1066 30.5888 23.1066C30.589 23.1066 30.5892 23.1066 30.5894 23.1066C30.5896 23.1066 30.5898 23.1066 30.59 23.1066C30.5902 23.1066 30.5904 23.1066 30.5906 23.1066C30.5908 23.1066 30.591 23.1066 30.5912 23.1066C30.5914 23.1066 30.5916 23.1066 30.5918 23.1066C30.592 23.1066 30.5921 23.1066 30.5923 23.1066C30.5925 23.1066 30.5927 23.1066 30.5929 23.1066C30.5931 23.1066 30.5933 23.1066 30.5935 23.1066C30.5937 23.1066 30.5939 23.1066 30.5941 23.1066C30.5943 23.1066 30.5945 23.1066 30.5947 23.1066C30.5949 23.1066 30.5951 23.1066 30.5953 23.1066C30.5955 23.1066 30.5957 23.1066 30.5959 23.1066C30.5961 23.1066 30.5963 23.1066 30.5965 23.1066C30.5967 23.1066 30.5969 23.1066 30.5971 23.1066C30.5973 23.1066 30.5975 23.1066 30.5977 23.1066C30.5979 23.1066 30.5981 23.1066 30.5983 23.1066C30.5985 23.1066 30.5987 23.1066 30.5989 23.1066C30.5991 23.1066 30.5993 23.1066 30.5995 23.1066C30.5997 23.1066 30.5999 23.1066 30.6001 23.1066C30.6003 23.1066 30.6005 23.1066 30.6007 23.1066C30.6009 23.1066 30.6011 23.1066 30.6013 23.1066C30.6015 23.1066 30.6017 23.1066 30.6019 23.1066C30.6021 23.1066 30.6023 23.1066 30.6025 23.1066C30.6027 23.1066 30.6029 23.1066 30.6031 23.1066C30.6033 23.1066 30.6035 23.1066 30.6037 23.1066C30.6039 23.1066 30.6041 23.1066 30.6043 23.1066C30.6045 23.1066 30.6047 23.1066 30.6049 23.1066C30.6051 23.1066 30.6053 23.1066 30.6055 23.1066C30.6057 23.1066 30.6059 23.1066 30.6061 23.1066C30.6063 23.1066 30.6065 23.1066 30.6067 23.1066C30.6069 23.1066 30.6071 23.1066 30.6073 23.1066C30.6075 23.1066 30.6077 23.1066 30.6079 23.1066C30.6081 23.1066 30.6083 23.1066 30.6085 23.1066C30.6087 23.1066 30.6089 23.1066 30.6091 23.1066C30.6093 23.1066 30.6095 23.1066 30.6097 23.1066C30.6099 23.1066 30.6101 23.1066 30.6103 23.1066C30.6105 23.1066 30.6107 23.1066 30.6109 23.1066C30.6111 23.1066 30.6113 23.1066 30.6115 23.1066C30.6117 23.1066 30.6119 23.1066 30.6121 23.1066C30.6123 23.1066 30.6125 23.1066 30.6127 23.1066C30.6129 23.1066 30.6132 23.1066 30.6134 23.1066C30.6136 23.1066 30.6138 23.1066 30.614 23.1066C30.6142 23.1066 30.6144 23.1066 30.6146 23.1066C30.6148 23.1066 30.615 23.1066 30.6152 23.1066C30.6154 23.1066 30.6156 23.1066 30.6158 23.1066C30.616 23.1066 30.6162 23.1066 30.6164 23.1066C30.6166 23.1066 30.6168 23.1066 30.617 23.1066C30.6172 23.1066 30.6174 23.1066 30.6177 23.1066C30.6179 23.1066 30.6181 23.1066 30.6183 23.1066C30.6185 23.1066 30.6187 23.1066 30.6189 23.1066C30.6191 23.1066 30.6193 23.1066 30.6195 23.1066C30.6197 23.1066 30.6199 23.1066 30.6201 23.1066C30.6203 23.1066 30.6205 23.1066 30.6207 23.1066C30.621 23.1066 30.6212 23.1066 30.6214 23.1066C30.6216 23.1066 30.6218 23.1066 30.622 23.1066C30.6222 23.1066 30.6224 23.1066 30.6226 23.1066C30.6228 23.1066 30.623 23.1066 30.6232 23.1066C30.6234 23.1066 30.6236 23.1066 30.6239 23.1066C30.6241 23.1066 30.6243 23.1066 30.6245 23.1066C30.6247 23.1066 30.6249 23.1066 30.6251 23.1066C30.6253 23.1066 30.6255 23.1066 30.6257 23.1066C30.6259 23.1066 30.6262 23.1066 30.6264 23.1066C30.6266 23.1066 30.6268 23.1066 30.627 23.1066C30.6272 23.1066 30.6274 23.1066 30.6276 23.1066C30.6278 23.1066 30.628 23.1066 30.6282 23.1066C30.6285 23.1066 30.6287 23.1066 30.6289 23.1066C30.6291 23.1066 30.6293 23.1066 30.6295 23.1066C30.6297 23.1066 30.6299 23.1066 30.6301 23.1066C30.6303 23.1066 30.6306 23.1066 30.6308 23.1066C30.631 23.1066 30.6312 23.1066 30.6314 23.1066C30.6316 23.1066 30.6318 23.1066 30.632 23.1066C30.6322 23.1066 30.6325 23.1066 30.6327 23.1066C30.6329 23.1066 30.6331 23.1066 30.6333 23.1066C30.6335 23.1066 30.6337 23.1066 30.6339 23.1066C30.6342 23.1066 30.6344 23.1066 30.6346 23.1066C30.6348 23.1066 30.635 23.1066 30.6352 23.1066C30.6354 23.1066 30.6356 23.1066 30.6359 23.1066C30.6361 23.1066 30.6363 23.1066 30.6365 23.1066C30.6367 23.1066 30.6369 23.1066 30.6371 23.1066C30.6373 23.1066 30.6376 23.1066 30.6378 23.1066C30.638 23.1066 30.6382 23.1066 30.6384 23.1066C30.6386 23.1066 30.6388 23.1066 30.6391 23.1066C30.6393 23.1066 30.6395 23.1066 30.6397 23.1066C30.6399 23.1066 30.6401 23.1066 30.6403 23.1066C30.6406 23.1066 30.6408 23.1066 30.641 23.1066C30.6412 23.1066 30.6414 23.1066 30.6416 23.1066V21.1066C30.6414 21.1066 30.6412 21.1066 30.641 21.1066C30.6408 21.1066 30.6406 21.1066 30.6403 21.1066C30.6401 21.1066 30.6399 21.1066 30.6397 21.1066C30.6395 21.1066 30.6393 21.1066 30.6391 21.1066C30.6388 21.1066 30.6386 21.1066 30.6384 21.1066C30.6382 21.1066 30.638 21.1066 30.6378 21.1066C30.6376 21.1066 30.6373 21.1066 30.6371 21.1066C30.6369 21.1066 30.6367 21.1066 30.6365 21.1066C30.6363 21.1066 30.6361 21.1066 30.6359 21.1066C30.6356 21.1066 30.6354 21.1066 30.6352 21.1066C30.635 21.1066 30.6348 21.1066 30.6346 21.1066C30.6344 21.1066 30.6342 21.1066 30.6339 21.1066C30.6337 21.1066 30.6335 21.1066 30.6333 21.1066C30.6331 21.1066 30.6329 21.1066 30.6327 21.1066C30.6325 21.1066 30.6322 21.1066 30.632 21.1066C30.6318 21.1066 30.6316 21.1066 30.6314 21.1066C30.6312 21.1066 30.631 21.1066 30.6308 21.1066C30.6306 21.1066 30.6303 21.1066 30.6301 21.1066C30.6299 21.1066 30.6297 21.1066 30.6295 21.1066C30.6293 21.1066 30.6291 21.1066 30.6289 21.1066C30.6287 21.1066 30.6285 21.1066 30.6282 21.1066C30.628 21.1066 30.6278 21.1066 30.6276 21.1066C30.6274 21.1066 30.6272 21.1066 30.627 21.1066C30.6268 21.1066 30.6266 21.1066 30.6264 21.1066C30.6262 21.1066 30.6259 21.1066 30.6257 21.1066C30.6255 21.1066 30.6253 21.1066 30.6251 21.1066C30.6249 21.1066 30.6247 21.1066 30.6245 21.1066C30.6243 21.1066 30.6241 21.1066 30.6239 21.1066C30.6236 21.1066 30.6234 21.1066 30.6232 21.1066C30.623 21.1066 30.6228 21.1066 30.6226 21.1066C30.6224 21.1066 30.6222 21.1066 30.622 21.1066C30.6218 21.1066 30.6216 21.1066 30.6214 21.1066C30.6212 21.1066 30.621 21.1066 30.6207 21.1066C30.6205 21.1066 30.6203 21.1066 30.6201 21.1066C30.6199 21.1066 30.6197 21.1066 30.6195 21.1066C30.6193 21.1066 30.6191 21.1066 30.6189 21.1066C30.6187 21.1066 30.6185 21.1066 30.6183 21.1066C30.6181 21.1066 30.6179 21.1066 30.6177 21.1066C30.6174 21.1066 30.6172 21.1066 30.617 21.1066C30.6168 21.1066 30.6166 21.1066 30.6164 21.1066C30.6162 21.1066 30.616 21.1066 30.6158 21.1066C30.6156 21.1066 30.6154 21.1066 30.6152 21.1066C30.615 21.1066 30.6148 21.1066 30.6146 21.1066C30.6144 21.1066 30.6142 21.1066 30.614 21.1066C30.6138 21.1066 30.6136 21.1066 30.6134 21.1066C30.6132 21.1066 30.6129 21.1066 30.6127 21.1066C30.6125 21.1066 30.6123 21.1066 30.6121 21.1066C30.6119 21.1066 30.6117 21.1066 30.6115 21.1066C30.6113 21.1066 30.6111 21.1066 30.6109 21.1066C30.6107 21.1066 30.6105 21.1066 30.6103 21.1066C30.6101 21.1066 30.6099 21.1066 30.6097 21.1066C30.6095 21.1066 30.6093 21.1066 30.6091 21.1066C30.6089 21.1066 30.6087 21.1066 30.6085 21.1066C30.6083 21.1066 30.6081 21.1066 30.6079 21.1066C30.6077 21.1066 30.6075 21.1066 30.6073 21.1066C30.6071 21.1066 30.6069 21.1066 30.6067 21.1066C30.6065 21.1066 30.6063 21.1066 30.6061 21.1066C30.6059 21.1066 30.6057 21.1066 30.6055 21.1066C30.6053 21.1066 30.6051 21.1066 30.6049 21.1066C30.6047 21.1066 30.6045 21.1066 30.6043 21.1066C30.6041 21.1066 30.6039 21.1066 30.6037 21.1066C30.6035 21.1066 30.6033 21.1066 30.6031 21.1066C30.6029 21.1066 30.6027 21.1066 30.6025 21.1066C30.6023 21.1066 30.6021 21.1066 30.6019 21.1066C30.6017 21.1066 30.6015 21.1066 30.6013 21.1066C30.6011 21.1066 30.6009 21.1066 30.6007 21.1066C30.6005 21.1066 30.6003 21.1066 30.6001 21.1066C30.5999 21.1066 30.5997 21.1066 30.5995 21.1066C30.5993 21.1066 30.5991 21.1066 30.5989 21.1066C30.5987 21.1066 30.5985 21.1066 30.5983 21.1066C30.5981 21.1066 30.5979 21.1066 30.5977 21.1066C30.5975 21.1066 30.5973 21.1066 30.5971 21.1066C30.5969 21.1066 30.5967 21.1066 30.5965 21.1066C30.5963 21.1066 30.5961 21.1066 30.5959 21.1066C30.5957 21.1066 30.5955 21.1066 30.5953 21.1066C30.5951 21.1066 30.5949 21.1066 30.5947 21.1066C30.5945 21.1066 30.5943 21.1066 30.5941 21.1066C30.5939 21.1066 30.5937 21.1066 30.5935 21.1066C30.5933 21.1066 30.5931 21.1066 30.5929 21.1066C30.5927 21.1066 30.5925 21.1066 30.5923 21.1066C30.5921 21.1066 30.592 21.1066 30.5918 21.1066C30.5916 21.1066 30.5914 21.1066 30.5912 21.1066C30.591 21.1066 30.5908 21.1066 30.5906 21.1066C30.5904 21.1066 30.5902 21.1066 30.59 21.1066C30.5898 21.1066 30.5896 21.1066 30.5894 21.1066C30.5892 21.1066 30.589 21.1066 30.5888 21.1066C30.5886 21.1066 30.5884 21.1066 30.5882 21.1066C30.588 21.1066 30.5878 21.1066 30.5876 21.1066C30.5875 21.1066 30.5873 21.1066 30.5871 21.1066C30.5869 21.1066 30.5867 21.1066 30.5865 21.1066C30.5863 21.1066 30.5861 21.1066 30.5859 21.1066C30.5857 21.1066 30.5855 21.1066 30.5853 21.1066C30.5851 21.1066 30.5849 21.1066 30.5847 21.1066C30.5845 21.1066 30.5843 21.1066 30.5841 21.1066C30.584 21.1066 30.5838 21.1066 30.5836 21.1066C30.5834 21.1066 30.5832 21.1066 30.583 21.1066C30.5828 21.1066 30.5826 21.1066 30.5824 21.1066C30.5822 21.1066 30.582 21.1066 30.5818 21.1066C30.5816 21.1066 30.5814 21.1066 30.5812 21.1066C30.5811 21.1066 30.5809 21.1066 30.5807 21.1066C30.5805 21.1066 30.5803 21.1066 30.5801 21.1066C30.5799 21.1066 30.5797 21.1066 30.5795 21.1066C30.5793 21.1066 30.5791 21.1066 30.5789 21.1066C30.5787 21.1066 30.5785 21.1066 30.5784 21.1066C30.5782 21.1066 30.578 21.1066 30.5778 21.1066C30.5776 21.1066 30.5774 21.1066 30.5772 21.1066C30.577 21.1066 30.5768 21.1066 30.5766 21.1066C30.5764 21.1066 30.5762 21.1066 30.5761 21.1066C30.5759 21.1066 30.5757 21.1066 30.5755 21.1066C30.5753 21.1066 30.5751 21.1066 30.5749 21.1066C30.5747 21.1066 30.5745 21.1066 30.5743 21.1066C30.5741 21.1066 30.5739 21.1066 30.5738 21.1066C30.5736 21.1066 30.5734 21.1066 30.5732 21.1066C30.573 21.1066 30.5728 21.1066 30.5726 21.1066C30.5724 21.1066 30.5722 21.1066 30.572 21.1066C30.5719 21.1066 30.5717 21.1066 30.5715 21.1066C30.5713 21.1066 30.5711 21.1066 30.5709 21.1066C30.5707 21.1066 30.5705 21.1066 30.5703 21.1066C30.5701 21.1066 30.57 21.1066 30.5698 21.1066C30.5696 21.1066 30.5694 21.1066 30.5692 21.1066C30.569 21.1066 30.5688 21.1066 30.5686 21.1066C30.5684 21.1066 30.5682 21.1066 30.5681 21.1066C30.5679 21.1066 30.5677 21.1066 30.5675 21.1066C30.5673 21.1066 30.5671 21.1066 30.5669 21.1066C30.5667 21.1066 30.5665 21.1066 30.5664 21.1066C30.5662 21.1066 30.566 21.1066 30.5658 21.1066C30.5656 21.1066 30.5654 21.1066 30.5652 21.1066C30.565 21.1066 30.5648 21.1066 30.5647 21.1066C30.5645 21.1066 30.5643 21.1066 30.5641 21.1066C30.5639 21.1066 30.5637 21.1066 30.5635 21.1066C30.5633 21.1066 30.5631 21.1066 30.563 21.1066C30.5628 21.1066 30.5626 21.1066 30.5624 21.1066C30.5622 21.1066 30.562 21.1066 30.5618 21.1066C30.5616 21.1066 30.5615 21.1066 30.5613 21.1066C30.5611 21.1066 30.5609 21.1066 30.5607 21.1066C30.5605 21.1066 30.5603 21.1066 30.5601 21.1066C30.56 21.1066 30.5598 21.1066 30.5596 21.1066C30.5594 21.1066 30.5592 21.1066 30.559 21.1066C30.5588 21.1066 30.5586 21.1066 30.5585 21.1066C30.5583 21.1066 30.5581 21.1066 30.5579 21.1066C30.5577 21.1066 30.5575 21.1066 30.5573 21.1066C30.5571 21.1066 30.557 21.1066 30.5568 21.1066C30.5566 21.1066 30.5564 21.1066 30.5562 21.1066C30.556 21.1066 30.5558 21.1066 30.5557 21.1066C30.5555 21.1066 30.5553 21.1066 30.5551 21.1066C30.5549 21.1066 30.5547 21.1066 30.5545 21.1066C30.5544 21.1066 30.5542 21.1066 30.554 21.1066C30.5538 21.1066 30.5536 21.1066 30.5534 21.1066C30.5532 21.1066 30.5531 21.1066 30.5529 21.1066C30.5527 21.1066 30.5525 21.1066 30.5523 21.1066C30.5521 21.1066 30.5519 21.1066 30.5518 21.1066C30.5516 21.1066 30.5514 21.1066 30.5512 21.1066C30.551 21.1066 30.5508 21.1066 30.5506 21.1066C30.5505 21.1066 30.5503 21.1066 30.5501 21.1066C30.5499 21.1066 30.5497 21.1066 30.5495 21.1066C30.5493 21.1066 30.5492 21.1066 30.549 21.1066C30.5488 21.1066 30.5486 21.1066 30.5484 21.1066C30.5482 21.1066 30.548 21.1066 30.5479 21.1066C30.5477 21.1066 30.5475 21.1066 30.5473 21.1066C30.5471 21.1066 30.5469 21.1066 30.5468 21.1066C30.5466 21.1066 30.5464 21.1066 30.5462 21.1066C30.546 21.1066 30.5458 21.1066 30.5456 21.1066C30.5455 21.1066 30.5453 21.1066 30.5451 21.1066C30.5449 21.1066 30.5447 21.1066 30.5445 21.1066C30.5444 21.1066 30.5442 21.1066 30.544 21.1066C30.5438 21.1066 30.5436 21.1066 30.5434 21.1066C30.5433 21.1066 30.5431 21.1066 30.5429 21.1066C30.5427 21.1066 30.5425 21.1066 30.5423 21.1066C30.5422 21.1066 30.542 21.1066 30.5418 21.1066C30.5416 21.1066 30.5414 21.1066 30.5412 21.1066C30.541 21.1066 30.5409 21.1066 30.5407 21.1066C30.5405 21.1066 30.5403 21.1066 30.5401 21.1066C30.5399 21.1066 30.5398 21.1066 30.5396 21.1066C30.5394 21.1066 30.5392 21.1066 30.539 21.1066C30.5388 21.1066 30.5387 21.1066 30.5385 21.1066C30.5383 21.1066 30.5381 21.1066 30.5379 21.1066C30.5378 21.1066 30.5376 21.1066 30.5374 21.1066C30.5372 21.1066 30.537 21.1066 30.5368 21.1066C30.5367 21.1066 30.5365 21.1066 30.5363 21.1066C30.5361 21.1066 30.5359 21.1066 30.5357 21.1066C30.5356 21.1066 30.5354 21.1066 30.5352 21.1066C30.535 21.1066 30.5348 21.1066 30.5346 21.1066C30.5345 21.1066 30.5343 21.1066 30.5341 21.1066C30.5339 21.1066 30.5337 21.1066 30.5335 21.1066C30.5334 21.1066 30.5332 21.1066 30.533 21.1066C30.5328 21.1066 30.5326 21.1066 30.5325 21.1066C30.5323 21.1066 30.5321 21.1066 30.5319 21.1066C30.5317 21.1066 30.5315 21.1066 30.5314 21.1066C30.5312 21.1066 30.531 21.1066 30.5308 21.1066C30.5306 21.1066 30.5305 21.1066 30.5303 21.1066C30.5301 21.1066 30.5299 21.1066 30.5297 21.1066C30.5295 21.1066 30.5294 21.1066 30.5292 21.1066C30.529 21.1066 30.5288 21.1066 30.5286 21.1066C30.5285 21.1066 30.5283 21.1066 30.5281 21.1066C30.5279 21.1066 30.5277 21.1066 30.5275 21.1066C30.5274 21.1066 30.5272 21.1066 30.527 21.1066C30.5268 21.1066 30.5266 21.1066 30.5265 21.1066C30.5263 21.1066 30.5261 21.1066 30.5259 21.1066C30.5257 21.1066 30.5255 21.1066 30.5254 21.1066C30.5252 21.1066 30.525 21.1066 30.5248 21.1066C30.5246 21.1066 30.5245 21.1066 30.5243 21.1066C30.5241 21.1066 30.5239 21.1066 30.5237 21.1066C30.5236 21.1066 30.5234 21.1066 30.5232 21.1066C30.523 21.1066 30.5228 21.1066 30.5226 21.1066C30.5225 21.1066 30.5223 21.1066 30.5221 21.1066C30.5219 21.1066 30.5217 21.1066 30.5216 21.1066C30.5214 21.1066 30.5212 21.1066 30.521 21.1066C30.5208 21.1066 30.5207 21.1066 30.5205 21.1066C30.5203 21.1066 30.5201 21.1066 30.5199 21.1066C30.5198 21.1066 30.5196 21.1066 30.5194 21.1066C30.5192 21.1066 30.519 21.1066 30.5189 21.1066C30.5187 21.1066 30.5185 21.1066 30.5183 21.1066C30.5181 21.1066 30.5179 21.1066 30.5178 21.1066C30.5176 21.1066 30.5174 21.1066 30.5172 21.1066C30.517 21.1066 30.5169 21.1066 30.5167 21.1066C30.5165 21.1066 30.5163 21.1066 30.5161 21.1066C30.516 21.1066 30.5158 21.1066 30.5156 21.1066C30.5154 21.1066 30.5152 21.1066 30.5151 21.1066C30.5149 21.1066 30.5147 21.1066 30.5145 21.1066C30.5143 21.1066 30.5142 21.1066 30.514 21.1066C30.5138 21.1066 30.5136 21.1066 30.5134 21.1066C30.5133 21.1066 30.5131 21.1066 30.5129 21.1066C30.5127 21.1066 30.5125 21.1066 30.5124 21.1066C30.5122 21.1066 30.512 21.1066 30.5118 21.1066C30.5116 21.1066 30.5115 21.1066 30.5113 21.1066C30.5111 21.1066 30.5109 21.1066 30.5107 21.1066C30.5106 21.1066 30.5104 21.1066 30.5102 21.1066C30.51 21.1066 30.5098 21.1066 30.5097 21.1066C30.5095 21.1066 30.5093 21.1066 30.5091 21.1066C30.5089 21.1066 30.5088 21.1066 30.5086 21.1066C30.5084 21.1066 30.5082 21.1066 30.508 21.1066C30.5079 21.1066 30.5077 21.1066 30.5075 21.1066C30.5073 21.1066 30.5071 21.1066 30.507 21.1066C30.5068 21.1066 30.5066 21.1066 30.5064 21.1066C30.5062 21.1066 30.5061 21.1066 30.5059 21.1066C30.5057 21.1066 30.5055 21.1066 30.5053 21.1066C30.5052 21.1066 30.505 21.1066 30.5048 21.1066C30.5046 21.1066 30.5044 21.1066 30.5043 21.1066C30.5041 21.1066 30.5039 21.1066 30.5037 21.1066C30.5035 21.1066 30.5034 21.1066 30.5032 21.1066C30.503 21.1066 30.5028 21.1066 30.5026 21.1066C30.5025 21.1066 30.5023 21.1066 30.5021 21.1066C30.5019 21.1066 30.5017 21.1066 30.5016 21.1066C30.5014 21.1066 30.5012 21.1066 30.501 21.1066C30.5009 21.1066 30.5007 21.1066 30.5005 21.1066C30.5003 21.1066 30.5001 21.1066 30.5 21.1066C30.4998 21.1066 30.4996 21.1066 30.4994 21.1066C30.4992 21.1066 30.4991 21.1066 30.4989 21.1066C30.4987 21.1066 30.4985 21.1066 30.4983 21.1066C30.4982 21.1066 30.498 21.1066 30.4978 21.1066C30.4976 21.1066 30.4974 21.1066 30.4973 21.1066C30.4971 21.1066 30.4969 21.1066 30.4967 21.1066C30.4965 21.1066 30.4964 21.1066 30.4962 21.1066C30.496 21.1066 30.4958 21.1066 30.4956 21.1066C30.4955 21.1066 30.4953 21.1066 30.4951 21.1066C30.4949 21.1066 30.4947 21.1066 30.4946 21.1066C30.4944 21.1066 30.4942 21.1066 30.494 21.1066C30.4938 21.1066 30.4937 21.1066 30.4935 21.1066C30.4933 21.1066 30.4931 21.1066 30.493 21.1066C30.4928 21.1066 30.4926 21.1066 30.4924 21.1066C30.4922 21.1066 30.4921 21.1066 30.4919 21.1066C30.4917 21.1066 30.4915 21.1066 30.4913 21.1066C30.4912 21.1066 30.491 21.1066 30.4908 21.1066C30.4906 21.1066 30.4904 21.1066 30.4903 21.1066C30.4901 21.1066 30.4899 21.1066 30.4897 21.1066C30.4895 21.1066 30.4894 21.1066 30.4892 21.1066C30.489 21.1066 30.4888 21.1066 30.4886 21.1066C30.4885 21.1066 30.4883 21.1066 30.4881 21.1066C30.4879 21.1066 30.4877 21.1066 30.4876 21.1066C30.4874 21.1066 30.4872 21.1066 30.487 21.1066C30.4868 21.1066 30.4867 21.1066 30.4865 21.1066C30.4863 21.1066 30.4861 21.1066 30.4859 21.1066C30.4858 21.1066 30.4856 21.1066 30.4854 21.1066C30.4852 21.1066 30.485 21.1066 30.4849 21.1066C30.4847 21.1066 30.4845 21.1066 30.4843 21.1066C30.4841 21.1066 30.484 21.1066 30.4838 21.1066C30.4836 21.1066 30.4834 21.1066 30.4833 21.1066C30.4831 21.1066 30.4829 21.1066 30.4827 21.1066C30.4825 21.1066 30.4824 21.1066 30.4822 21.1066C30.482 21.1066 30.4818 21.1066 30.4816 21.1066C30.4815 21.1066 30.4813 21.1066 30.4811 21.1066C30.4809 21.1066 30.4807 21.1066 30.4806 21.1066C30.4804 21.1066 30.4802 21.1066 30.48 21.1066C30.4798 21.1066 30.4797 21.1066 30.4795 21.1066C30.4793 21.1066 30.4791 21.1066 30.4789 21.1066C30.4788 21.1066 30.4786 21.1066 30.4784 21.1066C30.4782 21.1066 30.478 21.1066 30.4779 21.1066C30.4777 21.1066 30.4775 21.1066 30.4773 21.1066C30.4771 21.1066 30.477 21.1066 30.4768 21.1066C30.4766 21.1066 30.4764 21.1066 30.4762 21.1066C30.4761 21.1066 30.4759 21.1066 30.4757 21.1066C30.4755 21.1066 30.4753 21.1066 30.4752 21.1066C30.475 21.1066 30.4748 21.1066 30.4746 21.1066C30.4744 21.1066 30.4742 21.1066 30.4741 21.1066C30.4739 21.1066 30.4737 21.1066 30.4735 21.1066C30.4733 21.1066 30.4732 21.1066 30.473 21.1066C30.4728 21.1066 30.4726 21.1066 30.4724 21.1066C30.4723 21.1066 30.4721 21.1066 30.4719 21.1066C30.4717 21.1066 30.4715 21.1066 30.4714 21.1066C30.4712 21.1066 30.471 21.1066 30.4708 21.1066C30.4706 21.1066 30.4705 21.1066 30.4703 21.1066C30.4701 21.1066 30.4699 21.1066 30.4697 21.1066C30.4696 21.1066 30.4694 21.1066 30.4692 21.1066C30.469 21.1066 30.4688 21.1066 30.4687 21.1066C30.4685 21.1066 30.4683 21.1066 30.4681 21.1066C30.4679 21.1066 30.4677 21.1066 30.4676 21.1066C30.4674 21.1066 30.4672 21.1066 30.467 21.1066C30.4668 21.1066 30.4667 21.1066 30.4665 21.1066C30.4663 21.1066 30.4661 21.1066 30.4659 21.1066C30.4658 21.1066 30.4656 21.1066 30.4654 21.1066C30.4652 21.1066 30.465 21.1066 30.4649 21.1066C30.4647 21.1066 30.4645 21.1066 30.4643 21.1066C30.4641 21.1066 30.4639 21.1066 30.4638 21.1066C30.4636 21.1066 30.4634 21.1066 30.4632 21.1066C30.463 21.1066 30.4629 21.1066 30.4627 21.1066C30.4625 21.1066 30.4623 21.1066 30.4621 21.1066C30.462 21.1066 30.4618 21.1066 30.4616 21.1066C30.4614 21.1066 30.4612 21.1066 30.461 21.1066C30.4609 21.1066 30.4607 21.1066 30.4605 21.1066C30.4603 21.1066 30.4601 21.1066 30.46 21.1066C30.4598 21.1066 30.4596 21.1066 30.4594 21.1066C30.4592 21.1066 30.459 21.1066 30.4589 21.1066C30.4587 21.1066 30.4585 21.1066 30.4583 21.1066C30.4581 21.1066 30.458 21.1066 30.4578 21.1066C30.4576 21.1066 30.4574 21.1066 30.4572 21.1066C30.457 21.1066 30.4569 21.1066 30.4567 21.1066C30.4565 21.1066 30.4563 21.1066 30.4561 21.1066C30.4559 21.1066 30.4558 21.1066 30.4556 21.1066C30.4554 21.1066 30.4552 21.1066 30.455 21.1066C30.4549 21.1066 30.4547 21.1066 30.4545 21.1066C30.4543 21.1066 30.4541 21.1066 30.4539 21.1066C30.4538 21.1066 30.4536 21.1066 30.4534 21.1066C30.4532 21.1066 30.453 21.1066 30.4528 21.1066C30.4527 21.1066 30.4525 21.1066 30.4523 21.1066C30.4521 21.1066 30.4519 21.1066 30.4517 21.1066C30.4516 21.1066 30.4514 21.1066 30.4512 21.1066C30.451 21.1066 30.4508 21.1066 30.4506 21.1066C30.4505 21.1066 30.4503 21.1066 30.4501 21.1066C30.4499 21.1066 30.4497 21.1066 30.4495 21.1066C30.4494 21.1066 30.4492 21.1066 30.449 21.1066C30.4488 21.1066 30.4486 21.1066 30.4485 21.1066C30.4483 21.1066 30.4481 21.1066 30.4479 21.1066C30.4477 21.1066 30.4475 21.1066 30.4473 21.1066C30.4472 21.1066 30.447 21.1066 30.4468 21.1066C30.4466 21.1066 30.4464 21.1066 30.4462 21.1066C30.4461 21.1066 30.4459 21.1066 30.4457 21.1066C30.4455 21.1066 30.4453 21.1066 30.4451 21.1066C30.445 21.1066 30.4448 21.1066 30.4446 21.1066C30.4444 21.1066 30.4442 21.1066 30.444 21.1066C30.4439 21.1066 30.4437 21.1066 30.4435 21.1066C30.4433 21.1066 30.4431 21.1066 30.4429 21.1066C30.4427 21.1066 30.4426 21.1066 30.4424 21.1066C30.4422 21.1066 30.442 21.1066 30.4418 21.1066C30.4416 21.1066 30.4415 21.1066 30.4413 21.1066C30.4411 21.1066 30.4409 21.1066 30.4407 21.1066C30.4405 21.1066 30.4403 21.1066 30.4402 21.1066C30.44 21.1066 30.4398 21.1066 30.4396 21.1066C30.4394 21.1066 30.4392 21.1066 30.439 21.1066C30.4389 21.1066 30.4387 21.1066 30.4385 21.1066C30.4383 21.1066 30.4381 21.1066 30.4379 21.1066C30.4378 21.1066 30.4376 21.1066 30.4374 21.1066C30.4372 21.1066 30.437 21.1066 30.4368 21.1066C30.4366 21.1066 30.4365 21.1066 30.4363 21.1066C30.4361 21.1066 30.4359 21.1066 30.4357 21.1066C30.4355 21.1066 30.4353 21.1066 30.4352 21.1066C30.435 21.1066 30.4348 21.1066 30.4346 21.1066C30.4344 21.1066 30.4342 21.1066 30.434 21.1066C30.4338 21.1066 30.4337 21.1066 30.4335 21.1066C30.4333 21.1066 30.4331 21.1066 30.4329 21.1066C30.4327 21.1066 30.4325 21.1066 30.4324 21.1066C30.4322 21.1066 30.432 21.1066 30.4318 21.1066C30.4316 21.1066 30.4314 21.1066 30.4312 21.1066C30.431 21.1066 30.4309 21.1066 30.4307 21.1066C30.4305 21.1066 30.4303 21.1066 30.4301 21.1066C30.4299 21.1066 30.4297 21.1066 30.4296 21.1066C30.4294 21.1066 30.4292 21.1066 30.429 21.1066C30.4288 21.1066 30.4286 21.1066 30.4284 21.1066C30.4282 21.1066 30.4281 21.1066 30.4279 21.1066C30.4277 21.1066 30.4275 21.1066 30.4273 21.1066C30.4271 21.1066 30.4269 21.1066 30.4267 21.1066C30.4265 21.1066 30.4264 21.1066 30.4262 21.1066C30.426 21.1066 30.4258 21.1066 30.4256 21.1066C30.4254 21.1066 30.4252 21.1066 30.425 21.1066C30.4249 21.1066 30.4247 21.1066 30.4245 21.1066C30.4243 21.1066 30.4241 21.1066 30.4239 21.1066C30.4237 21.1066 30.4235 21.1066 30.4233 21.1066C30.4232 21.1066 30.423 21.1066 30.4228 21.1066C30.4226 21.1066 30.4224 21.1066 30.4222 21.1066C30.422 21.1066 30.4218 21.1066 30.4216 21.1066C30.4215 21.1066 30.4213 21.1066 30.4211 21.1066C30.4209 21.1066 30.4207 21.1066 30.4205 21.1066C30.4203 21.1066 30.4201 21.1066 30.4199 21.1066C30.4198 21.1066 30.4196 21.1066 30.4194 21.1066C30.4192 21.1066 30.419 21.1066 30.4188 21.1066C30.4186 21.1066 30.4184 21.1066 30.4182 21.1066C30.418 21.1066 30.4179 21.1066 30.4177 21.1066C30.4175 21.1066 30.4173 21.1066 30.4171 21.1066C30.4169 21.1066 30.4167 21.1066 30.4165 21.1066C30.4163 21.1066 30.4161 21.1066 30.4159 21.1066C30.4158 21.1066 30.4156 21.1066 30.4154 21.1066C30.4152 21.1066 30.415 21.1066 30.4148 21.1066C30.4146 21.1066 30.4144 21.1066 30.4142 21.1066C30.414 21.1066 30.4138 21.1066 30.4137 21.1066C30.4135 21.1066 30.4133 21.1066 30.4131 21.1066C30.4129 21.1066 30.4127 21.1066 30.4125 21.1066C30.4123 21.1066 30.4121 21.1066 30.4119 21.1066C30.4117 21.1066 30.4115 21.1066 30.4114 21.1066C30.4112 21.1066 30.411 21.1066 30.4108 21.1066C30.4106 21.1066 30.4104 21.1066 30.4102 21.1066C30.41 21.1066 30.4098 21.1066 30.4096 21.1066C30.4094 21.1066 30.4092 21.1066 30.409 21.1066C30.4089 21.1066 30.4087 21.1066 30.4085 21.1066C30.4083 21.1066 30.4081 21.1066 30.4079 21.1066C30.4077 21.1066 30.4075 21.1066 30.4073 21.1066C30.4071 21.1066 30.4069 21.1066 30.4067 21.1066C30.4065 21.1066 30.4063 21.1066 30.4061 21.1066C30.406 21.1066 30.4058 21.1066 30.4056 21.1066C30.4054 21.1066 30.4052 21.1066 30.405 21.1066C30.4048 21.1066 30.4046 21.1066 30.4044 21.1066C30.4042 21.1066 30.404 21.1066 30.4038 21.1066C30.4036 21.1066 30.4034 21.1066 30.4032 21.1066C30.403 21.1066 30.4028 21.1066 30.4027 21.1066C30.4025 21.1066 30.4023 21.1066 30.4021 21.1066C30.4019 21.1066 30.4017 21.1066 30.4015 21.1066C30.4013 21.1066 30.4011 21.1066 30.4009 21.1066C30.4007 21.1066 30.4005 21.1066 30.4003 21.1066C30.4001 21.1066 30.3999 21.1066 30.3997 21.1066C30.3995 21.1066 30.3993 21.1066 30.3991 21.1066C30.3989 21.1066 30.3987 21.1066 30.3986 21.1066C30.3984 21.1066 30.3982 21.1066 30.398 21.1066C30.3978 21.1066 30.3976 21.1066 30.3974 21.1066C30.3972 21.1066 30.397 21.1066 30.3968 21.1066C30.3966 21.1066 30.3964 21.1066 30.3962 21.1066C30.396 21.1066 30.3958 21.1066 30.3956 21.1066C30.3954 21.1066 30.3952 21.1066 30.395 21.1066C30.3948 21.1066 30.3946 21.1066 30.3944 21.1066C30.3942 21.1066 30.394 21.1066 30.3938 21.1066C30.3936 21.1066 30.3934 21.1066 30.3932 21.1066C30.393 21.1066 30.3928 21.1066 30.3926 21.1066C30.3924 21.1066 30.3923 21.1066 30.3921 21.1066C30.3919 21.1066 30.3917 21.1066 30.3915 21.1066C30.3913 21.1066 30.3911 21.1066 30.3909 21.1066C30.3907 21.1066 30.3905 21.1066 30.3903 21.1066C30.3901 21.1066 30.3899 21.1066 30.3897 21.1066C30.3895 21.1066 30.3893 21.1066 30.3891 21.1066C30.3889 21.1066 30.3887 21.1066 30.3885 21.1066C30.3883 21.1066 30.3881 21.1066 30.3879 21.1066C30.3877 21.1066 30.3875 21.1066 30.3873 21.1066C30.3871 21.1066 30.3869 21.1066 30.3867 21.1066C30.3865 21.1066 30.3863 21.1066 30.3861 21.1066C30.3859 21.1066 30.3857 21.1066 30.3855 21.1066C30.3853 21.1066 30.3851 21.1066 30.3849 21.1066C30.3847 21.1066 30.3845 21.1066 30.3843 21.1066C30.3841 21.1066 30.3839 21.1066 30.3837 21.1066C30.3835 21.1066 30.3833 21.1066 30.3831 21.1066C30.3829 21.1066 30.3827 21.1066 30.3825 21.1066C30.3823 21.1066 30.3821 21.1066 30.3819 21.1066C30.3817 21.1066 30.3815 21.1066 30.3813 21.1066C30.3811 21.1066 30.3809 21.1066 30.3806 21.1066C30.3804 21.1066 30.3802 21.1066 30.38 21.1066C30.3798 21.1066 30.3796 21.1066 30.3794 21.1066C30.3792 21.1066 30.379 21.1066 30.3788 21.1066C30.3786 21.1066 30.3784 21.1066 30.3782 21.1066C30.378 21.1066 30.3778 21.1066 30.3776 21.1066C30.3774 21.1066 30.3772 21.1066 30.377 21.1066C30.3768 21.1066 30.3766 21.1066 30.3764 21.1066C30.3762 21.1066 30.376 21.1066 30.3758 21.1066C30.3756 21.1066 30.3754 21.1066 30.3752 21.1066C30.375 21.1066 30.3748 21.1066 30.3746 21.1066C30.3743 21.1066 30.3741 21.1066 30.3739 21.1066C30.3737 21.1066 30.3735 21.1066 30.3733 21.1066C30.3731 21.1066 30.3729 21.1066 30.3727 21.1066C30.3725 21.1066 30.3723 21.1066 30.3721 21.1066C30.3719 21.1066 30.3717 21.1066 30.3715 21.1066C30.3713 21.1066 30.3711 21.1066 30.3709 21.1066C30.3707 21.1066 30.3704 21.1066 30.3702 21.1066C30.37 21.1066 30.3698 21.1066 30.3696 21.1066C30.3694 21.1066 30.3692 21.1066 30.369 21.1066C30.3688 21.1066 30.3686 21.1066 30.3684 21.1066C30.3682 21.1066 30.368 21.1066 30.3678 21.1066C30.3676 21.1066 30.3674 21.1066 30.3671 21.1066C30.3669 21.1066 30.3667 21.1066 30.3665 21.1066C30.3663 21.1066 30.3661 21.1066 30.3659 21.1066C30.3657 21.1066 30.3655 21.1066 30.3653 21.1066C30.3651 21.1066 30.3649 21.1066 30.3646 21.1066C30.3644 21.1066 30.3642 21.1066 30.364 21.1066C30.3638 21.1066 30.3636 21.1066 30.3634 21.1066C30.3632 21.1066 30.363 21.1066 30.3628 21.1066C30.3626 21.1066 30.3624 21.1066 30.3621 21.1066C30.3619 21.1066 30.3617 21.1066 30.3615 21.1066C30.3613 21.1066 30.3611 21.1066 30.3609 21.1066C30.3607 21.1066 30.3605 21.1066 30.3603 21.1066C30.36 21.1066 30.3598 21.1066 30.3596 21.1066C30.3594 21.1066 30.3592 21.1066 30.359 21.1066C30.3588 21.1066 30.3586 21.1066 30.3584 21.1066C30.3582 21.1066 30.3579 21.1066 30.3577 21.1066C30.3575 21.1066 30.3573 21.1066 30.3571 21.1066C30.3569 21.1066 30.3567 21.1066 30.3565 21.1066C30.3563 21.1066 30.356 21.1066 30.3558 21.1066C30.3556 21.1066 30.3554 21.1066 30.3552 21.1066C30.355 21.1066 30.3548 21.1066 30.3546 21.1066C30.3543 21.1066 30.3541 21.1066 30.3539 21.1066C30.3537 21.1066 30.3535 21.1066 30.3533 21.1066C30.3531 21.1066 30.3529 21.1066 30.3526 21.1066C30.3524 21.1066 30.3522 21.1066 30.352 21.1066C30.3518 21.1066 30.3516 21.1066 30.3514 21.1066C30.3511 21.1066 30.3509 21.1066 30.3507 21.1066C30.3505 21.1066 30.3503 21.1066 30.3501 21.1066C30.3499 21.1066 30.3496 21.1066 30.3494 21.1066C30.3492 21.1066 30.349 21.1066 30.3488 21.1066C30.3486 21.1066 30.3484 21.1066 30.3481 21.1066C30.3479 21.1066 30.3477 21.1066 30.3475 21.1066V23.1066ZM29.9077 21.4274L29.5401 21.8246L31.0079 23.1831L31.3755 22.7859L29.9077 21.4274ZM32.1797 19.6403C31.7809 20.2013 31.0934 20.5769 30.3107 20.5769V22.5769C31.7341 22.5769 33.032 21.8933 33.8098 20.799L32.1797 19.6403ZM30.3107 20.5769C29.8735 20.5769 29.5132 20.4795 29.222 20.298L28.164 21.9952C28.8286 22.4095 29.5714 22.5769 30.3107 22.5769V20.5769ZM29.1834 20.2751C28.1606 19.6995 27.9435 18.6236 28.485 17.8435L26.842 16.7031C25.5451 18.5714 26.2839 20.9384 28.2025 22.0181L29.1834 20.2751ZM28.4785 17.8527C28.8773 17.2917 29.5648 16.916 30.3475 16.916V14.916C28.9241 14.916 27.6262 15.5997 26.8484 16.6939L28.4785 17.8527ZM30.3475 16.916C30.7847 16.916 31.145 17.0134 31.4363 17.195L32.4943 15.4977C31.8296 15.0834 31.0868 14.916 30.3475 14.916V16.916ZM31.4748 17.2179C32.4761 17.7813 32.6988 18.8604 32.1626 19.6651L33.8269 20.7742C35.0555 18.9305 34.3958 16.5667 32.4557 15.4749L31.4748 17.2179Z" fill="white" mask="url(#path-6-inside-3)"/>
<mask id="path-8-inside-4" fill="white">
<path d="M29.7219 16.4457C28.9865 16.6112 28.3615 17.0084 27.957 17.6041L28.435 17.8689C28.7659 17.4055 29.2439 17.0746 29.8689 16.9422C30.4572 16.8098 31.0823 16.9091 31.597 17.1739L31.8911 16.7436C31.2293 16.3795 30.4572 16.2803 29.7219 16.4457Z"/>
</mask>
<path d="M29.7219 16.4457C28.9865 16.6112 28.3615 17.0084 27.957 17.6041L28.435 17.8689C28.7659 17.4055 29.2439 17.0746 29.8689 16.9422C30.4572 16.8098 31.0823 16.9091 31.597 17.1739L31.8911 16.7436C31.2293 16.3795 30.4572 16.2803 29.7219 16.4457Z" fill="white"/>
<path d="M27.957 17.6041L27.1297 17.0424L26.5147 17.9483L27.4725 18.4789L27.957 17.6041ZM28.435 17.8689L27.9504 18.7436L28.7305 19.1758L29.2488 18.4501L28.435 17.8689ZM29.8689 16.9422L30.0762 17.9206L30.0885 17.9178L29.8689 16.9422ZM31.597 17.1739L31.1396 18.0631L31.9244 18.4668L32.4225 17.7382L31.597 17.1739ZM31.8911 16.7436L32.7167 17.308L33.3385 16.3984L32.3731 15.8674L31.8911 16.7436ZM29.5023 15.4701C28.5491 15.6846 27.6932 16.2124 27.1297 17.0424L28.7844 18.1658C29.0298 17.8043 29.4239 17.5378 29.9414 17.4213L29.5023 15.4701ZM27.4725 18.4789L27.9504 18.7436L28.9196 16.9941L28.4416 16.7294L27.4725 18.4789ZM29.2488 18.4501C29.4361 18.1878 29.6989 18.0004 30.0761 17.9205L29.6617 15.9639C28.7889 16.1487 28.0957 16.6233 27.6212 17.2877L29.2488 18.4501ZM30.0885 17.9178C30.4305 17.8408 30.8169 17.8971 31.1396 18.0631L32.0544 16.2846C31.3476 15.9211 30.484 15.7788 29.6494 15.9666L30.0885 17.9178ZM32.4225 17.7382L32.7167 17.308L31.0656 16.1792L30.7715 16.6095L32.4225 17.7382ZM32.3731 15.8674C31.4893 15.3812 30.4666 15.2531 29.5023 15.4701L29.9414 17.4213C30.4478 17.3074 30.9694 17.3778 31.4092 17.6198L32.3731 15.8674Z" fill="white" mask="url(#path-8-inside-4)"/>
</g>
<defs>
<clipPath id="clip0">
<rect width="22" height="21.485" fill="white" transform="translate(12 12.1753)"/>
</clipPath>
</defs>
</svg>
