<svg width="45" height="45" viewBox="0 0 45 45" fill="none" xmlns="http://www.w3.org/2000/svg">
<circle cx="22.5" cy="22.5" r="22.5" fill="#FF9900" fill-opacity="0.86"/>
<path d="M14.6348 12.1625C14.5927 12.2046 14.5593 12.2546 14.5365 12.3096C14.5137 12.3646 14.502 12.4236 14.502 12.4831C14.502 12.5427 14.5137 12.6016 14.5365 12.6566C14.5593 12.7116 14.5927 12.7616 14.6348 12.8037L18.6359 16.8071C18.721 16.8921 18.8363 16.9398 18.9565 16.9398C19.0768 16.9398 19.1921 16.8921 19.2771 16.8071C19.3621 16.722 19.4099 16.6067 19.4099 16.4865C19.4099 16.3662 19.3621 16.2509 19.2771 16.1659L15.2738 12.1625C15.1889 12.0781 15.074 12.0308 14.9543 12.0308C14.8346 12.0308 14.7197 12.0781 14.6348 12.1625Z" fill="white"/>
<path d="M27.5664 14.3715V8.78223C27.5664 8.66205 27.5187 8.5468 27.4337 8.46182C27.3487 8.37684 27.2335 8.3291 27.1133 8.3291C26.9931 8.3291 26.8779 8.37684 26.7929 8.46182C26.7079 8.5468 26.6602 8.66205 26.6602 8.78223V14.3715C26.6602 14.4917 26.7079 14.607 26.7929 14.6919C26.8779 14.7769 26.9931 14.8246 27.1133 14.8246C27.2335 14.8246 27.3487 14.7769 27.4337 14.6919C27.5187 14.607 27.5664 14.4917 27.5664 14.3715Z" fill="white"/>
<path d="M20.5409 6.34428C20.526 6.28656 20.4999 6.23233 20.4641 6.1847C20.4282 6.13706 20.3834 6.09695 20.332 6.06666C20.2807 6.03636 20.2239 6.01648 20.1649 6.00813C20.1059 5.99979 20.0458 6.00315 19.9881 6.01803C19.9304 6.0329 19.8761 6.059 19.8285 6.09483C19.7809 6.13067 19.7408 6.17553 19.7105 6.22686C19.6802 6.2782 19.6603 6.33499 19.6519 6.39401C19.6436 6.45303 19.6469 6.51312 19.6618 6.57084L21.0212 12.0083C21.0361 12.0661 21.0622 12.1203 21.098 12.1679C21.1338 12.2156 21.1787 12.2557 21.23 12.286C21.2814 12.3162 21.3382 12.3361 21.3972 12.3445C21.4562 12.3528 21.5163 12.3495 21.574 12.3346C21.6317 12.3197 21.686 12.2936 21.7336 12.2578C21.7812 12.2219 21.8213 12.1771 21.8516 12.1258C21.8819 12.0744 21.9018 12.0176 21.9102 11.9586C21.9185 11.8996 21.9151 11.8395 21.9003 11.7818L20.5409 6.34428Z" fill="white"/>
<path d="M14.5664 22.4937C15.9892 24.5327 15.9779 25.4526 15.9688 26.3452C15.9009 32.834 20.3981 34.8391 23.0693 34.9999C23.2732 35.0112 23.4703 35.018 23.6674 35.018C24.9027 35.0327 26.1269 34.7853 27.2595 34.292C28.3921 33.7988 29.4071 33.0709 30.2377 32.1566L31.7217 30.5208L31.7467 30.4913L32.483 29.678C32.7437 29.417 32.9293 29.0907 33.0202 28.7332C33.1111 28.3757 33.104 28.0004 32.9997 27.6466C32.8954 27.2928 32.6977 26.9737 32.4273 26.7227C32.157 26.4718 31.824 26.2984 31.4635 26.2206C31.5342 25.9635 31.5484 25.694 31.5049 25.4308C31.4615 25.1677 31.3614 24.9171 31.2117 24.6963C31.0621 24.4756 30.8663 24.2899 30.6379 24.1521C30.4095 24.0144 30.1539 23.9278 29.8888 23.8984C29.9625 23.6949 30.0008 23.4803 30.0021 23.264C30.0034 22.7915 29.8405 22.3332 29.5413 21.9675C29.2421 21.6018 28.8252 21.3513 28.3618 21.2589L30.82 18.7916C31.0129 18.5994 31.1655 18.3707 31.269 18.1188C31.3725 17.8669 31.4248 17.597 31.4229 17.3247C31.4209 17.0524 31.3647 16.7832 31.2576 16.5329C31.1505 16.2825 30.9946 16.056 30.799 15.8666C30.6033 15.6771 30.372 15.5286 30.1183 15.4295C29.8647 15.3305 29.5938 15.2829 29.3216 15.2897C29.0494 15.2965 28.7812 15.3574 28.5328 15.4689C28.2844 15.5804 28.0607 15.7403 27.8747 15.9392C25.1809 18.8143 21.8323 22.0859 20.5114 22.6228C19.7411 22.94 19.5553 22.693 18.9595 21.7166C18.5456 20.9515 17.9959 20.2682 17.3373 19.7002C16.5534 19.0635 15.6313 19.0454 14.8677 19.6503C14.0045 20.3323 13.8799 21.5059 14.5664 22.4937ZM31.0262 27.0838C31.1765 27.0833 31.3254 27.1126 31.4643 27.1702C31.6032 27.2277 31.7292 27.3124 31.835 27.4191C31.9418 27.5274 32.0261 27.6556 32.0832 27.7965C32.1402 27.9375 32.1688 28.0883 32.1673 28.2403C32.1659 28.3924 32.1343 28.5426 32.0746 28.6824C32.0148 28.8222 31.928 28.9488 31.8192 29.0549L31.101 29.8456C30.9086 29.9365 30.693 29.9663 30.4833 29.931C30.2735 29.8958 30.0795 29.7972 29.9274 29.6485L29.8866 29.6055C29.7013 29.4238 29.5899 29.1798 29.574 28.9208C29.5581 28.6618 29.6388 28.406 29.8005 28.203L30.9333 27.0702L31.0262 27.0838ZM30.3465 25.0584C30.5143 25.2247 30.6131 25.4483 30.6231 25.6843C30.6332 25.9204 30.5538 26.1516 30.4009 26.3316C30.3819 26.349 30.3645 26.368 30.3488 26.3883L29.0483 27.6887C28.8646 27.7559 28.6658 27.7703 28.4744 27.7302C28.283 27.6902 28.1067 27.5973 27.9653 27.4622L27.911 27.4078C27.7326 27.2226 27.6278 26.9788 27.6161 26.722C27.6045 26.4651 27.6867 26.2128 27.8475 26.0122C28.0288 25.8717 28.7878 25.2713 29.191 24.9247C29.3705 24.816 29.581 24.7702 29.7894 24.7944C29.9978 24.8186 30.1922 24.9114 30.342 25.0584H30.3465ZM28.7606 22.4506C28.8673 22.5564 28.952 22.6825 29.0095 22.8213C29.0671 22.9602 29.0964 23.1091 29.0959 23.2594C29.0663 23.6275 28.8959 23.97 28.6201 24.2155C28.3437 24.4557 27.7478 24.9337 27.3083 25.2781C27.1209 25.3316 26.9225 25.3338 26.734 25.2843C26.5455 25.2349 26.3737 25.1357 26.2367 24.9972L26.2072 24.9677C26.0009 24.7613 25.885 24.4813 25.885 24.1895C25.885 23.8976 26.0009 23.6177 26.2072 23.4112L27.272 22.3464C27.4902 22.1809 27.761 22.1 28.0343 22.1187C28.3075 22.1374 28.5647 22.2546 28.7583 22.4484L28.7606 22.4506ZM15.4319 20.3504C15.8669 20.006 16.3042 20.0196 16.7663 20.3934C17.343 20.8963 17.8236 21.4997 18.1846 22.1742C18.3948 22.5675 18.6586 22.9297 18.9685 23.2504C18.977 23.2629 18.9861 23.275 18.9957 23.2866C19.0342 23.3274 19.902 24.2767 19.0184 25.6565C18.9588 25.7576 18.9409 25.8779 18.9683 25.992C18.9956 26.1062 19.0662 26.2052 19.1652 26.2683C19.2641 26.3315 19.3837 26.3537 19.4987 26.3305C19.6137 26.3072 19.7153 26.2402 19.7819 26.1436C20.0319 25.7851 20.1991 25.3755 20.2712 24.9445C20.3433 24.5134 20.3185 24.0717 20.1988 23.6514C20.4232 23.6207 20.6426 23.5605 20.8513 23.4724C22.6343 22.7406 26.8144 18.402 28.5317 16.5691C28.6361 16.4566 28.7621 16.3664 28.9023 16.3041C29.0425 16.2418 29.1939 16.2086 29.3474 16.2066C29.501 16.2042 29.6535 16.2326 29.7959 16.2902C29.9384 16.3478 30.0678 16.4334 30.1766 16.5419C30.2831 16.6482 30.3676 16.7744 30.4253 16.9134C30.4829 17.0524 30.5126 17.2014 30.5126 17.3518C30.5126 17.5023 30.4829 17.6513 30.4253 17.7903C30.3676 17.9293 30.2831 18.0555 30.1766 18.1618L25.5638 22.7655C25.3763 22.9521 25.2276 23.1738 25.1261 23.418C25.0247 23.6621 24.9724 23.9239 24.9724 24.1884C24.9724 24.4528 25.0247 24.7146 25.1261 24.9588C25.2276 25.2029 25.3763 25.4246 25.5638 25.6112L25.5887 25.6361C25.9007 25.949 26.3081 26.1491 26.7464 26.2048C26.6674 26.5317 26.6734 26.8735 26.7638 27.1975C26.8543 27.5215 27.0261 27.817 27.263 28.0558L27.2811 28.0716L27.2992 28.0898C27.6668 28.454 28.1638 28.6577 28.6813 28.6562C28.6503 28.9457 28.6847 29.2385 28.782 29.513C28.8792 29.7875 29.0368 30.0366 29.2431 30.2421L29.2771 30.2806C29.5392 30.5421 29.8699 30.7243 30.231 30.8062L29.5513 31.5562L29.5331 31.5766C28.7219 32.4499 27.7247 33.1296 26.6152 33.5653C25.5057 34.001 24.3124 34.1816 23.1237 34.0937C21.9563 33.9924 20.8322 33.6032 19.8521 32.9608C19.9224 32.9608 19.9949 32.9608 20.0674 32.9608H20.2599C21.3927 32.8883 22.4281 32.2019 23.3525 30.9218C23.4192 30.824 23.445 30.704 23.4244 30.5875C23.4038 30.4709 23.3384 30.3671 23.2422 30.2981C23.1461 30.2292 23.0267 30.2006 22.9097 30.2185C22.7927 30.2364 22.6874 30.2993 22.6162 30.3939C21.8617 31.4451 21.0529 32.007 20.2101 32.0637C19.0342 32.1407 18.1302 31.2005 18.1167 31.1869C18.0966 31.1659 18.0746 31.147 18.051 31.1302C17.3418 30.011 16.8547 28.4749 16.8774 26.352C16.891 25.1535 16.7822 24.0705 15.3118 21.968C14.9697 21.4877 14.8768 20.7945 15.4319 20.3504Z" fill="white"/>
<path d="M22.4868 15.2393L21.4854 15.3843L22.2104 16.0911L22.0382 17.088L22.9331 16.6168L23.828 17.088L23.6558 16.0911L24.3808 15.3843L23.3794 15.2393L22.9331 14.333L22.4868 15.2393Z" fill="white"/>
<path d="M23.9443 9.79033L24.2502 10.4791L24.6127 9.81525L25.3626 9.73822L24.8437 9.18994L25.0023 8.45135L24.3204 8.77533L23.6656 8.39697L23.763 9.14689L23.2012 9.65213L23.9443 9.79033Z" fill="white"/>
<path d="M17.9145 9.48685L17.3684 8.96802L17.2869 9.71794L16.623 10.0782L17.3118 10.3863L17.45 11.1294L17.9552 10.5675L18.7052 10.6672L18.3268 10.0125L18.653 9.33278L17.9145 9.48685Z" fill="white"/>
</svg>
