<svg width="47" height="51" viewBox="0 0 47 51" fill="none" xmlns="http://www.w3.org/2000/svg">
<path d="M9.32641 10.2C9.25668 10.2697 9.20136 10.3524 9.16362 10.4434C9.12587 10.5345 9.10645 10.6321 9.10645 10.7307C9.10645 10.8292 9.12587 10.9268 9.16362 11.0179C9.20136 11.1089 9.25668 11.1916 9.32641 11.2613L15.9489 17.8875C16.0896 18.0283 16.2805 18.1073 16.4795 18.1073C16.6786 18.1073 16.8694 18.0283 17.0102 17.8875C17.1509 17.7468 17.2299 17.5559 17.2299 17.3569C17.2299 17.1579 17.1509 16.967 17.0102 16.8263L10.3839 10.2C10.2434 10.0603 10.0533 9.98193 9.85516 9.98193C9.65702 9.98193 9.46693 10.0603 9.32641 10.2Z" fill="white"/>
<path d="M30.7305 13.8562V4.60498C30.7305 4.40607 30.6515 4.2153 30.5108 4.07465C30.3701 3.934 30.1794 3.85498 29.9805 3.85498C29.7816 3.85498 29.5908 3.934 29.4501 4.07465C29.3095 4.2153 29.2305 4.40607 29.2305 4.60498V13.8562C29.2305 14.0551 29.3095 14.2459 29.4501 14.3866C29.5908 14.5272 29.7816 14.6062 29.9805 14.6062C30.1794 14.6062 30.3701 14.5272 30.5108 14.3866C30.6515 14.2459 30.7305 14.0551 30.7305 13.8562Z" fill="white"/>
<path d="M19.1018 0.57C19.0772 0.474463 19.034 0.384712 18.9747 0.30587C18.9154 0.227028 18.8411 0.16064 18.7562 0.110497C18.6712 0.0603532 18.5772 0.0274358 18.4795 0.013624C18.3818 -0.000187728 18.2824 0.00537667 18.1868 0.0299995C18.0913 0.0546224 18.0015 0.0978215 17.9227 0.15713C17.8438 0.216439 17.7775 0.290696 17.7273 0.375662C17.6772 0.460628 17.6443 0.554638 17.6304 0.652325C17.6166 0.750012 17.6222 0.849463 17.6468 0.945L19.8968 9.945C19.9214 10.0405 19.9646 10.1303 20.024 10.2091C20.0833 10.288 20.1575 10.3544 20.2425 10.4045C20.3274 10.4546 20.4215 10.4876 20.5191 10.5014C20.6168 10.5152 20.7163 10.5096 20.8118 10.485C20.9074 10.4604 20.9971 10.4172 21.076 10.3579C21.1548 10.2986 21.2212 10.2243 21.2713 10.1393C21.3215 10.0544 21.3544 9.96036 21.3682 9.86268C21.382 9.76499 21.3764 9.66554 21.3518 9.57L19.1018 0.57Z" fill="white"/>
<path d="M9.21305 27.2999C11.568 30.6749 11.5493 32.1974 11.5343 33.6749C11.4218 44.4149 18.8656 47.7336 23.2868 47.9999C23.6243 48.0186 23.9506 48.0299 24.2768 48.0299C26.3213 48.0541 28.3477 47.6446 30.2223 46.8281C32.0969 46.0117 33.777 44.807 35.1518 43.2936L37.6081 40.5861L37.6493 40.5374L38.8681 39.1911C39.2996 38.7592 39.6067 38.219 39.7572 37.6274C39.9077 37.0357 39.896 36.4144 39.7233 35.8288C39.5506 35.2433 39.2234 34.715 38.7759 34.2997C38.3285 33.8844 37.7774 33.5973 37.1806 33.4686C37.2977 33.043 37.3211 32.597 37.2492 32.1614C37.1772 31.7258 37.0117 31.311 36.7639 30.9456C36.5162 30.5802 36.1921 30.2729 35.8141 30.0449C35.4361 29.8169 35.0131 29.6736 34.5743 29.6249C34.6962 29.2881 34.7596 28.933 34.7618 28.5749C34.7639 27.7928 34.4943 27.0343 33.9991 26.4289C33.5038 25.8236 32.8138 25.4091 32.0468 25.2561L36.1156 21.1724C36.4348 20.8542 36.6874 20.4756 36.8587 20.0587C37.03 19.6418 37.1166 19.195 37.1134 18.7443C37.1101 18.2936 37.0171 17.8481 36.8398 17.4337C36.6625 17.0193 36.4044 16.6444 36.0807 16.3309C35.7569 16.0173 35.3739 15.7714 34.9541 15.6075C34.5343 15.4435 34.086 15.3649 33.6354 15.376C33.1848 15.3872 32.741 15.4881 32.3298 15.6727C31.9186 15.8572 31.5483 16.1219 31.2406 16.4511C26.7818 21.2099 21.2393 26.6249 19.0531 27.5136C17.7781 28.0386 17.4705 27.6299 16.4843 26.0136C15.7993 24.7473 14.8895 23.6164 13.7993 22.6761C12.5018 21.6224 10.9755 21.5924 9.7118 22.5936C8.28305 23.7224 8.0768 25.6649 9.21305 27.2999ZM36.4568 34.8974C36.7056 34.8964 36.9521 34.945 37.182 35.0403C37.4118 35.1356 37.6204 35.2757 37.7956 35.4524C37.9723 35.6315 38.1119 35.8438 38.2063 36.077C38.3007 36.3103 38.348 36.5599 38.3456 36.8116C38.3432 37.0632 38.291 37.3119 38.1921 37.5433C38.0932 37.7747 37.9495 37.9842 37.7693 38.1599L36.5806 39.4686C36.2622 39.619 35.9054 39.6683 35.5582 39.61C35.2109 39.5517 34.8898 39.3885 34.6381 39.1424L34.5706 39.0711C34.2639 38.7704 34.0796 38.3666 34.0532 37.9379C34.0269 37.5091 34.1605 37.0859 34.4281 36.7499L36.3031 34.8749L36.4568 34.8974ZM35.3318 31.5449C35.6095 31.8202 35.773 32.1903 35.7897 32.581C35.8064 32.9717 35.675 33.3543 35.4218 33.6524C35.3904 33.6811 35.3616 33.7125 35.3356 33.7461L33.1831 35.8986C32.8791 36.0098 32.55 36.0336 32.2332 35.9673C31.9164 35.901 31.6245 35.7473 31.3906 35.5236L31.3006 35.4336C31.0054 35.1271 30.8319 34.7235 30.8126 34.2984C30.7933 33.8733 30.9294 33.4557 31.1956 33.1236C31.4956 32.8911 32.7518 31.8974 33.4193 31.3236C33.7163 31.1437 34.0648 31.0679 34.4097 31.1079C34.7546 31.148 35.0764 31.3017 35.3243 31.5449H35.3318ZM32.7068 27.2286C32.8835 27.4038 33.0236 27.6124 33.1189 27.8422C33.2142 28.072 33.2627 28.3186 33.2618 28.5674C33.2128 29.1766 32.9307 29.7434 32.4743 30.1499C32.0168 30.5474 31.0306 31.3386 30.3031 31.9086C29.9929 31.9972 29.6646 32.0007 29.3525 31.9189C29.0405 31.8371 28.7562 31.6729 28.5293 31.4436L28.4806 31.3949C28.1391 31.0531 27.9473 30.5898 27.9473 30.1067C27.9473 29.6237 28.1391 29.1604 28.4806 28.8186L30.2431 27.0561C30.6042 26.7821 31.0524 26.6482 31.5047 26.6792C31.957 26.7103 32.3827 26.9041 32.7031 27.2249L32.7068 27.2286ZM10.6455 23.7524C11.3655 23.1824 12.0893 23.2049 12.8543 23.8236C13.8088 24.6559 14.6042 25.6546 15.2018 26.7711C15.5497 27.4221 15.9864 28.0216 16.4993 28.5524C16.5133 28.5731 16.5283 28.5931 16.5443 28.6124C16.608 28.6799 18.0443 30.2511 16.5818 32.5349C16.4833 32.7023 16.4535 32.9014 16.4988 33.0903C16.5442 33.2792 16.661 33.4431 16.8248 33.5476C16.9885 33.6521 17.1864 33.6889 17.3768 33.6504C17.5672 33.6119 17.7353 33.501 17.8456 33.3411C18.2594 32.7478 18.536 32.0698 18.6554 31.3564C18.7747 30.6429 18.7338 29.9118 18.5356 29.2161C18.907 29.1653 19.2701 29.0657 19.6156 28.9199C22.5668 27.7086 29.4855 20.5274 32.3281 17.4936C32.5007 17.3074 32.7094 17.1582 32.9415 17.0551C33.1735 16.9519 33.4241 16.897 33.6781 16.8936C33.9323 16.8896 34.1848 16.9367 34.4205 17.032C34.6563 17.1274 34.8705 17.269 35.0506 17.4486C35.2269 17.6245 35.3667 17.8335 35.4622 18.0635C35.5576 18.2936 35.6068 18.5402 35.6068 18.7892C35.6068 19.0383 35.5576 19.2849 35.4622 19.515C35.3667 19.745 35.2269 19.954 35.0506 20.1299L27.4156 27.7499C27.1053 28.0586 26.8592 28.4256 26.6912 28.8297C26.5232 29.2339 26.4368 29.6672 26.4368 30.1049C26.4368 30.5425 26.5232 30.9759 26.6912 31.38C26.8592 31.7842 27.1053 32.1511 27.4156 32.4599L27.4568 32.5011C27.9733 33.019 28.6475 33.3502 29.3731 33.4424C29.2423 33.9836 29.2522 34.5492 29.4019 35.0855C29.5515 35.6218 29.836 36.1108 30.2281 36.5061L30.2581 36.5324L30.288 36.5624C30.8964 37.1653 31.719 37.5024 32.5756 37.4999C32.5243 37.9791 32.5813 38.4637 32.7422 38.9181C32.9032 39.3724 33.164 39.7848 33.5056 40.1249L33.5618 40.1886C33.9957 40.6214 34.5429 40.923 35.1406 41.0586L34.0156 42.2999L33.9856 42.3336C32.6428 43.7791 30.9922 44.9041 29.1558 45.6253C27.3194 46.3465 25.3443 46.6454 23.3768 46.4999C21.4445 46.3323 19.584 45.6881 17.9618 44.6249C18.0781 44.6249 18.198 44.6249 18.318 44.6249H18.6368C20.5118 44.5049 22.2256 43.3686 23.7556 41.2499C23.866 41.088 23.9087 40.8894 23.8746 40.6965C23.8405 40.5036 23.7322 40.3317 23.573 40.2176C23.4138 40.1034 23.2163 40.0561 23.0226 40.0857C22.829 40.1154 22.6546 40.2196 22.5368 40.3761C21.2881 42.1161 19.9493 43.0461 18.5543 43.1399C16.6081 43.2674 15.1118 41.7111 15.0893 41.6886C15.0561 41.6539 15.0197 41.6226 14.9806 41.5949C13.8068 39.7424 13.0005 37.1999 13.038 33.6861C13.0605 31.7024 12.8805 29.9099 10.4468 26.4299C9.88055 25.6349 9.7268 24.4874 10.6455 23.7524Z" fill="white"/>
<path d="M22.3235 15.2925L20.666 15.5325L21.866 16.7025L21.581 18.3525L23.0623 17.5725L24.5435 18.3525L24.2585 16.7025L25.4585 15.5325L23.801 15.2925L23.0623 13.7925L22.3235 15.2925Z" fill="white"/>
<path d="M24.7359 6.27378L25.2421 7.41378L25.8421 6.31503L27.0834 6.18753L26.2246 5.28003L26.4871 4.05753L25.3584 4.59378L24.2746 3.96753L24.4359 5.20878L23.5059 6.04503L24.7359 6.27378Z" fill="white"/>
<path d="M14.7557 5.77135L13.8519 4.9126L13.7169 6.15385L12.6182 6.7501L13.7582 7.2601L13.9869 8.49009L14.8232 7.5601L16.0644 7.7251L15.4382 6.64135L15.9782 5.51635L14.7557 5.77135Z" fill="white"/>
</svg>
