<svg width="26" height="20" viewBox="0 0 26 20" fill="none" xmlns="http://www.w3.org/2000/svg">
<path d="M22.826 0.106689H3.17939C1.42562 0.106689 0 1.53231 0 3.28608V16.7138C0 18.4675 1.42562 19.8932 3.17939 19.8932H22.8206C24.5744 19.8932 26 18.4675 26 16.7138V3.29146C26.0054 1.53768 24.5798 0.106689 22.826 0.106689ZM24.5529 16.7138C24.5529 17.666 23.7782 18.4406 22.826 18.4406H3.17939C2.22719 18.4406 1.45251 17.666 1.45251 16.7138V3.29146C1.45251 2.33926 2.22719 1.56458 3.17939 1.56458H22.8206C23.7728 1.56458 24.5475 2.33926 24.5475 3.29146V16.7138H24.5529Z" fill="white"/>
<path d="M16.397 9.83327L22.7558 4.13081C23.0517 3.86183 23.0786 3.40455 22.8096 3.10329C22.5406 2.80741 22.0833 2.78051 21.7821 3.04949L13.0132 10.92L11.3024 9.39214C11.2971 9.38676 11.2917 9.38138 11.2917 9.376C11.254 9.33834 11.2164 9.30606 11.1733 9.27379L4.21201 3.04411C3.91075 2.77513 3.45348 2.80203 3.18449 3.10329C2.91551 3.40455 2.94241 3.86183 3.24367 4.13081L9.67777 9.88169L3.27057 15.88C2.98007 16.1544 2.96393 16.6117 3.23829 16.9076C3.38354 17.0582 3.57721 17.1389 3.77088 17.1389C3.94841 17.1389 4.12594 17.0743 4.26581 16.9452L10.7698 10.8608L12.5344 12.437C12.6743 12.5608 12.8464 12.6199 13.0186 12.6199C13.1907 12.6199 13.3682 12.5554 13.5027 12.4317L15.3157 10.807L21.7821 16.9506C21.9219 17.0851 22.1048 17.1496 22.2824 17.1496C22.476 17.1496 22.6643 17.0743 22.8096 16.9237C23.0839 16.6332 23.0732 16.1705 22.7827 15.8962L16.397 9.83327Z" fill="white"/>
</svg>
