<svg width="64" height="64" viewBox="0 0 64 64" fill="none" xmlns="http://www.w3.org/2000/svg">
<path d="M55.3754 0H8.62425C3.86137 0 0.00012207 3.86109 0.00012207 8.62413V55.3756C0.00012207 60.1386 3.86121 63.9997 8.62425 63.9997H31.6817L31.721 41.1297H25.7794C25.0072 41.1297 24.3805 40.5053 24.3775 39.7331L24.349 32.3612C24.346 31.5848 24.9746 30.9539 25.751 30.9539H31.6818V23.8307C31.6818 15.5643 36.7304 11.0632 44.1046 11.0632H50.1556C50.9298 11.0632 51.5576 11.6908 51.5576 12.4652V18.6813C51.5576 19.4553 50.9303 20.0828 50.1564 20.0833L46.443 20.085C42.4327 20.085 41.6561 21.9906 41.6561 24.7873V30.954H50.4681C51.3078 30.954 51.9592 31.6872 51.8603 32.521L50.9865 39.893C50.9029 40.5985 50.3047 41.13 49.5944 41.13H41.6954L41.6561 64H55.3757C60.1386 64 63.9997 60.1389 63.9997 55.376V8.62413C63.9995 3.86109 60.1384 0 55.3754 0Z" fill="white"/>
</svg>
