<svg width="24" height="25" viewBox="0 0 24 25" fill="none" xmlns="http://www.w3.org/2000/svg">
<path d="M20.7657 0.0769043H3.23405C1.44797 0.0769043 0 1.52481 0 3.31095V20.8427C0 22.6289 1.44791 24.0768 3.23405 24.0768H11.8806L11.8953 15.5005H9.66721C9.37765 15.5005 9.14264 15.2664 9.14152 14.9768L9.13084 12.2123C9.12972 11.9212 9.36544 11.6846 9.65659 11.6846H11.8806V9.01341C11.8806 5.91351 13.7739 4.2256 16.5392 4.2256H18.8083C19.0986 4.2256 19.3341 4.46097 19.3341 4.75135V7.08237C19.3341 7.37264 19.0988 7.60795 18.8086 7.60812L17.4161 7.60877C15.9122 7.60877 15.621 8.32339 15.621 9.37213V11.6847H18.9255C19.2404 11.6847 19.4847 11.9596 19.4476 12.2723L19.1199 15.0368C19.0885 15.3013 18.8642 15.5006 18.5978 15.5006H15.6357L15.621 24.0769H20.7658C22.5519 24.0769 23.9998 22.629 23.9998 20.8429V3.31095C23.9998 1.52481 22.5519 0.0769043 20.7657 0.0769043Z" fill="#F66C0E"/>
</svg>
