<svg width="64" height="64" viewBox="0 0 64 64" fill="none" xmlns="http://www.w3.org/2000/svg">
<g clip-path="url(#clip0)">
<path d="M8.74875 12.5009C8.0575 12.5009 7.5 13.0574 7.5 13.7497C7.5 14.3925 7.98362 14.9284 8.62375 14.9919C9.36487 15.0655 9.99749 14.488 9.99749 13.7497C9.99749 13.0584 9.441 12.5009 8.74875 12.5009Z" fill="#FF8B02"/>
<path d="M22.4996 4.99994C18.4097 4.99994 14.4285 6.44619 11.2891 9.07231C10.7596 9.51519 10.6894 10.3036 11.1324 10.8331C11.5754 11.3626 12.3637 11.4332 12.8931 10.9898C15.5835 8.73931 18.9952 7.49994 22.4996 7.49994C30.7703 7.49994 37.4992 14.2288 37.4992 22.4996C37.4992 30.7703 30.7703 37.4992 22.4996 37.4992C14.2289 37.4992 7.5 30.7702 7.5 22.4994C7.5 21.2006 7.6665 19.9119 7.99474 18.6688C8.17099 18.0013 7.77287 17.3173 7.10537 17.1409C6.43775 16.9653 5.75387 17.3629 5.57762 18.0303C5.19437 19.4817 5 20.9853 5 22.4994C5 32.1487 12.8502 39.9989 22.4995 39.9989C32.1487 39.9989 39.9989 32.1487 39.9989 22.4994C39.9989 12.8502 32.1488 4.99994 22.4996 4.99994Z" fill="#FF8B02"/>
<path d="M62.1671 53.3305L48.3199 39.482C47.1675 38.3296 45.4458 38.0863 44.052 38.7503L40.8387 35.5369C43.5633 31.7184 44.9987 27.2349 44.9987 22.5003C44.9987 10.0942 34.9056 0.000976562 22.4993 0.000976562C10.0931 0.000976562 0 10.0942 0 22.5003C0 34.9064 10.0932 44.9996 22.4993 44.9996C27.2341 44.9996 31.7174 43.5642 35.5359 40.8395L38.7478 44.0514C38.0959 45.4134 38.3023 47.142 39.4813 48.3209L53.3294 62.1676C55.7706 64.6106 59.7241 64.6124 62.1669 62.1682C64.6105 59.7263 64.6115 55.773 62.1671 53.3305ZM22.4993 42.4997C11.4716 42.4997 2.49987 33.5281 2.49987 22.5003C2.49987 11.4726 11.4716 2.50085 22.4993 2.50085C33.5271 2.50085 42.4988 11.4724 42.4988 22.5003C42.4988 33.544 33.5554 42.4997 22.4993 42.4997ZM37.5003 39.268C38.1212 38.712 38.7114 38.1219 39.2674 37.5009L42.1323 40.3658L40.3652 42.133L37.5003 39.268ZM60.3991 60.4007C58.9341 61.8666 56.5635 61.8674 55.0973 60.4003L41.2489 46.5532C40.7605 46.0647 40.7604 45.2734 41.2489 44.7849L44.7838 41.25C44.7839 41.2499 44.7839 41.2497 44.784 41.2497C45.2718 40.7626 46.0648 40.7627 46.5522 41.2499L60.3995 55.0986C61.8654 56.5635 61.8668 58.9338 60.3991 60.4007Z" fill="#FF8B02"/>
<path d="M27.6021 12.1036H31.3487L26.9277 7.42065V11.4232C26.9277 11.7834 27.2275 12.1036 27.6021 12.1036Z" fill="#FF8B02"/>
<path d="M27.6023 12.904C26.8155 12.904 26.1786 12.2236 26.1786 11.3831V7.18042H14.6392C14.0398 7.18042 13.5527 7.70075 13.5527 8.34115V31.5957C13.5527 32.2361 14.0398 32.7565 14.6392 32.7565H30.4872C31.0866 32.7565 31.5737 32.2361 31.5737 31.5957V12.904H27.6023ZM16.6249 10.5425H24.4552C24.68 10.5425 24.8299 10.7026 24.8299 10.9428C24.8299 11.1829 24.68 11.343 24.4552 11.343H16.6249C16.4001 11.343 16.2503 11.1829 16.2503 10.9428C16.2503 10.7026 16.4376 10.5425 16.6249 10.5425ZM16.6249 13.5444H24.4552C24.68 13.5444 24.8299 13.7045 24.8299 13.9447C24.8299 14.1848 24.68 14.3449 24.4552 14.3449H16.6249C16.4001 14.3449 16.2503 14.1848 16.2503 13.9447C16.2503 13.7045 16.4376 13.5444 16.6249 13.5444ZM28.464 29.4344H16.6249C16.4001 29.4344 16.2503 29.2743 16.2503 29.0341C16.2503 28.794 16.4001 28.6339 16.6249 28.6339H28.4266C28.6514 28.6339 28.8012 28.794 28.8012 29.0341C28.8387 29.2743 28.6514 29.4344 28.464 29.4344ZM28.464 26.4325H16.6249C16.4001 26.4325 16.2503 26.2724 16.2503 26.0322C16.2503 25.7921 16.4001 25.632 16.6249 25.632H28.4266C28.6514 25.632 28.8012 25.7921 28.8012 26.0322C28.8012 26.2724 28.6514 26.4325 28.464 26.4325ZM28.464 23.3906H16.6249C16.4001 23.3906 16.2503 23.2305 16.2503 22.9903C16.2503 22.7502 16.4001 22.5901 16.6249 22.5901H28.4266C28.6514 22.5901 28.8012 22.7502 28.8012 22.9903C28.8012 23.2305 28.6514 23.3906 28.464 23.3906ZM28.464 20.3887H16.6249C16.4001 20.3887 16.2503 20.2286 16.2503 19.9885C16.2503 19.7483 16.4001 19.5882 16.6249 19.5882H28.4266C28.6514 19.5882 28.8012 19.7483 28.8012 19.9885C28.8012 20.2286 28.6514 20.3887 28.464 20.3887ZM28.464 17.3868H16.6249C16.4001 17.3868 16.2503 17.2267 16.2503 16.9866C16.2503 16.7464 16.4001 16.5863 16.6249 16.5863H28.4266C28.6514 16.5863 28.8012 16.7464 28.8012 16.9866C28.8012 17.2267 28.6514 17.3868 28.464 17.3868Z" fill="#FF8B02"/>
</g>
<defs>
<clipPath id="clip0">
<rect width="64" height="64" fill="white"/>
</clipPath>
</defs>
</svg>
