<svg width="48" height="104" viewBox="0 0 48 104" fill="none" xmlns="http://www.w3.org/2000/svg">
<path d="M26.896 91.2546L18.7415 91.5553L25.6787 95.3636L25.7044 96.0991L19.0977 100.38L27.2048 100.097L27.2584 101.632L16.0652 102.023L16.0194 100.712L23.7236 95.768L15.6956 91.4376L15.6498 90.1264L26.8424 89.7195L26.896 91.2546ZM22.276 79.0711C22.3933 79.067 22.5482 79.0723 22.7408 79.0869L22.9809 85.9627C23.7238 85.8407 24.3147 85.4946 24.7538 84.9242C25.1818 84.3436 25.3813 83.6375 25.3522 82.8061C25.3169 81.7933 24.9472 80.9897 24.2434 80.3953L25.2052 79.5132C25.6663 79.8813 26.0242 80.3491 26.2788 80.9166C26.5331 81.4734 26.6725 82.1035 26.6971 82.8071C26.7283 83.7026 26.5749 84.5031 26.2366 85.2087C25.8877 85.9146 25.3895 86.471 24.7419 86.8778C24.094 87.274 23.3543 87.4866 22.5229 87.5157C21.702 87.5443 20.9548 87.389 20.2812 87.0496C19.6073 86.6996 19.0779 86.2111 18.6931 85.5841C18.2973 84.9469 18.0852 84.2232 18.057 83.413C18.0287 82.6029 18.1901 81.8768 18.5412 81.2348C18.8813 80.5825 19.3757 80.069 20.0244 79.6941C20.6726 79.3086 21.4232 79.1009 22.276 79.0711ZM19.3522 83.3678C19.3779 84.1033 19.6233 84.7138 20.0885 85.1992C20.5534 85.6739 21.1497 85.9413 21.8776 86.0013L21.6878 80.5646C20.9765 80.6748 20.4058 80.9882 19.9755 81.5049C19.5343 82.0113 19.3265 82.6322 19.3522 83.3678ZM17.6782 72.5668C17.6406 71.4901 17.9253 70.6263 18.5323 69.9754C19.1282 69.3142 20.0285 68.9625 21.2331 68.9205L26.1101 68.7502L26.1637 70.2852L21.4626 70.4494C20.6418 70.4781 20.0304 70.6969 19.6284 71.1058C19.2264 71.5148 19.0383 72.087 19.064 72.8226C19.093 73.654 19.3611 74.3011 19.8682 74.7637C20.3647 75.2266 21.0659 75.4423 21.9721 75.4106L26.3374 75.2582L26.391 76.7933L17.9162 77.0892L17.8648 75.6181L19.144 75.5734C18.6962 75.2796 18.3458 74.8755 18.0931 74.3614C17.8399 73.8366 17.7016 73.2384 17.6782 72.5668ZM17.2602 58.306L25.7351 58.0101L25.7859 59.4652L24.5067 59.5099C24.9545 59.8038 25.31 60.2023 25.573 60.7054C25.8251 61.1982 25.9615 61.7431 25.9823 62.3401C26.0218 63.4701 25.7437 64.371 25.1482 65.0429C24.5419 65.7151 23.6312 66.0724 22.4159 66.1149L17.5389 66.2852L17.4853 64.7501L22.1864 64.5859C23.0072 64.5573 23.624 64.3383 24.0366 63.929C24.4386 63.52 24.6267 62.9478 24.601 62.2122C24.5728 61.4021 24.3052 60.771 23.7985 60.3191C23.2917 59.8672 22.5906 59.6568 21.6952 59.6881L17.3139 59.8411L17.2602 58.306Z" fill="white"/>
<path d="M28.8001 22.08H9.6001V24H28.8001V22.08Z" fill="#FF9900"/>
<path d="M38.4001 12H9.6001V13.92H38.4001V12Z" fill="#FF9900"/>
<path d="M38.4001 31.6801H9.6001V33.6001H38.4001V31.6801Z" fill="#FF9900"/>
</svg>
