<svg width="51" height="59" viewBox="0 0 51 59" fill="none" xmlns="http://www.w3.org/2000/svg">
<g clip-path="url(#clip0)">
<path d="M41.9718 6.9636C40.0529 7.99507 38.129 7.07213 36.2672 6.18019C34.4304 5.2992 31.2252 4.99231 31.0227 4.99231C30.3615 4.99231 29.8239 5.52993 29.8239 6.19113V20.8356H17.5776C15.0098 20.8356 12.9209 22.9245 12.9209 25.4922V33.5589C12.9209 34.6802 13.8329 35.5922 14.9542 35.5922H15.4435V43.9985C15.4435 45.1198 16.3559 46.0318 17.4768 46.0318H21.3232C22.4445 46.0318 23.3565 45.1194 23.3565 43.9985V25.2045H29.8235V33.3149C29.8235 33.9761 30.3615 34.5137 31.0223 34.5137C31.6835 34.5137 32.2211 33.9761 32.2211 33.3149V24.5843C33.3328 23.8748 34.0269 22.6509 34.0519 21.3244L34.0611 20.836H32.2211V13.2505C32.3415 13.2377 32.4578 13.2318 32.5713 13.2318C33.8905 13.2318 35.2024 13.8606 36.4742 14.4707C38.5622 15.473 40.5354 16.4206 42.5098 14.7334L42.6781 14.5897V6.58329L41.9718 6.9636Z" fill="#FF8B00"/>
<path d="M19.4001 20.1215C21.8593 20.1215 23.8598 18.1206 23.8598 15.6618C23.8598 13.2031 21.8593 11.2021 19.4001 11.2021C16.9409 11.2021 14.9404 13.2031 14.9404 15.6618C14.9404 18.1206 16.9414 20.1215 19.4001 20.1215Z" fill="#FF8B00"/>
</g>
<circle cx="25" cy="25" r="24.5" stroke="#FF8B00"/>
<defs>
<clipPath id="clip0">
<rect width="45.6" height="57" fill="white" transform="translate(5 2)"/>
</clipPath>
</defs>
</svg>
