<svg width="21" height="21" viewBox="0 0 21 21" fill="none" xmlns="http://www.w3.org/2000/svg">
<g clip-path="url(#clip0)">
<path d="M21 4.22315C19.679 4.28403 19.7078 4.27907 19.5585 4.29156L20.3409 2.05734C20.3409 2.05734 17.8988 2.95567 17.2798 3.11637C15.6539 1.65503 13.2371 1.59046 11.5094 2.65238C10.0945 3.5222 9.33506 5.01591 9.58836 6.76179C6.83471 6.37968 4.5146 5.07439 2.68284 2.87396L2.10349 2.17814L1.67059 2.97314C1.12344 3.9777 0.941757 5.1263 1.15885 6.20728C1.24793 6.65076 1.39934 7.07374 1.60906 7.46979L1.11207 7.27721L1.05311 8.10762C0.993347 8.95116 1.27421 9.93586 1.80453 10.7414C1.95385 10.9683 2.14611 11.2174 2.3898 11.4632L2.13297 11.4238L2.44636 12.3753C2.85828 13.6255 3.71384 14.5927 4.82414 15.1304C3.71528 15.601 2.8195 15.9012 1.34711 16.3856L0 16.8284L1.24425 17.5087C1.71865 17.7681 3.395 18.6344 5.05133 18.8942C8.73312 19.4717 12.8784 19.0014 15.6691 16.4881C18.0196 14.3712 18.7909 11.3599 18.6307 8.22618C18.6065 7.75178 18.7364 7.299 18.9966 6.95149C19.5178 6.25567 20.9968 4.2278 21 4.22315ZM18.0127 6.21449C17.5806 6.79143 17.3642 7.52827 17.403 8.28899C17.5646 11.4499 16.7046 13.9012 14.8465 15.5745C12.6761 17.5294 9.17516 18.2966 5.24183 17.6796C4.5295 17.568 3.7933 17.3179 3.184 17.0681C4.41847 16.6434 5.37176 16.2648 6.91129 15.5361L9.06045 14.5189L6.68763 14.367C5.55105 14.2942 4.60464 13.7434 4.02289 12.8491C4.33179 12.8311 4.62964 12.7812 4.9262 12.6985L7.18927 12.0682L4.90729 11.5094C3.79843 11.2378 3.16637 10.5743 2.83136 10.0655C2.61138 9.7311 2.46767 9.38856 2.38147 9.07277C2.61026 9.13413 2.87702 9.17787 3.3072 9.22049L5.41935 9.42941L3.74588 8.12396C2.54008 7.18349 2.05687 5.77053 2.41111 4.41221C6.17429 8.31542 10.5928 8.02206 11.0375 8.12524C10.9396 7.17435 10.9371 7.17211 10.9114 7.08159C10.3419 5.06814 11.5901 4.04579 12.1531 3.69972C13.3291 2.97698 15.1958 2.86803 16.4888 4.05877C16.768 4.31576 17.1456 4.41685 17.4991 4.32906C17.8163 4.25023 18.0767 4.16676 18.3316 4.07591L17.8009 5.59125L18.4783 5.59173C18.3505 5.76316 18.1972 5.9684 18.0127 6.21449Z" fill="#FF8B02"/>
</g>
<defs>
<clipPath id="clip0">
<rect width="21" height="21" fill="white"/>
</clipPath>
</defs>
</svg>
