<svg width="24" height="25" viewBox="0 0 24 25" fill="none" xmlns="http://www.w3.org/2000/svg">
<g clip-path="url(#clip0)">
<path d="M6.57968 23.3152H0.762695V7.64111H6.57968V23.3152Z" fill="#F66C0E"/>
<path d="M23.2387 23.3152H17.5399L17.5423 16.3811C17.5662 15.2556 17.1119 14.3273 16.3272 13.8977C15.7885 13.6026 15.1685 13.6017 14.5867 13.886L14.5365 23.3152H8.57227V7.64111H14.54V8.27818C16.3941 7.52644 18.3603 7.63493 20.0689 8.61217C21.9945 9.71382 23.2387 11.7504 23.2387 13.8007V23.3152Z" fill="#F66C0E"/>
<path d="M3.659 6.66238C2.0484 6.66238 0.738281 5.35089 0.738281 3.73878C0.738281 2.12668 2.0484 0.815186 3.659 0.815186C5.26932 0.815186 6.57944 2.12668 6.57944 3.73878C6.57944 5.35089 5.26932 6.66238 3.659 6.66238Z" fill="#F66C0E"/>
</g>
<defs>
<clipPath id="clip0">
<rect width="24" height="24" fill="white" transform="translate(0 0.0769043)"/>
</clipPath>
</defs>
</svg>
