<svg width="13" height="11" viewBox="0 0 13 11" fill="none" xmlns="http://www.w3.org/2000/svg">
<g clip-path="url(#clip0)">
<path d="M12.025 0.570068H0.974961C0.549961 0.570068 0.209961 0.910068 0.209961 1.33507V1.91307L6.38096 6.24807C6.39796 6.24807 6.39796 6.26507 6.41496 6.26507C6.46596 6.29907 6.53396 6.29907 6.58496 6.26507C6.60196 6.26507 6.60196 6.24807 6.61896 6.24807L12.79 1.91307V1.33507C12.79 0.910068 12.45 0.570068 12.025 0.570068Z" fill="#C4C4C4"/>
<path d="M6.49996 7.64201C6.17696 7.64201 5.85396 7.54001 5.59896 7.33601L0.209961 3.56201V9.66501C0.209961 10.09 0.549961 10.43 0.974961 10.43H12.025C12.45 10.43 12.79 10.09 12.79 9.66501V3.56201L7.40096 7.33601C7.14596 7.54001 6.82296 7.64201 6.49996 7.64201Z" fill="#C4C4C4"/>
</g>
<defs>
<clipPath id="clip0">
<rect width="12.58" height="9.85986" fill="white" transform="translate(0.209961 0.570068)"/>
</clipPath>
</defs>
</svg>
