<svg width="17" height="22" viewBox="0 0 17 22" fill="none" xmlns="http://www.w3.org/2000/svg">
<path d="M14.025 3.57001H2.97496C2.54996 3.57001 2.20996 3.91001 2.20996 4.33501V4.91301L8.38096 9.24801C8.39796 9.24801 8.39796 9.26501 8.41496 9.26501C8.46596 9.29901 8.53396 9.29901 8.58496 9.26501C8.60196 9.26501 8.60196 9.24801 8.61896 9.24801L14.79 4.91301V4.33501C14.79 3.91001 14.45 3.57001 14.025 3.57001Z" fill="white"/>
<path d="M8.49996 10.642C8.17696 10.642 7.85396 10.54 7.59896 10.336L2.20996 6.56201V12.665C2.20996 13.09 2.54996 13.43 2.97496 13.43H14.025C14.45 13.43 14.79 13.09 14.79 12.665V6.56201L9.40096 10.336C9.14596 10.54 8.82296 10.642 8.49996 10.642Z" fill="white"/>
</svg>
