<svg width="45" height="45" viewBox="0 0 45 45" fill="none" xmlns="http://www.w3.org/2000/svg">
<circle cx="22.5" cy="22.5" r="22.5" fill="#FF9900" fill-opacity="0.86"/>
<g clip-path="url(#clip0)">
<path d="M29.8974 11.6953H16.1075C14.7266 11.6953 13.6052 12.8167 13.6052 14.1977V25.6125L12.0235 24.0308C11.7884 23.7957 11.4113 23.7957 11.1763 24.0308C10.9412 24.2658 10.9412 24.6429 11.1763 24.8779L13.7864 27.488C13.9039 27.6055 14.0557 27.6643 14.2124 27.6643C14.3691 27.6643 14.5209 27.6055 14.6384 27.488L17.2485 24.8779C17.4836 24.6429 17.4836 24.2658 17.2485 24.0308C17.0135 23.7957 16.6364 23.7957 16.4013 24.0308L14.8147 25.6174V14.1977C14.8147 13.4778 15.3975 12.8951 16.1173 12.8951H29.9023C30.6221 12.8951 31.2049 13.4778 31.2049 14.1977V15.8626C31.2049 16.1956 31.4742 16.465 31.8072 16.465C32.1402 16.465 32.4095 16.1956 32.4095 15.8626V14.1977C32.3948 12.8216 31.2734 11.6953 29.8974 11.6953Z" fill="white"/>
<path d="M31.3717 18.5168L28.7616 21.1269C28.5265 21.362 28.5265 21.739 28.7616 21.9741C28.8791 22.0916 29.0309 22.1504 29.1876 22.1504C29.3443 22.1504 29.4961 22.0916 29.6136 21.9741L31.2003 20.3875V31.8023C31.2003 32.5222 30.6175 33.1049 29.8977 33.1049H16.1078C15.388 33.1049 14.8052 32.5222 14.8052 31.8023V30.1373C14.8052 29.8043 14.5359 29.535 14.2029 29.535C13.8699 29.535 13.6006 29.8043 13.6006 30.1373V31.8023C13.6006 33.1832 14.722 34.3046 16.1029 34.3046H29.8879C31.2688 34.3046 32.3902 33.1832 32.3902 31.8023V20.3875L33.9768 21.9741C34.2119 22.2092 34.589 22.2092 34.824 21.9741C35.0591 21.739 35.0591 21.362 34.824 21.1269L32.2139 18.5168C31.9985 18.2916 31.5969 18.2916 31.3717 18.5168Z" fill="white"/>
<path d="M28.6637 23.6097H26.9926V22.0036H28.6637C28.9148 22.0036 29.1184 21.8003 29.1184 21.5491C29.1184 21.2979 28.9148 21.0945 28.6637 21.0945H26.9926V18.8659C26.9926 18.5406 26.9283 18.3018 26.8015 18.1564C26.6811 18.018 26.5228 17.9536 26.3035 17.9536C26.0942 17.9536 25.9418 18.0176 25.8237 18.1551C25.6985 18.3007 25.6349 18.5399 25.6349 18.8661V21.0947H22.4914L21.1548 19.0722C21.0404 18.8917 20.9328 18.7226 20.8284 18.5603C20.7343 18.4141 20.6426 18.2951 20.556 18.2063C20.4793 18.1276 20.3919 18.0667 20.2896 18.0199C20.1932 17.9759 20.0705 17.9538 19.9255 17.9538C19.7404 17.9538 19.5724 18.0045 19.4116 18.1086C19.2524 18.2116 19.1424 18.339 19.0752 18.498C19.0162 18.6491 18.985 18.8807 18.985 19.1796V21.0946H17.3305C17.0794 21.0946 16.876 21.2981 16.876 21.5493C16.876 21.8004 17.0794 22.0038 17.3305 22.0038H18.985V23.61H17.3305C17.0794 23.61 16.876 23.8135 16.876 24.0647C16.876 24.3158 17.0794 24.5191 17.3305 24.5191H18.985V27.0635C18.985 27.3792 19.0514 27.6156 19.1828 27.7658C19.3077 27.909 19.4661 27.9754 19.6813 27.9754C19.8889 27.9754 20.046 27.9087 20.1764 27.7652C20.3099 27.6182 20.3774 27.382 20.3774 27.0635V24.5191H23.222L24.7613 26.8795C24.8683 27.0355 24.9789 27.193 25.0891 27.3474C25.1885 27.4861 25.297 27.6083 25.4115 27.7103C25.5146 27.8027 25.6251 27.8703 25.74 27.9116C25.8582 27.9542 25.9965 27.9757 26.1499 27.9757C26.5661 27.9757 26.9925 27.8483 26.9925 26.9031V24.5191H28.6637C28.9148 24.5191 29.1183 24.3155 29.1183 24.0644C29.1184 23.8133 28.9148 23.6097 28.6637 23.6097ZM25.6349 22.0036V23.6097H24.1537L23.0924 22.0036H25.6349ZM20.3774 20.1581L20.9882 21.0945H20.3774V20.1581ZM20.3774 23.6097V22.0036H21.5813L22.6289 23.6097H20.3774ZM25.6349 25.8515L24.7546 24.5191H25.6349V25.8515Z" fill="white"/>
</g>
<defs>
<clipPath id="clip0">
<rect width="24" height="24" fill="white" transform="translate(11 11)"/>
</clipPath>
</defs>
</svg>
