<svg width="50" height="50" viewBox="0 0 50 50" fill="none" xmlns="http://www.w3.org/2000/svg">
<circle cx="25" cy="25" r="24.5" stroke="#FF8B00"/>
<g clip-path="url(#clip0)">
<path d="M19.1996 22.7026C17.6369 22.7026 16.3701 23.9688 16.3701 25.5322V33.7849C16.3701 35.3469 17.637 36.6143 19.1996 36.6143H19.621C21.1838 36.6143 22.4506 35.3475 22.4506 33.7849V25.5322C22.4506 23.9695 21.1838 22.7026 19.621 22.7026H19.1996Z" fill="#FF8B00"/>
<path d="M28.4741 36.6141H28.8954C30.4582 36.6141 31.725 35.3473 31.725 33.7847V20.8159C31.725 19.2538 30.4581 17.9863 28.8954 17.9863H28.4741C26.9113 17.9863 25.6445 19.2532 25.6445 20.8159V33.7847C25.6451 35.3467 26.9119 36.6141 28.4741 36.6141Z" fill="#FF8B00"/>
<path d="M38.1709 11.385H37.7488C36.1868 11.385 34.9199 12.6518 34.9199 14.2145V33.7854C34.9199 35.3475 36.1868 36.6149 37.7488 36.6149H38.1709C39.7336 36.6149 41.0004 35.3481 41.0004 33.7854V14.2139C41.0004 12.6518 39.7336 11.385 38.1709 11.385Z" fill="#FF8B00"/>
<path d="M13.7358 33.7848V28.9112C13.7358 27.3492 12.4683 26.0818 10.9062 26.0818H10.4848C8.92205 26.0818 7.65527 27.3486 7.65527 28.9112V33.7848C7.65527 35.3469 8.92273 36.6143 10.4848 36.6143H10.9062C12.4683 36.6143 13.7358 35.3468 13.7358 33.7848Z" fill="#FF8B00"/>
<path d="M8.52611 22.9107L10.6338 20.803L12.7408 22.9107C13.09 23.2599 13.6558 23.2599 14.005 22.9107C14.3549 22.5615 14.3542 21.9957 14.005 21.6465L11.898 19.5394L14.005 17.4324C14.3542 17.0832 14.3542 16.5175 14.005 16.1682C13.6558 15.819 13.09 15.819 12.7408 16.1682L10.6338 18.2752L8.52611 16.1682C8.17689 15.8189 7.61107 15.8189 7.26191 16.1682C6.9127 16.5174 6.9127 17.0825 7.26191 17.4317L9.36961 19.5394L7.26253 21.6465C6.91331 21.9957 6.91331 22.5614 7.26253 22.9107C7.61113 23.2599 8.17757 23.2599 8.52611 22.9107Z" fill="#FF8B00"/>
</g>
<defs>
<clipPath id="clip0">
<rect width="34" height="34" fill="white" transform="translate(7 7)"/>
</clipPath>
</defs>
</svg>
