<svg width="17" height="20" viewBox="0 0 17 20" fill="none" xmlns="http://www.w3.org/2000/svg">
<g clip-path="url(#clip0)">
<path fill-rule="evenodd" clip-rule="evenodd" d="M16.9333 11.6716C16.8698 11.4813 16.5527 11.4179 16.1721 11.1642C15.728 10.9739 13.6982 9.95895 13.3176 9.83208C12.937 9.70522 12.6198 9.64179 12.3661 10.0224C12.0489 10.4664 11.2877 11.4179 11.034 11.6716C10.7803 11.9254 10.5265 11.9888 10.1459 11.7985C7.48176 10.4664 5.95937 9.51492 4.43698 6.85074C4.18325 6.40671 4.37355 6.21641 4.62728 6.02612C5.07131 5.51865 6.0228 4.56716 5.6422 3.8694C5.51534 3.61567 4.69071 1.58582 4.31011 0.761194C3.86608 -0.317164 2.08996 -0.126866 1.45564 0.570895C-0.827946 3.04477 -0.193618 5.77239 1.70937 8.3097C1.89967 8.56343 4.62728 12.9403 8.87728 14.5895C10.9071 15.4142 15.5377 16.9366 16.743 13.6381C17.0601 12.6866 17.0601 11.8619 16.9333 11.6716Z" fill="white"/>
</g>
<defs>
<clipPath id="clip0">
<rect width="17" height="19.5849" fill="white"/>
</clipPath>
</defs>
</svg>
