<svg width="50" height="50" viewBox="0 0 50 50" fill="none" xmlns="http://www.w3.org/2000/svg">
<path d="M19.6875 30.8438H23.9375V27.125H19.6875V30.8438ZM21.2812 28.1875H22.3438V29.7812H21.2812V28.1875Z" fill="#FF9900"/>
<path d="M22.875 25C22.875 24.414 22.3985 23.9375 21.8125 23.9375C21.2265 23.9375 20.75 24.414 20.75 25V26.0625H22.875V25Z" fill="#FF9900"/>
<path d="M21.8125 20.3698L15.9926 23.7298V23.7889L15.9688 23.8026V27.1012C15.9688 29.3053 16.9669 31.3457 18.7072 32.699L21.7886 35.0938L24.8698 32.699C25.9722 31.8419 26.7743 30.7079 27.2163 29.4321C27.4884 28.6731 27.6329 27.863 27.6329 27.0283V23.7298L21.8125 20.3698ZM24.9761 31.4479C24.9761 31.7416 24.738 31.9792 24.4449 31.9792H19.1324C18.839 31.9792 18.6011 31.7416 18.6011 31.4479V26.6667C18.6011 26.3728 18.839 26.1354 19.1324 26.1354H19.6636V25.0729C19.6636 23.901 20.6167 22.9479 21.7886 22.9479C22.9606 22.9479 23.9136 23.901 23.9136 25.0729V26.1354H24.4449C24.738 26.1354 24.9761 26.3728 24.9761 26.6667V31.4479Z" fill="#FF9900"/>
<path d="M31.9062 13.3125H27.6562V17.2969C27.6562 17.7363 28.0137 18.0938 28.4531 18.0938C28.8925 18.0938 29.25 17.7363 29.25 17.2969V15.4375H30.3125V17.2969C30.3125 18.3223 29.4785 19.1562 28.4531 19.1562C27.4277 19.1562 26.5938 18.3223 26.5938 17.2969V13.3125H11.7188C11.4256 13.3125 11.1875 13.5499 11.1875 13.8438V41.4688C11.1875 41.7626 11.4256 42 11.7188 42H31.9062C32.1994 42 32.4375 41.7626 32.4375 41.4688V13.8438C32.4375 13.5499 32.1994 13.3125 31.9062 13.3125ZM19.6875 16.5H21.8125V17.5625H19.6875V16.5ZM14.375 16.5H18.625V17.5625H14.375V16.5ZM14.375 18.625H18.625V19.6875H14.375V18.625ZM18.0795 33.465C16.0782 31.9094 14.9301 29.5634 14.9301 27.0288V23.4239C14.9301 23.234 15.031 23.0584 15.1957 22.9637L21.5469 19.2966C21.7116 19.2019 21.9134 19.2019 22.0781 19.2966L28.4293 22.9632C28.594 23.0584 28.6949 23.2335 28.6949 23.4234V27.0282C28.6949 29.5628 27.5468 31.9094 25.5455 33.4645L22.138 36.1127C22.0426 36.1882 21.9277 36.2253 21.8125 36.2253C21.6973 36.2253 21.5824 36.1882 21.4864 36.1132L18.0795 33.465ZM23.9375 38.8125H21.8125V37.75H23.9375V38.8125ZM29.25 38.8125H25V37.75H29.25V38.8125ZM29.25 36.6875H25V35.625H29.25V36.6875Z" fill="#FF9900"/>
<path d="M38.2812 8H19.1562C18.8631 8 18.625 8.23735 18.625 8.53125V9.59375H36.1562C36.4494 9.59375 36.6875 9.8311 36.6875 10.125V37.75H38.2812C38.5744 37.75 38.8125 37.5126 38.8125 37.2188V8.53125C38.8125 8.23735 38.5744 8 38.2812 8Z" fill="#FF9900"/>
<path d="M35.0938 10.6562H14.9062C14.6131 10.6562 14.375 10.8936 14.375 11.1875V12.25H32.9688C33.2619 12.25 33.5 12.4874 33.5 12.7812V39.875H35.0938C35.3869 39.875 35.625 39.6376 35.625 39.3438V11.1875C35.625 10.8936 35.3869 10.6562 35.0938 10.6562Z" fill="#FF9900"/>
<circle cx="25" cy="25" r="24.5" stroke="#FF8B00"/>
</svg>
