<svg width="42" height="39" viewBox="0 0 42 39" fill="none" xmlns="http://www.w3.org/2000/svg">
<g clip-path="url(#clip0)">
<path d="M17.8906 13.0118C17.8906 11.5944 19.2498 10.3074 21 10.3074C22.7502 10.3074 24.1094 11.5944 24.1094 13.0118C24.1094 14.4293 22.7502 15.7163 21 15.7163C19.2498 15.7163 17.8906 14.4293 17.8906 13.0118Z" stroke="white"/>
<path d="M19.118 17.4248C19.145 17.4307 19.1668 17.4385 19.1822 17.4456L19.1858 17.4521L20.4983 19.7826L20.934 20.5562L21.3696 19.7826L22.6622 17.4876C22.6823 17.465 22.7027 17.4498 22.7225 17.4395C22.7466 17.427 22.7821 17.4154 22.8371 17.4154C26.104 17.4154 28.5715 19.6993 28.5715 22.3338V24.4313C28.5715 24.4302 28.5712 24.4309 28.5705 24.4328C28.5654 24.4454 28.5381 24.5139 28.4152 24.5139H13.584C13.4611 24.5139 13.4338 24.4454 13.4288 24.4328C13.428 24.4309 13.4277 24.4302 13.4277 24.4313V22.3338C13.4277 19.6929 15.9025 17.4154 19.0309 17.4154C19.06 17.4154 19.0899 17.4187 19.118 17.4248Z" stroke="white"/>
<path d="M4.58636 15.729L4.27829 15.7779L0.623696 16.3573C0.590981 16.3668 0.551968 16.3887 0.523774 16.4179C0.506351 16.4359 0.501272 16.4475 0.5 16.4516V19.4643C0.501023 19.4676 0.502653 19.4721 0.505087 19.4775C0.508832 19.4858 0.513378 19.4937 0.518167 19.5005C0.522935 19.5072 0.526807 19.5111 0.528832 19.5129C0.562753 19.543 0.579292 19.5504 0.585474 19.5528C0.590967 19.555 0.609037 19.5616 0.65625 19.5616H8.20312C8.25034 19.5616 8.26841 19.555 8.2739 19.5528C8.28008 19.5504 8.29662 19.543 8.33054 19.5129C8.35674 19.4896 8.36512 19.4752 8.36663 19.4725C8.36664 19.4724 8.36665 19.4724 8.36666 19.4724C8.36666 19.4711 8.36661 19.4692 8.36645 19.4666C8.36615 19.4616 8.36567 19.4565 8.36433 19.4435L8.36422 19.4424C8.36366 19.4371 8.36263 19.4271 8.3618 19.4172C8.36098 19.4074 8.35938 19.3869 8.35938 19.3624C8.35938 13.0892 14.0877 8.08382 21 8.08382C27.9091 8.08382 33.642 13.087 33.575 19.3642M4.58636 15.729L37.8775 8.72719C37.8775 8.72719 37.8775 8.72721 37.8774 8.72726M4.58636 15.729L4.67796 15.4309C5.05831 14.1927 5.62841 12.9564 6.38614 11.8352L6.5846 11.5415L6.37324 11.257L4.33886 8.51869L4.32954 8.50615L4.31982 8.49465C4.32306 8.48054 4.33398 8.44946 4.36566 8.40662L8.86049 4.47389L8.8605 4.4739L8.86165 4.47288C8.86461 4.47133 8.87602 4.4665 8.90039 4.4665C8.93723 4.4665 8.98908 4.47877 9.04163 4.51377L9.04157 4.51385L9.05015 4.51932L12.0689 6.44199L12.3094 6.59517L12.5637 6.46616C13.8996 5.78845 15.2384 5.33474 16.7159 4.99253L17.0298 4.91985L17.0933 4.60402L17.748 1.34918C17.7527 1.33097 17.7605 1.32071 17.7751 1.3105C17.7946 1.29693 17.8389 1.27661 17.9156 1.27661H24.2812C24.325 1.27661 24.3681 1.29203 24.405 1.32016C24.435 1.34296 24.4488 1.36458 24.4538 1.37377L25.1036 4.60402L25.1671 4.91985L25.4809 4.99253C26.947 5.33208 28.2841 5.84085 29.5587 6.51982L29.8093 6.65334L30.0524 6.50642L33.1368 4.64201L33.1461 4.63636L33.1552 4.63029C33.1789 4.61454 33.2083 4.60507 33.2556 4.60974C33.302 4.61432 33.3624 4.63311 33.4278 4.67195M4.58636 15.729L33.4278 4.67195M33.575 19.3642C33.575 19.3654 33.575 19.3667 33.575 19.368L33.075 19.3624H33.575C33.575 19.363 33.575 19.3636 33.575 19.3642ZM33.575 19.3642C33.5752 19.3827 33.5788 19.4102 33.5886 19.4406C33.5987 19.4716 33.6125 19.4974 33.6269 19.516C33.6406 19.5338 33.6532 19.5433 33.6639 19.5488C33.6733 19.5537 33.6928 19.5616 33.7313 19.5616H41.3438C41.3947 19.5616 41.4451 19.5419 41.4759 19.5164C41.4896 19.505 41.4953 19.496 41.4974 19.4919C41.4988 19.4891 41.5 19.4861 41.5 19.479V16.6886M41.5 16.6886C41.5003 16.6897 41.5005 16.6903 41.5005 16.6905C41.5006 16.6909 41.5 16.6882 41.5 16.6823V16.6886ZM41.5 16.6886C41.4997 16.6876 41.4993 16.6863 41.4987 16.6848C41.4958 16.6774 41.4912 16.6699 41.4861 16.6641C41.4829 16.6606 41.4807 16.6589 41.4798 16.6583M41.4798 16.6583L41.4799 16.6583L41.4794 16.6581C41.4792 16.6579 41.4793 16.658 41.4798 16.6583ZM41.4798 16.6583L41.4791 16.6582L41.475 16.658H41.4317L41.3891 16.6505L37.7141 16.0097L37.3921 15.9535L37.3143 15.636C37.003 14.3643 36.4401 13.192 35.6733 12.0006L35.4778 11.6968L35.7048 11.4158L37.8705 8.73567L37.8772 8.72736M37.8772 8.72736C37.8769 8.72828 37.8768 8.72834 37.8771 8.72786C37.8772 8.72758 37.8773 8.72736 37.8774 8.72726M37.8772 8.72736C37.8778 8.72527 37.879 8.71884 37.8777 8.70823C37.8764 8.69741 37.873 8.68628 37.8683 8.67697C37.8644 8.66924 37.8613 8.66598 37.8613 8.66596L37.8591 8.664L33.4278 4.67195M37.8772 8.72736L37.8773 8.72718L37.8774 8.72726M37.8774 8.72726L33.4278 4.67195M8.86084 4.47334C8.86083 4.47334 8.86093 4.47327 8.86115 4.47315L8.86084 4.47334ZM0.499631 16.4532C0.4996 16.4532 0.499645 16.4528 0.499861 16.452L0.499631 16.4532Z" stroke="white"/>
<path d="M10.1309 25.1304V36.8412C10.1309 36.8654 10.1265 36.8772 10.1249 36.8809C10.1234 36.8843 10.1219 36.8866 10.1184 36.8897C10.1124 36.895 10.0744 36.9238 9.97461 36.9238H3.41211C3.31229 36.9238 3.27433 36.895 3.26829 36.8897C3.26485 36.8866 3.26329 36.8843 3.26182 36.8809C3.26023 36.8772 3.25586 36.8654 3.25586 36.8412V25.1304C3.25586 25.1062 3.26023 25.0943 3.26182 25.0906C3.26329 25.0872 3.26485 25.0849 3.26829 25.0819C3.27433 25.0765 3.31229 25.0477 3.41211 25.0477H9.97461C10.0975 25.0477 10.1248 25.1162 10.1298 25.1289C10.1306 25.1308 10.1309 25.1314 10.1309 25.1304Z" stroke="white"/>
<path d="M37.8494 30.1546L37.8304 30.1635L37.8122 30.174L29.9403 34.7167L24.8258 37.5692C24.8256 37.5693 24.8254 37.5694 24.8253 37.5695C24.3795 37.8167 23.7315 37.9931 23.0313 38.0546C22.3326 38.1159 21.6324 38.0584 21.0894 37.8808L21.0868 37.8799L15.6399 36.1321L15.6393 36.1319C14.2896 35.7005 13.1512 35.7489 12.4434 35.7922V26.3637C13.2111 26.2341 14.3298 26.0997 15.4788 26.1755C16.8618 26.2667 18.195 26.6558 19.051 27.6184L19.0706 27.6404L19.0927 27.66C19.3673 27.9038 19.6648 27.903 19.8034 27.9027C19.8086 27.9026 19.8136 27.9026 19.8184 27.9026H26.3152C27.2389 27.9026 27.9809 28.6292 27.9809 29.5001C27.9809 30.371 27.2389 31.0975 26.3152 31.0975H20.0809C19.9269 31.0975 19.8132 31.1213 19.7257 31.1472C19.7155 31.1502 19.706 31.1532 19.6977 31.1558H19.2527V31.6148C19.247 31.6406 19.2382 31.6825 19.232 31.7321C19.216 31.8596 19.2194 32.0145 19.2715 32.1992L19.3741 32.5637H19.7527H26.3809C26.7204 32.5637 27.0778 32.487 27.4303 32.2568L36.2672 27.2008C37.1344 26.7536 38.1948 27.1227 38.5949 27.9089C39.014 28.85 38.6881 29.7604 37.8494 30.1546Z" stroke="white"/>
</g>
<defs>
<clipPath id="clip0">
<rect width="42" height="37.8018" fill="white" transform="translate(0 0.776611)"/>
</clipPath>
</defs>
</svg>
