<svg width="45" height="45" viewBox="0 0 45 45" fill="none" xmlns="http://www.w3.org/2000/svg">
<circle cx="22.5" cy="22.5" r="22.5" fill="#FF9900" fill-opacity="0.86"/>
<path d="M28.1331 15.1269L27.6686 15.7785C31.9869 18.8539 32.9945 24.8477 29.9191 29.1659C26.8437 33.4842 20.8499 34.4918 16.5316 31.4164C12.2133 28.341 11.2057 22.3472 14.2812 18.0289C15.0794 16.9081 16.1094 15.9719 17.3011 15.284L16.9007 14.5918C11.9262 17.4644 10.2223 23.8257 13.0949 28.8001C14.9528 32.0175 18.3857 33.9995 22.1009 33.9999C27.8451 33.9995 32.5013 29.3425 32.5009 23.5984C32.5006 20.2344 30.8733 17.0782 28.1331 15.1269Z" fill="white"/>
<path d="M15.301 23.5999C15.3009 22.5306 15.554 21.4765 16.0397 20.5238L16.5295 21.7484L17.2725 21.4515L16.4725 19.4515C16.4014 19.272 16.2117 19.1692 16.0225 19.2078L14.0225 19.6078L14.1795 20.3922L15.3263 20.1628C13.4248 23.9012 14.9139 28.4731 18.6523 30.3745C18.8138 30.4567 18.9783 30.5331 19.1453 30.6035L19.4566 29.8668C16.9357 28.8055 15.2976 26.3352 15.301 23.5999Z" fill="white"/>
<path d="M29.5009 23.6C29.5086 21.5259 28.6609 19.5403 27.1576 18.1113L26.6041 18.6887C29.3161 21.2851 29.4097 25.5885 26.8133 28.3005C26.6509 28.47 26.4799 28.6311 26.301 28.7829V27.6H25.501V29.6C25.501 29.7906 25.6355 29.9547 25.8225 29.9922L27.8225 30.3922L27.9795 29.6078L26.8353 29.379C28.5277 27.9363 29.5021 25.8239 29.5009 23.6Z" fill="white"/>
<path d="M26.5007 15.2538C26.4399 15.2186 26.3708 15.2 26.3006 15.2H24.0033L25.0904 10.4898C25.1399 10.2744 25.0054 10.0596 24.79 10.0101C24.7607 10.0034 24.7307 10 24.7006 10H21.1006C20.9131 9.99995 20.7507 10.1302 20.7101 10.3133L19.1101 17.5133C19.0838 17.6317 19.1126 17.7557 19.1884 17.8504C19.2644 17.9449 19.3792 17.9999 19.5005 18H22.6058L21.5093 23.116C21.4681 23.3084 21.5729 23.5023 21.7566 23.573C21.8024 23.5909 21.8511 23.6 21.9003 23.6C22.0431 23.6 22.1751 23.5239 22.2466 23.4004L26.6466 15.8004C26.7572 15.6091 26.6919 15.3644 26.5007 15.2538ZM22.8216 20.8105L23.4917 17.684C23.5381 17.468 23.4006 17.2553 23.1846 17.2089C23.157 17.2029 23.1288 17.1999 23.1005 17.2H19.9992L23.4912 17.5133L24.1978 10.8L23.1107 15.5101C23.0612 15.7255 23.1957 15.9403 23.4111 15.9898C23.4404 15.9966 23.4704 16 23.5005 16L23.4912 17.5133L22.8216 20.8105Z" fill="white"/>
<path d="M24.3266 21.7996L23.634 22.2004C24.1859 23.1572 23.8576 24.3803 22.9008 24.9322C21.944 25.4841 20.7209 25.1558 20.169 24.199C19.6171 23.2421 19.9454 22.019 20.9022 21.4671C21.0081 21.4061 21.1194 21.3548 21.2346 21.314L20.9682 20.5593C19.5101 21.0749 18.746 22.6749 19.2615 24.1331C19.6571 25.2518 20.7148 25.9998 21.9014 25.9999C23.4482 25.9995 24.7018 24.7453 24.7014 23.1985C24.7013 22.7074 24.572 22.2249 24.3266 21.7996Z" fill="white"/>
<path d="M34.2133 12.0626C34.1948 12.0395 34.1739 12.0185 34.1508 12.0001L32.1508 10.4001C31.9782 10.2621 31.7264 10.2902 31.5885 10.4628C31.5319 10.5337 31.501 10.6218 31.501 10.7126V11.4802L30.1508 10.4001C29.9782 10.2621 29.7264 10.2902 29.5885 10.4628C29.5319 10.5337 29.501 10.6218 29.501 10.7126V13.9126C29.501 14.1335 29.6802 14.3126 29.9012 14.3126C29.9919 14.3126 30.0799 14.2817 30.1508 14.2251L31.501 13.1449V13.9126C31.5011 14.1335 31.6802 14.3126 31.9012 14.3126C31.9919 14.3126 32.08 14.2817 32.1509 14.2251L34.1509 12.6251C34.3233 12.487 34.3513 12.2352 34.2133 12.0626ZM32.3009 13.0802L32.87 12.6251L33.2607 12.3126L32.3009 13.0802Z" fill="white"/>
</svg>
