<svg width="42" height="42" viewBox="0 0 42 42" fill="none" xmlns="http://www.w3.org/2000/svg">
<path d="M29.9829 8.97215L29.1701 10.1124C36.7271 15.4943 38.4903 25.9834 33.1084 33.5404C27.7265 41.0974 17.2373 42.8606 9.68032 37.4787C2.12331 32.0967 0.360018 21.6076 5.74204 14.0506C7.13898 12.0892 8.94139 10.4509 11.0269 9.24699L10.3262 8.03564C1.62089 13.0627 -1.36102 24.1949 3.66602 32.9003C6.91734 38.5306 12.925 41.9992 19.4266 41.9999C29.4789 41.9991 37.6273 33.8495 37.6265 23.7971C37.626 17.9102 34.7783 12.3869 29.9829 8.97215Z" fill="white"/>
<path d="M7.52652 23.8001C7.52626 21.9288 7.96927 20.084 8.81924 18.4169L9.67639 20.5599L10.9766 20.0404L9.57655 16.5404C9.45213 16.2262 9.12024 16.0464 8.78905 16.1138L5.28906 16.8138L5.5639 18.1865L7.57071 17.7852C4.24318 24.3273 6.8491 32.3281 13.3912 35.6557C13.6739 35.7995 13.9618 35.9331 14.254 36.0563L14.7989 34.7671C10.3872 32.9098 7.52048 28.5868 7.52652 23.8001Z" fill="white"/>
<path d="M32.3769 23.7999C32.3903 20.1703 30.9069 16.6955 28.276 14.1948L27.3074 15.2052C32.0534 19.749 32.2173 27.2799 27.6735 32.0258C27.3894 32.3225 27.0901 32.6043 26.777 32.8701V30.7999H25.377V34.2999C25.377 34.6335 25.6124 34.9207 25.9396 34.9863L29.4396 35.6863L29.7144 34.3136L27.7121 33.9133C30.6737 31.3885 32.3789 27.6918 32.3769 23.7999Z" fill="white"/>
<path d="M27.126 9.19425C27.0195 9.13265 26.8987 9.10019 26.7757 9.1001H22.7555L24.658 0.857358C24.7446 0.480409 24.5092 0.104509 24.1323 0.0178846C24.0809 0.00607208 24.0284 0.000122095 23.9757 0.000122095H17.6757C17.3476 3.45957e-05 17.0635 0.227972 16.9925 0.548396L14.1925 13.1484C14.1464 13.3557 14.1968 13.5726 14.3295 13.7383C14.4625 13.9038 14.6634 14 14.8757 14.0001H20.3098L18.391 22.9531C18.3189 23.2899 18.5023 23.6291 18.8237 23.7529C18.9039 23.7841 18.9892 23.8002 19.0753 23.8001C19.3251 23.8001 19.5561 23.667 19.6813 23.4508L27.3813 10.1508C27.5749 9.81611 27.4607 9.38789 27.126 9.19425ZM20.6876 18.9185L21.8602 13.4471C21.9414 13.0691 21.7008 12.6969 21.3228 12.6157C21.2744 12.6053 21.2251 12.6 21.1756 12.6001H15.7483L21.8594 13.1484L23.0958 1.40012L21.1934 9.64286C21.1068 10.0198 21.3422 10.3957 21.7191 10.4823C21.7705 10.4941 21.823 10.5001 21.8756 10.5001L21.8594 13.1484L20.6876 18.9185Z" fill="white"/>
<path d="M23.3214 20.6494L22.1093 21.3508C23.0752 23.0253 22.5006 25.1657 20.8262 26.1315C19.1517 27.0974 17.0113 26.5228 16.0454 24.8484C15.0796 23.1739 15.6541 21.0335 17.3286 20.0676C17.5139 19.9608 17.7086 19.8711 17.9103 19.7997L17.4441 18.479C14.8924 19.3812 13.5552 22.1813 14.4574 24.733C15.1496 26.6908 17.0007 27.9998 19.0772 28.0001C21.7841 27.9994 23.9779 25.8044 23.9772 23.0975C23.977 22.2381 23.7508 21.3938 23.3214 20.6494Z" fill="white"/>
<path d="M40.6235 3.60948C40.5912 3.56906 40.5545 3.53239 40.5141 3.50011L37.0141 0.700112C36.7121 0.4587 36.2715 0.507874 36.0302 0.809924C35.931 0.933999 35.877 1.08809 35.877 1.24699V2.59037L33.5141 0.700112C33.2121 0.4587 32.7715 0.507874 32.5302 0.809924C32.431 0.933999 32.377 1.08809 32.377 1.24699V6.84697C32.377 7.23364 32.6906 7.54706 33.0773 7.54697C33.236 7.54697 33.3901 7.49298 33.5142 7.39385L35.877 5.50359V6.84697C35.8771 7.23364 36.1906 7.54706 36.5774 7.54697C36.7361 7.54697 36.8902 7.49298 37.0143 7.39385L40.5143 4.59385C40.8161 4.35227 40.8651 3.91153 40.6235 3.60948ZM37.2769 5.39028L38.2727 4.59385L38.9564 4.04698L37.2769 5.39028Z" fill="white"/>
</svg>
