<svg width="24" height="24" viewBox="0 0 24 24" fill="none" xmlns="http://www.w3.org/2000/svg">
<path d="M23.8776 0.983075C23.7708 0.889371 23.6187 0.867631 23.4899 0.927398L0.207347 11.7451C0.0820015 11.8034 0.00128401 11.9284 -0.000222714 12.0666C-0.00172944 12.2048 0.0763333 12.3316 0.200459 12.3925L6.78937 15.6261C6.9102 15.6854 7.05427 15.672 7.16218 15.5914L13.5684 10.8033L8.53926 15.9764C8.46751 16.0502 8.43092 16.1513 8.43881 16.2539L8.93954 22.7751C8.95067 22.9196 9.04753 23.0431 9.18521 23.0884C9.22202 23.1005 9.25983 23.1063 9.29721 23.1063C9.39974 23.1063 9.49947 23.0624 9.56885 22.982L13.066 18.9295L17.3893 20.9951C17.4831 21.04 17.5917 21.0418 17.6871 21.0004C17.7825 20.9588 17.8551 20.878 17.8862 20.7789L23.9833 1.36026C24.0259 1.22465 23.9844 1.07678 23.8776 0.983075Z" fill="white"/>
</svg>
