<svg width="64" height="47" viewBox="0 0 64 47" fill="none" xmlns="http://www.w3.org/2000/svg">
<g clip-path="url(#clip0)">
<path d="M58.7224 0.551208H5.27762C2.36762 0.551208 0 2.91883 0 5.82883V37.8956C0 40.8057 2.36762 43.1732 5.27762 43.1732H11.8111C13.2756 45.725 16.026 47.4488 19.1732 47.4488C22.3205 47.4488 25.0709 45.725 26.5354 43.1732H58.7222C61.6324 43.1732 63.9999 40.8056 63.9999 37.8956V5.82883C64 2.91883 61.6324 0.551208 58.7224 0.551208ZM19.1732 45.4447C15.6001 45.4447 12.6931 42.5377 12.6931 38.9646C12.6931 35.3915 15.6001 32.4845 19.1732 32.4845C22.7464 32.4845 25.6534 35.3915 25.6534 38.9646C25.6535 42.5378 22.7465 45.4447 19.1732 45.4447ZM16.4205 22.5721C16.0684 22.3961 15.8294 22.043 15.796 21.6423L15.5625 19.0971C15.539 18.8412 15.4182 18.6042 15.2249 18.435C14.971 18.2125 14.8311 17.9113 14.8311 17.5868V14.3802C14.8311 13.1646 15.8201 12.1756 17.0357 12.1756H23.5157V17.5868C23.5157 17.9113 23.3759 18.2126 23.122 18.435C22.9286 18.6042 22.8079 18.8415 22.7844 19.0971L22.5501 21.6508C22.5174 22.0431 22.2784 22.3961 21.9262 22.5722C21.5861 22.7423 21.3715 23.0903 21.3722 23.4707L21.3762 25.3715C21.3781 26.2622 21.9471 27.0501 22.7924 27.3318L27.0147 28.7392C27.4791 28.8941 27.7912 29.327 27.7912 29.8167V32.5515C27.7912 32.5882 27.7614 32.6182 27.7245 32.6182H24.7956C23.2975 31.2896 21.3286 30.4805 19.1734 30.4805C17.0181 30.4805 15.0491 31.2896 13.551 32.6182H10.6221C10.5852 32.6182 10.5554 32.5881 10.5554 32.5515V29.8167C10.5554 29.3271 10.8675 28.8941 11.3319 28.7392L15.5542 27.3318C16.3994 27.0502 16.9684 26.2622 16.9704 25.3715L16.9744 23.4707C16.9752 23.0902 16.7606 22.7423 16.4205 22.5721ZM26.4585 34.6222H27.7245C28.8665 34.6222 29.7955 33.6932 29.7955 32.5512V29.8165C29.7955 28.4628 28.9326 27.2658 27.6485 26.8377L23.4261 25.4303C23.3989 25.4212 23.3805 25.3958 23.3804 25.3671L23.3776 24.0087C24.0422 23.4752 24.4752 22.6821 24.5466 21.8256L24.7475 19.6366C25.2425 19.0678 25.52 18.341 25.52 17.5867V11.1733C25.52 10.62 25.0714 10.1712 24.5179 10.1712H17.0356C14.7149 10.1712 12.8269 12.0593 12.8269 14.38V17.5866C12.8269 18.3408 13.1044 19.0677 13.5994 19.6365L13.7995 21.8168C13.8714 22.68 14.3047 23.4746 14.9691 24.0083L14.9664 25.3667C14.9664 25.3955 14.9479 25.4208 14.9206 25.43L10.6982 26.8375C9.41412 27.2655 8.55125 28.4626 8.55125 29.8162V32.551C8.55125 33.693 9.48025 34.622 10.6222 34.622H11.8882C11.4701 35.3206 11.1496 36.084 10.9459 36.8933H6.3465C6.30962 36.8933 6.27975 36.8632 6.27975 36.8266V6.89783C6.27975 6.86108 6.30962 6.83109 6.3465 6.83109H32C32.0369 6.83109 32.0667 6.86121 32.0667 6.89783V36.8268C32.0667 36.8636 32.0369 36.8936 32 36.8936H27.401C27.197 36.0842 26.8765 35.3208 26.4585 34.6222ZM61.9959 37.8957C61.9959 39.7007 60.5274 41.1692 58.7224 41.1692H27.3652C27.5547 40.4657 27.6576 39.7271 27.6576 38.9646C27.6576 38.9423 27.6561 38.9201 27.6559 38.8978H32C33.142 38.8978 34.071 37.9688 34.071 36.8268V6.89783C34.071 5.75583 33.142 4.82683 32 4.82683H6.3465C5.2045 4.82683 4.2755 5.75583 4.2755 6.89783V36.8268C4.2755 37.9688 5.2045 38.8978 6.3465 38.8978H10.6906C10.6905 38.9201 10.6889 38.9423 10.6889 38.9646C10.6889 39.7271 10.7916 40.4657 10.9811 41.1692H5.27762C3.47262 41.1692 2.00412 39.7007 2.00412 37.8957V5.82883C2.00412 4.02383 3.47262 2.55533 5.27762 2.55533H58.7222C60.5272 2.55533 61.9957 4.02383 61.9957 5.82883V37.8957H61.9959Z" fill="#FF9900"/>
<path d="M23.0574 36.088C22.6497 35.7139 22.0158 35.7415 21.6418 36.1495L18.3774 39.7107L16.6192 38.2037C16.1988 37.8434 15.5664 37.892 15.2062 38.3123C14.8459 38.7325 14.8946 39.3652 15.3148 39.7253L17.8089 41.8631C17.9976 42.0247 18.2296 42.1043 18.4607 42.1043C18.7322 42.1043 19.0024 41.9946 19.1997 41.7793L23.1189 37.5037C23.4929 37.0959 23.4653 36.462 23.0574 36.088Z" fill="#FF9900"/>
<path d="M52.3084 6.96442H37.3439C36.7905 6.96442 36.3418 7.41304 36.3418 7.96654C36.3418 8.51991 36.7904 8.96866 37.3439 8.96866H52.3084C52.8618 8.96866 53.3105 8.52004 53.3105 7.96654C53.3105 7.41304 52.8618 6.96442 52.3084 6.96442Z" fill="#FF9900"/>
<path d="M57.6529 11.2402H37.3439C36.7905 11.2402 36.3418 11.6888 36.3418 12.2423C36.3418 12.7958 36.7904 13.2444 37.3439 13.2444H57.6529C58.2063 13.2444 58.655 12.7958 58.655 12.2423C58.655 11.6888 58.2063 11.2402 57.6529 11.2402Z" fill="#FF9900"/>
<path d="M57.6536 26.2047H43.758C43.2046 26.2047 42.7559 26.6533 42.7559 27.2068C42.7559 27.7603 43.2045 28.2089 43.758 28.2089H57.6536C58.207 28.2089 58.6557 27.7603 58.6557 27.2068C58.6557 26.6533 58.207 26.2047 57.6536 26.2047Z" fill="#FF9900"/>
<path d="M39.4817 26.2047H37.3439C36.7905 26.2047 36.3418 26.6533 36.3418 27.2068C36.3418 27.7603 36.7904 28.2089 37.3439 28.2089H39.4817C40.035 28.2089 40.4838 27.7603 40.4838 27.2068C40.4838 26.6533 40.035 26.2047 39.4817 26.2047Z" fill="#FF9900"/>
<path d="M54.4469 30.4801H43.758C43.2046 30.4801 42.7559 30.9287 42.7559 31.4822C42.7559 32.0357 43.2045 32.4844 43.758 32.4844H54.4469C55.0002 32.4844 55.449 32.0357 55.449 31.4822C55.449 30.9287 55.0002 30.4801 54.4469 30.4801Z" fill="#FF9900"/>
<path d="M39.4817 30.4801H37.3439C36.7905 30.4801 36.3418 30.9287 36.3418 31.4822C36.3418 32.0357 36.7904 32.4844 37.3439 32.4844H39.4817C40.035 32.4844 40.4838 32.0357 40.4838 31.4822C40.4838 30.9287 40.035 30.4801 39.4817 30.4801Z" fill="#FF9900"/>
<path d="M54.4469 34.7557H43.758C43.2046 34.7557 42.7559 35.2044 42.7559 35.7579C42.7559 36.3114 43.2045 36.76 43.758 36.76H54.4469C55.0002 36.76 55.449 36.3114 55.449 35.7579C55.449 35.2044 55.0002 34.7557 54.4469 34.7557Z" fill="#FF9900"/>
<path d="M39.4817 34.7557H37.3439C36.7905 34.7557 36.3418 35.2044 36.3418 35.7579C36.3418 36.3114 36.7904 36.76 37.3439 36.76H39.4817C40.035 36.76 40.4838 36.3114 40.4838 35.7579C40.4838 35.2044 40.035 34.7557 39.4817 34.7557Z" fill="#FF9900"/>
<path d="M39.4817 16.5845C37.7503 16.5845 36.3418 17.993 36.3418 19.7244C36.3418 21.4558 37.7503 22.8643 39.4817 22.8643C41.213 22.8643 42.6215 21.4558 42.6215 19.7244C42.6215 17.993 41.213 16.5845 39.4817 16.5845ZM39.4817 20.8602C38.8554 20.8602 38.3459 20.3507 38.3459 19.7244C38.3459 19.0982 38.8554 18.5887 39.4817 18.5887C40.1079 18.5887 40.6174 19.0982 40.6174 19.7244C40.6174 20.3507 40.1079 20.8602 39.4817 20.8602Z" fill="#FF9900"/>
<path d="M48.0344 16.5845C46.303 16.5845 44.8945 17.993 44.8945 19.7244C44.8945 21.4558 46.303 22.8643 48.0344 22.8643C49.7658 22.8643 51.1743 21.4558 51.1743 19.7244C51.1743 17.993 49.7658 16.5845 48.0344 16.5845ZM48.0344 20.8602C47.4082 20.8602 46.8987 20.3507 46.8987 19.7244C46.8987 19.0982 47.4082 18.5887 48.0344 18.5887C48.6606 18.5887 49.1701 19.0982 49.1701 19.7244C49.1701 20.3507 48.6606 20.8602 48.0344 20.8602Z" fill="#FF9900"/>
<path d="M56.5852 16.5845C54.8538 16.5845 53.4453 17.993 53.4453 19.7244C53.4453 21.4558 54.8538 22.8643 56.5852 22.8643C58.3166 22.8643 59.7251 21.4558 59.7251 19.7244C59.7251 17.993 58.3166 16.5845 56.5852 16.5845ZM56.5852 20.8602C55.9589 20.8602 55.4494 20.3507 55.4494 19.7244C55.4494 19.0982 55.9589 18.5887 56.5852 18.5887C57.2114 18.5887 57.7209 19.0982 57.7209 19.7244C57.7209 20.3507 57.2114 20.8602 56.5852 20.8602Z" fill="#FF9900"/>
</g>
<defs>
<clipPath id="clip0">
<rect width="64" height="47" fill="white"/>
</clipPath>
</defs>
</svg>
