<svg width="45" height="45" viewBox="0 0 45 45" fill="none" xmlns="http://www.w3.org/2000/svg">
<circle cx="22.5" cy="22.5" r="22.5" fill="#FF9900" fill-opacity="0.86"/>
<g clip-path="url(#clip0)">
<path d="M28.1806 26.4616H29.2277C29.4083 26.4616 29.5548 26.315 29.5548 26.1343C29.5548 25.9537 29.4083 25.8071 29.2277 25.8071H28.1806C28 25.8071 27.8535 25.9537 27.8535 26.1343C27.8535 26.315 28 26.4616 28.1806 26.4616Z" fill="white"/>
<path d="M32.6729 21.2395H30.6057V19.9684C30.6057 19.968 30.6057 19.9678 30.6057 19.9675V18.3765C30.6057 18.3762 30.6057 18.3758 30.6057 18.3757V17.9762C30.6057 17.0723 29.8703 16.3368 28.9666 16.3368H23.1323V13.4312C23.1323 12.642 22.4899 12 21.7006 12H14.4986C13.7092 12 13.0669 12.642 13.0669 13.4312V18.8295C12.5323 18.8666 12.0344 19.092 11.6517 19.4749C11.233 19.8937 11.0018 20.4501 11.0003 21.0421C11.0003 21.0441 11 21.0459 11 21.0479V31.7754C11 33.002 11.998 33.9998 13.2246 33.9998H23.1976C23.3782 33.9998 23.5247 33.8535 23.5247 33.6727C23.5247 33.4921 23.3782 33.3456 23.1976 33.3456H13.2246C12.3587 33.3456 11.6543 32.6411 11.6543 31.7754V22.622C12.0569 23.0237 12.6122 23.2724 13.2245 23.2724L25.5797 23.2726C26.2865 23.2726 26.8615 23.8476 26.8615 24.5544V29.3275V29.3283V29.3292V30.7011V30.702V30.7028V32.0636C26.8615 32.7704 26.2865 33.3456 25.5797 33.3456H24.2881C24.1075 33.3456 23.961 33.4919 23.961 33.6727C23.961 33.8533 24.1075 33.9998 24.2881 33.9998H25.5797C26.6473 33.9998 27.5159 33.1312 27.5159 32.0636V31.0291H32.6729C32.8535 31.0291 33 30.8826 33 30.702V21.5666C33 21.386 32.8536 21.2395 32.6729 21.2395ZM18.8495 21.2395V20.2946H29.9512V21.2395H18.8495ZM29.9512 17.9762V18.0492H26.7961C26.6154 18.0492 26.4689 18.1957 26.4689 18.3765C26.4689 18.5571 26.6154 18.7036 26.7961 18.7036H29.9512V19.6404H18.8495V18.7036H25.7056C25.8862 18.7036 26.0327 18.5571 26.0327 18.3765C26.0327 18.1957 25.8862 18.0492 25.7056 18.0492H18.8495V17.875C18.8495 17.3877 19.2458 16.9913 19.7329 16.9913H28.9666C29.5096 16.9913 29.9512 17.433 29.9512 17.9762ZM13.7213 13.4312C13.7213 13.0027 14.0699 12.6543 14.4986 12.6543H21.7006C22.1292 12.6543 22.478 13.0029 22.478 13.4312V16.3368H22.2123V14.8161C22.2123 14.3287 21.8154 13.9319 21.3276 13.9319H14.8712C14.3836 13.9319 13.987 14.3287 13.987 14.8161V15.9796C13.987 16.1602 14.1334 16.3068 14.3141 16.3068C14.4947 16.3068 14.6413 16.1602 14.6413 15.9796V14.8161C14.6413 14.6894 14.7443 14.5863 14.8712 14.5863H21.3276C21.4547 14.5863 21.5579 14.6894 21.5579 14.8161V16.3368H19.7329C18.8849 16.3368 18.1951 17.0268 18.1951 17.875V21.2395H16.7964C16.6158 21.2395 16.4693 21.386 16.4693 21.5668V22.6181L14.6413 22.618V17.0404C14.6413 16.8598 14.4947 16.7133 14.3141 16.7133C14.1334 16.7133 13.987 16.8598 13.987 17.0404V22.618H13.7213V13.4312ZM11.6544 21.0479C11.6544 20.6285 11.8177 20.2342 12.1143 19.9375C12.3735 19.6785 12.7072 19.521 13.0669 19.4855V22.6101C12.275 22.5309 11.6544 21.8605 11.6544 21.0479ZM27.0247 23.2675H29.3099C29.4492 24.1174 30.1221 24.7903 30.9721 24.9296V27.3392C30.1221 27.4785 29.4492 28.1512 29.3099 29.0012H27.5159V24.5544C27.5159 24.0608 27.33 23.61 27.0247 23.2675ZM32.3457 30.3748H27.5159V29.6555H29.6105C29.7913 29.6555 29.9378 29.5091 29.9378 29.3283C29.9378 28.5777 30.5484 27.9669 31.2992 27.9669C31.4798 27.9669 31.6263 27.8204 31.6263 27.6398V24.629C31.6263 24.4483 31.4798 24.3018 31.2992 24.3018C30.5484 24.3018 29.9378 23.691 29.9378 22.9404C29.9378 22.7596 29.7913 22.6131 29.6105 22.6131L17.1236 22.6181V21.8939H32.3457V30.3748Z" fill="white"/>
<path d="M30.9974 23.0654C31.043 23.1822 31.1612 23.2621 31.2856 23.2672C31.4242 23.2727 31.5546 23.1874 31.6043 23.058C31.6554 22.9251 31.6129 22.7698 31.5003 22.6827C31.3923 22.599 31.2414 22.5914 31.1255 22.6636C30.9924 22.7465 30.9361 22.9204 30.9974 23.0654Z" fill="white"/>
<path d="M31.6011 29.203C31.548 29.0773 31.4195 28.9944 31.2827 29.0019C31.1486 29.0092 31.0311 29.0986 30.9886 29.2258C30.8923 29.5139 31.2275 29.7695 31.4802 29.6005C31.6101 29.5135 31.6575 29.347 31.6011 29.203Z" fill="white"/>
<path d="M25.6837 28.2234C25.6837 27.3575 24.9793 26.6531 24.1133 26.6531C23.2474 26.6531 22.543 27.3575 22.543 28.2234C22.543 29.0892 23.2474 29.7937 24.1133 29.7937C24.9793 29.7937 25.6837 29.0892 25.6837 28.2234ZM23.1974 28.2234C23.1974 27.7182 23.6083 27.3073 24.1133 27.3073C24.6186 27.3073 25.0294 27.7182 25.0294 28.2234C25.0294 28.7285 24.6186 29.1394 24.1133 29.1394C23.6083 29.1394 23.1974 28.7285 23.1974 28.2234Z" fill="white"/>
</g>
<defs>
<clipPath id="clip0">
<rect width="22" height="22" fill="white" transform="translate(11 12)"/>
</clipPath>
</defs>
</svg>
