<svg width="35" height="35" viewBox="0 0 35 35" fill="none" xmlns="http://www.w3.org/2000/svg">
<g clip-path="url(#clip0)">
<path d="M27.5587 1.01416H7.44848C5.43461 1.01416 3.79922 2.64954 3.79922 4.66342V21.31L1.49255 19.0033C1.14977 18.6606 0.599878 18.6606 0.25709 19.0033C-0.0856968 19.3461 -0.0856968 19.896 0.25709 20.2388L4.06346 24.0452C4.23485 24.2166 4.45623 24.3023 4.68476 24.3023C4.91328 24.3023 5.13467 24.2166 5.30606 24.0452L9.11243 20.2388C9.45521 19.896 9.45521 19.3461 9.11243 19.0033C8.76964 18.6606 8.21975 18.6606 7.87696 19.0033L5.56315 21.3172V4.66342C5.56315 3.61363 6.41298 2.7638 7.46276 2.7638H27.5658C28.6156 2.7638 29.4654 3.61363 29.4654 4.66342V7.09149C29.4654 7.57711 29.8582 7.96988 30.3438 7.96988C30.8294 7.96988 31.2222 7.57711 31.2222 7.09149V4.66342C31.2008 2.65668 29.5654 1.01416 27.5587 1.01416Z" fill="white"/>
<path d="M29.7091 10.9622L25.9027 14.7686C25.56 15.1114 25.56 15.6612 25.9027 16.004C26.0741 16.1754 26.2955 16.2611 26.524 16.2611C26.7526 16.2611 26.974 16.1754 27.1453 16.004L29.4592 13.6902V30.3368C29.4592 31.3866 28.6093 32.2364 27.5595 32.2364H7.44937C6.39958 32.2364 5.54975 31.3866 5.54975 30.3368V27.9087C5.54975 27.4231 5.15698 27.0303 4.67136 27.0303C4.18575 27.0303 3.79297 27.4231 3.79297 27.9087V30.3368C3.79297 32.3507 5.42835 33.9861 7.44222 33.9861H27.5453C29.5591 33.9861 31.1945 32.3507 31.1945 30.3368V13.6902L33.5083 16.004C33.8511 16.3468 34.401 16.3468 34.7438 16.004C35.0866 15.6612 35.0866 15.1114 34.7438 14.7686L30.9374 10.9622C30.6232 10.6337 30.0376 10.6337 29.7091 10.9622Z" fill="white"/>
<path d="M25.7598 18.3894H23.3227V16.0472H25.7598C26.126 16.0472 26.4228 15.7506 26.4228 15.3843C26.4228 15.018 26.126 14.7213 25.7598 14.7213H23.3227V11.4713C23.3227 10.9969 23.2289 10.6487 23.0441 10.4366C22.8685 10.2348 22.6376 10.1409 22.3178 10.1409C22.0126 10.1409 21.7904 10.2341 21.6181 10.4346C21.4355 10.647 21.3428 10.9958 21.3428 11.4715V14.7217H16.7584L14.8092 11.7721C14.6424 11.5089 14.4855 11.2623 14.3332 11.0256C14.1961 10.8124 14.0623 10.6389 13.936 10.5093C13.8241 10.3946 13.6967 10.3058 13.5476 10.2375C13.4069 10.1733 13.2281 10.1411 13.0165 10.1411C12.7466 10.1411 12.5017 10.215 12.2671 10.3669C12.035 10.5171 11.8746 10.7029 11.7766 10.9348C11.6905 11.1552 11.645 11.4929 11.645 11.9288V14.7215H9.23212C8.86599 14.7215 8.56934 15.0182 8.56934 15.3845C8.56934 15.7508 8.86599 16.0473 9.23216 16.0473H11.6451V18.3898H9.23216C8.86599 18.3898 8.56934 18.6865 8.56934 19.0529C8.56934 19.419 8.86599 19.7155 9.23216 19.7155H11.6451V23.4261C11.6451 23.8865 11.7418 24.2312 11.9334 24.4502C12.1156 24.6591 12.3467 24.756 12.6604 24.756C12.9631 24.756 13.1924 24.6586 13.3825 24.4494C13.5771 24.2351 13.6756 23.8906 13.6756 23.4262V19.7155H17.8239L20.0688 23.1578C20.2249 23.3853 20.386 23.615 20.5468 23.8402C20.6918 24.0424 20.85 24.2206 21.0169 24.3694C21.1673 24.5041 21.3285 24.6027 21.496 24.6629C21.6685 24.725 21.87 24.7565 22.0937 24.7565C22.7008 24.7565 23.3226 24.5706 23.3226 23.1923V19.7155H25.7597C26.1259 19.7155 26.4228 19.4186 26.4228 19.0524C26.4228 18.6863 26.126 18.3894 25.7598 18.3894ZM21.3427 16.0471V18.3894H19.1827L17.635 16.0471H21.3427ZM13.6756 13.3558L14.5664 14.7213H13.6756V13.3558ZM13.6756 18.3894V16.0472H15.4313L16.9591 18.3894H13.6756ZM21.3427 21.6586L20.059 19.7155H21.3427V21.6586Z" fill="white"/>
</g>
<defs>
<clipPath id="clip0">
<rect width="35" height="35" fill="white"/>
</clipPath>
</defs>
</svg>
