<svg width="24" height="24" viewBox="0 0 24 24" fill="none" xmlns="http://www.w3.org/2000/svg">
<path d="M24 2.55899C23.1166 2.9504 22.1688 3.21585 21.173 3.33436C22.1898 2.72546 22.9682 1.75966 23.3371 0.612363C22.3833 1.17625 21.3304 1.5857 20.2086 1.80766C19.3103 0.849343 18.0325 0.252441 16.6153 0.252441C13.8963 0.252441 11.6917 2.45703 11.6917 5.17452C11.6917 5.55993 11.7352 5.93636 11.8192 6.29632C7.728 6.09083 4.1002 4.13072 1.67216 1.15225C1.24773 1.87813 1.00627 2.72393 1.00627 3.6268C1.00627 5.33499 1.87612 6.84221 3.19588 7.72401C2.38902 7.69703 1.63016 7.47507 0.965804 7.10613V7.16762C0.965804 9.55217 2.66349 11.5423 4.91455 11.9952C4.50212 12.1062 4.06722 12.1677 3.61729 12.1677C3.29937 12.1677 2.99192 12.1362 2.69047 12.0762C3.31733 14.0333 5.13502 15.4566 7.28863 15.4956C5.60443 16.8153 3.48082 17.5997 1.17427 17.5997C0.776863 17.5997 0.385412 17.5757 0 17.5322C2.1791 18.9315 4.76612 19.7473 7.54659 19.7473C16.6034 19.7473 21.554 12.2457 21.554 5.73993L21.5375 5.10256C22.5047 4.41264 23.3416 3.54581 24 2.55899Z" fill="#F66C0E"/>
</svg>
