<svg width="24" height="20" viewBox="0 0 24 20" fill="none" xmlns="http://www.w3.org/2000/svg">
<path d="M24 2.82634C22.4903 2.89592 22.5233 2.89024 22.3526 2.90452L23.2467 0.351118C23.2467 0.351118 20.4558 1.37779 19.7483 1.56144C17.8901 -0.10866 15.1282 -0.182451 13.1536 1.03117C11.5366 2.02525 10.6686 3.73234 10.9581 5.72764C7.81109 5.29094 5.15954 3.79918 3.0661 1.28441L2.40399 0.489179L1.90924 1.39775C1.28394 2.54582 1.07629 3.8585 1.3244 5.09391C1.42621 5.60075 1.59924 6.08415 1.83893 6.53679L1.27093 6.31669L1.20355 7.26573C1.13525 8.22978 1.45624 9.35514 2.06232 10.2758C2.23297 10.5351 2.4527 10.8198 2.7312 11.1007L2.43768 11.0556L2.79584 12.1431C3.2666 13.5719 4.24438 14.6773 5.5133 15.2918C4.24603 15.8296 3.22229 16.1727 1.53955 16.7262L0 17.2323L1.422 18.0098C1.96417 18.3063 3.88 19.2963 5.77295 19.5933C9.98071 20.2532 14.7182 19.7158 17.9075 16.8434C20.5939 14.4241 21.4753 10.9826 21.2922 7.40123C21.2646 6.85905 21.4131 6.3416 21.7104 5.94444C22.3061 5.14921 23.9963 2.83165 24 2.82634ZM20.586 5.10215C20.0922 5.76152 19.8448 6.60362 19.8891 7.473C20.0738 11.0855 19.0909 13.887 16.9675 15.7994C14.4869 18.0334 10.4859 18.9103 5.99066 18.2052C5.17657 18.0776 4.3352 17.7917 3.63885 17.5063C5.04968 17.0209 6.13916 16.5882 7.89862 15.7554L10.3548 14.5929L7.643 14.4193C6.34405 14.3362 5.26245 13.7066 4.59759 12.6846C4.95062 12.664 5.29101 12.6069 5.62994 12.5124L8.21631 11.7921L5.60834 11.1534C4.34106 10.8431 3.61871 10.0848 3.23584 9.50328C2.98444 9.12114 2.82019 8.72966 2.72168 8.36876C2.98315 8.43889 3.28802 8.48887 3.77966 8.53758L6.19354 8.77635L4.28101 7.28441C2.90295 6.20958 2.35071 4.59477 2.75555 3.0424C7.05633 7.50322 12.106 7.16795 12.6143 7.28587C12.5024 6.19914 12.4995 6.19658 12.4702 6.09312C11.8193 3.79204 13.2458 2.62364 13.8893 2.22813C15.2333 1.40214 17.3666 1.27763 18.8443 2.63847C19.1634 2.93217 19.595 3.04771 19.999 2.94737C20.3615 2.85728 20.6591 2.76188 20.9504 2.65806L20.3439 4.38987L21.1181 4.39042C20.972 4.58635 20.7967 4.8209 20.586 5.10215Z" fill="#FF8B02"/>
</svg>
