<svg width="38" height="39" viewBox="0 0 38 39" fill="none" xmlns="http://www.w3.org/2000/svg">
<g clip-path="url(#clip0)">
<path d="M5.19457 7.61768C4.78414 7.61768 4.45312 7.95679 4.45312 8.37863C4.45312 8.77038 4.74028 9.09693 5.12035 9.13563C5.56039 9.18049 5.93601 8.82858 5.93601 8.37863C5.93601 7.9574 5.60559 7.61768 5.19457 7.61768Z" fill="#FF9900"/>
<path d="M13.3591 3.04688C10.9308 3.04688 8.56691 3.92818 6.70291 5.52848C6.38852 5.79835 6.34681 6.27877 6.60984 6.60143C6.87287 6.9241 7.34097 6.96713 7.65528 6.69695C9.25269 5.32555 11.2784 4.57031 13.3591 4.57031C18.2699 4.57031 22.2651 8.67072 22.2651 13.7107C22.2651 18.7507 18.2699 22.8511 13.3591 22.8511C8.44838 22.8511 4.45312 18.7506 4.45312 13.7106C4.45312 12.9191 4.55198 12.1339 4.74688 11.3763C4.85153 10.9696 4.61514 10.5528 4.21881 10.4453C3.82241 10.3383 3.41636 10.5806 3.31171 10.9873C3.08416 11.8717 2.96875 12.788 2.96875 13.7106C2.96875 19.5906 7.62983 24.3744 13.3591 24.3744C19.0883 24.3744 23.7494 19.5906 23.7494 13.7106C23.7494 7.83062 19.0884 3.04688 13.3591 3.04688Z" fill="#FF9900"/>
<path d="M36.9117 32.4986L28.6899 24.0597C28.0057 23.3575 26.9834 23.2092 26.1559 23.6138L24.248 21.6557C25.8657 19.3288 26.718 16.5967 26.718 13.7115C26.718 6.15154 20.7252 0.000976562 13.359 0.000976562C5.99278 0.000976562 0 6.15154 0 13.7115C0 21.2715 5.99286 27.422 13.359 27.422C16.1702 27.422 18.8322 26.5473 21.0995 24.887L23.0065 26.8442C22.6195 27.6742 22.742 28.7275 23.442 29.4459L31.6643 37.8838C33.1138 39.3724 35.4612 39.3736 36.9116 37.8841C38.3625 36.3961 38.3631 33.987 36.9117 32.4986ZM13.359 25.8987C6.81126 25.8987 1.4843 20.4316 1.4843 13.7115C1.4843 6.99148 6.81126 1.52433 13.359 1.52433C19.9067 1.52433 25.2337 6.99141 25.2337 13.7115C25.2337 20.4413 19.9235 25.8987 13.359 25.8987ZM22.2658 23.9293C22.6344 23.5905 22.9849 23.2309 23.315 22.8525L25.016 24.5983L23.9668 25.6752L22.2658 23.9293ZM35.862 36.8071C34.9921 37.7003 33.5846 37.7009 32.714 36.8068L24.4915 28.3688C24.2016 28.0711 24.2015 27.5888 24.4915 27.2912L26.5904 25.1371C26.5904 25.137 26.5905 25.137 26.5905 25.137C26.8801 24.8401 27.351 24.8402 27.6403 25.137L35.8622 33.5761C36.7326 34.4687 36.7334 35.9132 35.862 36.8071Z" fill="#FF9900"/>
<g clip-path="url(#clip1)">
<path d="M16.3897 7.37539H18.6142L15.9893 4.52173V6.96076C15.9893 7.18027 16.1672 7.37539 16.3897 7.37539Z" fill="#FF9900"/>
<path d="M16.3898 7.86306C15.9226 7.86306 15.5445 7.44842 15.5445 6.93623V4.37524H8.69296C8.33704 4.37524 8.04785 4.69232 8.04785 5.08256V19.2533C8.04785 19.6436 8.33704 19.9606 8.69296 19.9606H18.1027C18.4586 19.9606 18.7478 19.6436 18.7478 19.2533V7.86306H16.3898ZM9.87196 6.42403H14.5212C14.6547 6.42403 14.7436 6.52159 14.7436 6.66793C14.7436 6.81427 14.6547 6.91184 14.5212 6.91184H9.87196C9.73848 6.91184 9.6495 6.81427 9.6495 6.66793C9.6495 6.52159 9.76073 6.42403 9.87196 6.42403ZM9.87196 8.2533H14.5212C14.6547 8.2533 14.7436 8.35086 14.7436 8.4972C14.7436 8.64355 14.6547 8.74111 14.5212 8.74111H9.87196C9.73848 8.74111 9.6495 8.64355 9.6495 8.4972C9.6495 8.35086 9.76073 8.2533 9.87196 8.2533ZM16.9014 17.9363H9.87196C9.73848 17.9363 9.6495 17.8387 9.6495 17.6923C9.6495 17.546 9.73848 17.4484 9.87196 17.4484H16.8792C17.0127 17.4484 17.1016 17.546 17.1016 17.6923C17.1239 17.8387 17.0127 17.9363 16.9014 17.9363ZM16.9014 16.107H9.87196C9.73848 16.107 9.6495 16.0094 9.6495 15.8631C9.6495 15.7167 9.73848 15.6192 9.87196 15.6192H16.8792C17.0127 15.6192 17.1016 15.7167 17.1016 15.8631C17.1016 16.0094 17.0127 16.107 16.9014 16.107ZM16.9014 14.2533H9.87196C9.73848 14.2533 9.6495 14.1558 9.6495 14.0094C9.6495 13.8631 9.73848 13.7655 9.87196 13.7655H16.8792C17.0127 13.7655 17.1016 13.8631 17.1016 14.0094C17.1016 14.1558 17.0127 14.2533 16.9014 14.2533ZM16.9014 12.424H9.87196C9.73848 12.424 9.6495 12.3265 9.6495 12.1801C9.6495 12.0338 9.73848 11.9362 9.87196 11.9362H16.8792C17.0127 11.9362 17.1016 12.0338 17.1016 12.1801C17.1016 12.3265 17.0127 12.424 16.9014 12.424ZM16.9014 10.5948H9.87196C9.73848 10.5948 9.6495 10.4972 9.6495 10.3509C9.6495 10.2045 9.73848 10.107 9.87196 10.107H16.8792C17.0127 10.107 17.1016 10.2045 17.1016 10.3509C17.1016 10.4972 17.0127 10.5948 16.9014 10.5948Z" fill="#FF9900"/>
</g>
</g>
<defs>
<clipPath id="clip0">
<rect width="38" height="39" fill="white"/>
</clipPath>
<clipPath id="clip1">
<rect width="14.6818" height="20.122" fill="white" transform="translate(6.0459 4.13159)"/>
</clipPath>
</defs>
</svg>
