<svg width="53" height="53" viewBox="0 0 53 53" fill="none" xmlns="http://www.w3.org/2000/svg">
<path d="M48.6295 7.08154H4.37053C1.96069 7.08154 0 9.04223 0 11.4521V38.0074C0 40.4173 1.96069 42.3779 4.37053 42.3779H9.78109C10.9939 44.4911 13.2715 45.9186 15.8778 45.9186C18.4842 45.9186 20.7618 44.4911 21.9746 42.3779H48.6294C51.0393 42.3779 52.9999 40.4172 52.9999 38.0074V11.4521C53 9.04223 51.0393 7.08154 48.6295 7.08154ZM15.8778 44.259C12.9189 44.259 10.5115 41.8516 10.5115 38.8926C10.5115 35.9336 12.9189 33.5263 15.8778 33.5263C18.8368 33.5263 21.2442 35.9336 21.2442 38.8926C21.2443 41.8517 18.8369 44.259 15.8778 44.259ZM13.5982 25.3176C13.3066 25.1718 13.1087 24.8794 13.0811 24.5476L12.8877 22.4398C12.8682 22.228 12.7682 22.0317 12.6081 21.8915C12.3979 21.7073 12.282 21.4579 12.282 21.1892V18.5337C12.282 17.527 13.101 16.708 14.1077 16.708H19.474V21.1892C19.474 21.4579 19.3581 21.7074 19.1479 21.8915C18.9878 22.0317 18.8878 22.2282 18.8683 22.4398L18.6743 24.5547C18.6472 24.8795 18.4493 25.1718 18.1577 25.3177C17.876 25.4586 17.6983 25.7468 17.6989 26.0618L17.7022 27.6358C17.7038 28.3735 18.175 29.0259 18.8749 29.2593L22.3716 30.4247C22.7561 30.553 23.0146 30.9115 23.0146 31.317V33.5818C23.0146 33.6122 22.9899 33.637 22.9593 33.637H20.5339C19.2932 32.5368 17.6628 31.8667 15.8779 31.8667C14.0931 31.8667 12.4626 32.5368 11.2219 33.637H8.79644C8.76591 33.637 8.74117 33.6121 8.74117 33.5818V31.317C8.74117 30.9116 8.99965 30.553 9.38421 30.4247L12.8809 29.2593C13.5807 29.026 14.0519 28.3735 14.0536 27.6358L14.0569 26.0618C14.0576 25.7467 13.8799 25.4586 13.5982 25.3176ZM21.9109 35.2966H22.9593C23.9051 35.2966 24.6744 34.5273 24.6744 33.5815V31.3168C24.6744 30.1959 23.9598 29.2046 22.8964 28.8501L19.3998 27.6846C19.3772 27.677 19.362 27.656 19.3619 27.6322L19.3596 26.5073C19.91 26.0655 20.2686 25.4087 20.3277 24.6994L20.494 22.8866C20.9039 22.4156 21.1337 21.8137 21.1337 21.1891V15.878C21.1337 15.4197 20.7622 15.0481 20.3039 15.0481H14.1076C12.1858 15.0481 10.6223 16.6117 10.6223 18.5335V21.189C10.6223 21.8136 10.8521 22.4155 11.262 22.8865L11.4277 24.6921C11.4872 25.4069 11.8461 26.065 12.3963 26.507L12.394 27.6319C12.394 27.6557 12.3787 27.6767 12.3561 27.6843L8.85949 28.8498C7.79607 29.2043 7.0815 30.1957 7.0815 31.3166V33.5813C7.0815 34.5271 7.85083 35.2964 8.79655 35.2964H9.84496C9.4987 35.8749 9.23328 36.5071 9.06455 37.1774H5.25569C5.22516 37.1774 5.20042 37.1524 5.20042 37.1221V12.3373C5.20042 12.3069 5.22516 12.2821 5.25569 12.2821H26.5C26.5305 12.2821 26.5553 12.307 26.5553 12.3373V37.1223C26.5553 37.1527 26.5305 37.1776 26.5 37.1776H22.6914C22.5225 36.5073 22.2571 35.8751 21.9109 35.2966ZM51.3403 38.0075C51.3403 39.5022 50.1242 40.7183 48.6295 40.7183H22.6618C22.8188 40.1357 22.904 39.5241 22.904 38.8926C22.904 38.8742 22.9027 38.8558 22.9025 38.8373H26.5C27.4457 38.8373 28.215 38.068 28.215 37.1223V12.3373C28.215 11.3916 27.4457 10.6223 26.5 10.6223H5.25569C4.30998 10.6223 3.54065 11.3916 3.54065 12.3373V37.1223C3.54065 38.068 4.30998 38.8373 5.25569 38.8373H8.85317C8.85307 38.8558 8.85172 38.8742 8.85172 38.8926C8.85172 39.5241 8.93681 40.1357 9.09374 40.7183H4.37053C2.87577 40.7183 1.65967 39.5022 1.65967 38.0075V11.4521C1.65967 9.95731 2.87577 8.74121 4.37053 8.74121H48.6294C50.1241 8.74121 51.3402 9.95731 51.3402 11.4521V38.0075H51.3403Z" fill="#FF9900"/>
<path d="M19.0938 36.5104C18.7561 36.2006 18.2312 36.2235 17.9215 36.5614L15.2181 39.5105L13.7621 38.2625C13.414 37.9641 12.8903 38.0044 12.5919 38.3524C12.2936 38.7004 12.3339 39.2243 12.6819 39.5226L14.7474 41.2929C14.9036 41.4267 15.0957 41.4927 15.2871 41.4927C15.5119 41.4927 15.7357 41.4018 15.8991 41.2235L19.1447 37.6828C19.4544 37.3451 19.4315 36.8202 19.0938 36.5104Z" fill="#FF9900"/>
<path d="M43.3186 12.3923H30.9261C30.4678 12.3923 30.0962 12.7639 30.0962 13.2222C30.0962 13.6805 30.4677 14.0521 30.9261 14.0521H43.3186C43.7768 14.0521 44.1484 13.6806 44.1484 13.2222C44.1484 12.7639 43.7768 12.3923 43.3186 12.3923Z" fill="#FF9900"/>
<path d="M47.7445 15.9333H30.9261C30.4678 15.9333 30.0962 16.3049 30.0962 16.7632C30.0962 17.2216 30.4677 17.5931 30.9261 17.5931H47.7445C48.2027 17.5931 48.5743 17.2216 48.5743 16.7632C48.5743 16.3049 48.2027 15.9333 47.7445 15.9333Z" fill="#FF9900"/>
<path d="M47.7444 28.3257H36.2371C35.7788 28.3257 35.4072 28.6972 35.4072 29.1556C35.4072 29.6139 35.7787 29.9855 36.2371 29.9855H47.7444C48.2027 29.9855 48.5743 29.6139 48.5743 29.1556C48.5743 28.6972 48.2027 28.3257 47.7444 28.3257Z" fill="#FF9900"/>
<path d="M32.6964 28.3257H30.9261C30.4678 28.3257 30.0962 28.6972 30.0962 29.1556C30.0962 29.6139 30.4677 29.9855 30.9261 29.9855H32.6964C33.1547 29.9855 33.5263 29.6139 33.5263 29.1556C33.5263 28.6972 33.1547 28.3257 32.6964 28.3257Z" fill="#FF9900"/>
<path d="M45.0888 31.8662H36.2371C35.7788 31.8662 35.4072 32.2377 35.4072 32.6961C35.4072 33.1545 35.7787 33.526 36.2371 33.526H45.0888C45.5471 33.526 45.9187 33.1545 45.9187 32.6961C45.9187 32.2377 45.5471 31.8662 45.0888 31.8662Z" fill="#FF9900"/>
<path d="M32.6964 31.8662H30.9261C30.4678 31.8662 30.0962 32.2377 30.0962 32.6961C30.0962 33.1545 30.4677 33.526 30.9261 33.526H32.6964C33.1547 33.526 33.5263 33.1545 33.5263 32.6961C33.5263 32.2377 33.1547 31.8662 32.6964 31.8662Z" fill="#FF9900"/>
<path d="M45.0888 35.407H36.2371C35.7788 35.407 35.4072 35.7785 35.4072 36.2369C35.4072 36.6952 35.7787 37.0668 36.2371 37.0668H45.0888C45.5471 37.0668 45.9187 36.6952 45.9187 36.2369C45.9187 35.7785 45.5471 35.407 45.0888 35.407Z" fill="#FF9900"/>
<path d="M32.6964 35.407H30.9261C30.4678 35.407 30.0962 35.7785 30.0962 36.2369C30.0962 36.6952 30.4677 37.0668 30.9261 37.0668H32.6964C33.1547 37.0668 33.5263 36.6952 33.5263 36.2369C33.5263 35.7785 33.1547 35.407 32.6964 35.407Z" fill="#FF9900"/>
<path d="M32.6964 20.3591C31.2626 20.3591 30.0962 21.5255 30.0962 22.9593C30.0962 24.3931 31.2626 25.5596 32.6964 25.5596C34.1302 25.5596 35.2966 24.3931 35.2966 22.9593C35.2966 21.5255 34.1302 20.3591 32.6964 20.3591ZM32.6964 23.8999C32.1778 23.8999 31.7559 23.478 31.7559 22.9593C31.7559 22.4407 32.1778 22.0188 32.6964 22.0188C33.215 22.0188 33.6369 22.4407 33.6369 22.9593C33.6369 23.478 33.215 23.8999 32.6964 23.8999Z" fill="#FF9900"/>
<path d="M39.7774 20.3591C38.3437 20.3591 37.1772 21.5255 37.1772 22.9593C37.1772 24.3931 38.3437 25.5596 39.7774 25.5596C41.2112 25.5596 42.3776 24.3931 42.3776 22.9593C42.3776 21.5255 41.2112 20.3591 39.7774 20.3591ZM39.7774 23.8999C39.2588 23.8999 38.8369 23.478 38.8369 22.9593C38.8369 22.4407 39.2588 22.0188 39.7774 22.0188C40.2961 22.0188 40.718 22.4407 40.718 22.9593C40.718 23.478 40.2961 23.8999 39.7774 23.8999Z" fill="#FF9900"/>
<path d="M46.859 20.3591C45.4252 20.3591 44.2588 21.5255 44.2588 22.9593C44.2588 24.3931 45.4252 25.5596 46.859 25.5596C48.2928 25.5596 49.4592 24.3931 49.4592 22.9593C49.4592 21.5255 48.2928 20.3591 46.859 20.3591ZM46.859 23.8999C46.3404 23.8999 45.9185 23.478 45.9185 22.9593C45.9185 22.4407 46.3404 22.0188 46.859 22.0188C47.3776 22.0188 47.7995 22.4407 47.7995 22.9593C47.7995 23.478 47.3776 23.8999 46.859 23.8999Z" fill="#FF9900"/>
</svg>
