<svg width="30" height="30" viewBox="0 0 30 30" fill="none" xmlns="http://www.w3.org/2000/svg">
<g clip-path="url(#clip0)">
<path d="M23.4285 19.7202H24.8563C25.1026 19.7202 25.3024 19.5204 25.3024 19.2738C25.3024 19.0276 25.1026 18.8278 24.8563 18.8278H23.4285C23.1822 18.8278 22.9824 19.0276 22.9824 19.2738C22.9824 19.5204 23.1822 19.7202 23.4285 19.7202Z" fill="white"/>
<path d="M29.5539 12.5993H26.735V10.8659C26.735 10.8655 26.735 10.8652 26.735 10.8648V8.69522C26.735 8.69476 26.735 8.69431 26.735 8.69408V8.14934C26.735 6.91681 25.7323 5.91385 24.5 5.91385H16.544V1.95168C16.544 0.875473 15.6681 0 14.5917 0H4.77081C3.69438 0 2.81845 0.875473 2.81845 1.95168V9.31297C2.08946 9.36356 1.4106 9.67094 0.888748 10.193C0.317688 10.7641 0.0025177 11.5228 0.000457764 12.3301C0.000457764 12.3328 0 12.3354 0 12.3381V26.9664C0 28.6391 1.36093 29.9998 3.0336 29.9998H16.6331C16.8793 29.9998 17.0792 29.8002 17.0792 29.5537C17.0792 29.3074 16.8793 29.1076 16.6331 29.1076H3.0336C1.8528 29.1076 0.892181 28.147 0.892181 26.9664V14.4846C1.44127 15.0323 2.19841 15.3715 3.03337 15.3715L19.8814 15.3717C20.8452 15.3717 21.6293 16.1559 21.6293 17.1197V23.6284V23.6295V23.6307V25.5016V25.5027V25.5038V27.3594C21.6293 28.3232 20.8452 29.1076 19.8814 29.1076H18.1201C17.8738 29.1076 17.674 29.3072 17.674 29.5537C17.674 29.8 17.8738 29.9998 18.1201 29.9998H19.8814C21.3373 29.9998 22.5217 28.8153 22.5217 27.3594V25.9488H29.5539C29.8002 25.9488 30 25.749 30 25.5027V13.0453C30 12.7991 29.8004 12.5993 29.5539 12.5993ZM10.7039 12.5993V11.3109H25.8426V12.5993H10.7039ZM25.8426 8.14934V8.2489H21.5401C21.2938 8.2489 21.094 8.44872 21.094 8.69522C21.094 8.9415 21.2938 9.14131 21.5401 9.14131H25.8426V10.4187H10.7039V9.14131H20.053C20.2993 9.14131 20.4991 8.9415 20.4991 8.69522C20.4991 8.44872 20.2993 8.2489 20.053 8.2489H10.7039V8.01132C10.7039 7.34688 11.2443 6.80626 11.9085 6.80626H24.5C25.2404 6.80626 25.8426 7.40868 25.8426 8.14934ZM3.71086 1.95168C3.71086 1.36734 4.18625 0.892181 4.77081 0.892181H14.5917C15.1762 0.892181 15.6519 1.36757 15.6519 1.95168V5.91385H15.2895V3.84018C15.2895 3.17551 14.7482 2.63443 14.0831 2.63443H5.27893C4.61403 2.63443 4.07318 3.17551 4.07318 3.84018V5.42679C4.07318 5.67307 4.27277 5.87288 4.51927 5.87288C4.76555 5.87288 4.96536 5.67307 4.96536 5.42679V3.84018C4.96536 3.66737 5.1059 3.52684 5.27893 3.52684H14.0831C14.2564 3.52684 14.3971 3.66737 14.3971 3.84018V5.91385H11.9085C10.7522 5.91385 9.81148 6.85478 9.81148 8.01132V12.5993H7.90421C7.65793 12.5993 7.45811 12.7991 7.45811 13.0456V14.4793L4.96536 14.4791V6.87332C4.96536 6.62704 4.76555 6.42723 4.51927 6.42723C4.27277 6.42723 4.07318 6.62704 4.07318 6.87332V14.4791H3.71086V1.95168ZM0.89241 12.3381C0.89241 11.7661 1.11511 11.2285 1.51955 10.8238C1.87294 10.4707 2.32796 10.256 2.81845 10.2074V14.4683C1.73859 14.3603 0.89241 13.4461 0.89241 12.3381ZM21.8518 15.3648H24.968C25.158 16.5237 26.0756 17.4413 27.2346 17.6312V20.9171C26.0756 21.107 25.158 22.0244 24.968 23.1834H22.5217V17.1197C22.5217 16.4465 22.2681 15.8318 21.8518 15.3648ZM29.1078 25.0566H22.5217V24.0756H25.378C25.6245 24.0756 25.8243 23.876 25.8243 23.6295C25.8243 22.606 26.657 21.7731 27.6807 21.7731C27.927 21.7731 28.1268 21.5733 28.1268 21.327V17.2213C28.1268 16.975 27.927 16.7752 27.6807 16.7752C26.657 16.7752 25.8243 15.9423 25.8243 14.9187C25.8243 14.6722 25.6245 14.4724 25.378 14.4724L8.3503 14.4793V13.4917H29.1078V25.0566Z" fill="white"/>
<path d="M27.2691 15.0891C27.3313 15.2484 27.4925 15.3573 27.6621 15.3642C27.8511 15.3718 28.029 15.2555 28.0967 15.079C28.1663 14.8977 28.1084 14.686 27.9548 14.5672C27.8076 14.453 27.6019 14.4427 27.4437 14.5412C27.2622 14.6542 27.1855 14.8913 27.2691 15.0891Z" fill="white"/>
<path d="M28.0927 23.4587C28.0203 23.2873 27.845 23.1742 27.6585 23.1845C27.4756 23.1943 27.3154 23.3163 27.2575 23.4898C27.1261 23.8826 27.5832 24.2311 27.9279 24.0007C28.105 23.8821 28.1696 23.6551 28.0927 23.4587Z" fill="white"/>
<path d="M20.0231 22.1231C20.0231 20.9423 19.0625 19.9817 17.8817 19.9817C16.7009 19.9817 15.7402 20.9423 15.7402 22.1231C15.7402 23.3037 16.7009 24.2643 17.8817 24.2643C19.0625 24.2643 20.0231 23.3037 20.0231 22.1231ZM16.6326 22.1231C16.6326 21.4342 17.1929 20.8739 17.8817 20.8739C18.5706 20.8739 19.1309 21.4342 19.1309 22.1231C19.1309 22.8118 18.5706 23.3721 17.8817 23.3721C17.1929 23.3721 16.6326 22.8118 16.6326 22.1231Z" fill="white"/>
</g>
<defs>
<clipPath id="clip0">
<rect width="30" height="30" fill="white"/>
</clipPath>
</defs>
</svg>
